%TF.GenerationSoftware,KiCad,Pcbnew,9.0.7*%
%TF.CreationDate,2026-01-30T12:17:07+01:00*%
%TF.ProjectId,rfiq-1,72666971-2d31-42e6-9b69-6361645f7063,1a*%
%TF.SameCoordinates,Original*%
%TF.FileFunction,Legend,Bot*%
%TF.FilePolarity,Positive*%
%FSLAX46Y46*%
G04 Gerber Fmt 4.6, Leading zero omitted, Abs format (unit mm)*
G04 Created by KiCad (PCBNEW 9.0.7) date 2026-01-30 12:17:07*
%MOMM*%
%LPD*%
G01*
G04 APERTURE LIST*
%ADD10C,0.150000*%
%ADD11C,0.100000*%
G04 APERTURE END LIST*
D10*
X189431077Y-95499931D02*
X188859649Y-95499931D01*
X189145363Y-96499931D02*
X189145363Y-95499931D01*
X188526315Y-96499931D02*
X188526315Y-95833264D01*
X188526315Y-95499931D02*
X188573934Y-95547550D01*
X188573934Y-95547550D02*
X188526315Y-95595169D01*
X188526315Y-95595169D02*
X188478696Y-95547550D01*
X188478696Y-95547550D02*
X188526315Y-95499931D01*
X188526315Y-95499931D02*
X188526315Y-95595169D01*
X188050125Y-95833264D02*
X188050125Y-96690407D01*
X188050125Y-96690407D02*
X188097744Y-96785645D01*
X188097744Y-96785645D02*
X188192982Y-96833264D01*
X188192982Y-96833264D02*
X188240601Y-96833264D01*
X188050125Y-95499931D02*
X188097744Y-95547550D01*
X188097744Y-95547550D02*
X188050125Y-95595169D01*
X188050125Y-95595169D02*
X188002506Y-95547550D01*
X188002506Y-95547550D02*
X188050125Y-95499931D01*
X188050125Y-95499931D02*
X188050125Y-95595169D01*
X187431078Y-96499931D02*
X187526316Y-96452312D01*
X187526316Y-96452312D02*
X187573935Y-96357073D01*
X187573935Y-96357073D02*
X187573935Y-95499931D01*
X186335839Y-96452312D02*
X186192982Y-96499931D01*
X186192982Y-96499931D02*
X185954887Y-96499931D01*
X185954887Y-96499931D02*
X185859649Y-96452312D01*
X185859649Y-96452312D02*
X185812030Y-96404692D01*
X185812030Y-96404692D02*
X185764411Y-96309454D01*
X185764411Y-96309454D02*
X185764411Y-96214216D01*
X185764411Y-96214216D02*
X185812030Y-96118978D01*
X185812030Y-96118978D02*
X185859649Y-96071359D01*
X185859649Y-96071359D02*
X185954887Y-96023740D01*
X185954887Y-96023740D02*
X186145363Y-95976121D01*
X186145363Y-95976121D02*
X186240601Y-95928502D01*
X186240601Y-95928502D02*
X186288220Y-95880883D01*
X186288220Y-95880883D02*
X186335839Y-95785645D01*
X186335839Y-95785645D02*
X186335839Y-95690407D01*
X186335839Y-95690407D02*
X186288220Y-95595169D01*
X186288220Y-95595169D02*
X186240601Y-95547550D01*
X186240601Y-95547550D02*
X186145363Y-95499931D01*
X186145363Y-95499931D02*
X185907268Y-95499931D01*
X185907268Y-95499931D02*
X185764411Y-95547550D01*
X184907268Y-96452312D02*
X185002506Y-96499931D01*
X185002506Y-96499931D02*
X185192982Y-96499931D01*
X185192982Y-96499931D02*
X185288220Y-96452312D01*
X185288220Y-96452312D02*
X185335839Y-96404692D01*
X185335839Y-96404692D02*
X185383458Y-96309454D01*
X185383458Y-96309454D02*
X185383458Y-96023740D01*
X185383458Y-96023740D02*
X185335839Y-95928502D01*
X185335839Y-95928502D02*
X185288220Y-95880883D01*
X185288220Y-95880883D02*
X185192982Y-95833264D01*
X185192982Y-95833264D02*
X185002506Y-95833264D01*
X185002506Y-95833264D02*
X184907268Y-95880883D01*
X184478696Y-96499931D02*
X184478696Y-95499931D01*
X184050125Y-96499931D02*
X184050125Y-95976121D01*
X184050125Y-95976121D02*
X184097744Y-95880883D01*
X184097744Y-95880883D02*
X184192982Y-95833264D01*
X184192982Y-95833264D02*
X184335839Y-95833264D01*
X184335839Y-95833264D02*
X184431077Y-95880883D01*
X184431077Y-95880883D02*
X184478696Y-95928502D01*
X183192982Y-96452312D02*
X183288220Y-96499931D01*
X183288220Y-96499931D02*
X183478696Y-96499931D01*
X183478696Y-96499931D02*
X183573934Y-96452312D01*
X183573934Y-96452312D02*
X183621553Y-96357073D01*
X183621553Y-96357073D02*
X183621553Y-95976121D01*
X183621553Y-95976121D02*
X183573934Y-95880883D01*
X183573934Y-95880883D02*
X183478696Y-95833264D01*
X183478696Y-95833264D02*
X183288220Y-95833264D01*
X183288220Y-95833264D02*
X183192982Y-95880883D01*
X183192982Y-95880883D02*
X183145363Y-95976121D01*
X183145363Y-95976121D02*
X183145363Y-96071359D01*
X183145363Y-96071359D02*
X183621553Y-96166597D01*
X182716791Y-95833264D02*
X182716791Y-96833264D01*
X182716791Y-95880883D02*
X182621553Y-95833264D01*
X182621553Y-95833264D02*
X182431077Y-95833264D01*
X182431077Y-95833264D02*
X182335839Y-95880883D01*
X182335839Y-95880883D02*
X182288220Y-95928502D01*
X182288220Y-95928502D02*
X182240601Y-96023740D01*
X182240601Y-96023740D02*
X182240601Y-96309454D01*
X182240601Y-96309454D02*
X182288220Y-96404692D01*
X182288220Y-96404692D02*
X182335839Y-96452312D01*
X182335839Y-96452312D02*
X182431077Y-96499931D01*
X182431077Y-96499931D02*
X182621553Y-96499931D01*
X182621553Y-96499931D02*
X182716791Y-96452312D01*
X181431077Y-96452312D02*
X181526315Y-96499931D01*
X181526315Y-96499931D02*
X181716791Y-96499931D01*
X181716791Y-96499931D02*
X181812029Y-96452312D01*
X181812029Y-96452312D02*
X181859648Y-96357073D01*
X181859648Y-96357073D02*
X181859648Y-95976121D01*
X181859648Y-95976121D02*
X181812029Y-95880883D01*
X181812029Y-95880883D02*
X181716791Y-95833264D01*
X181716791Y-95833264D02*
X181526315Y-95833264D01*
X181526315Y-95833264D02*
X181431077Y-95880883D01*
X181431077Y-95880883D02*
X181383458Y-95976121D01*
X181383458Y-95976121D02*
X181383458Y-96071359D01*
X181383458Y-96071359D02*
X181859648Y-96166597D01*
X180954886Y-95833264D02*
X180954886Y-96499931D01*
X180954886Y-95928502D02*
X180907267Y-95880883D01*
X180907267Y-95880883D02*
X180812029Y-95833264D01*
X180812029Y-95833264D02*
X180669172Y-95833264D01*
X180669172Y-95833264D02*
X180573934Y-95880883D01*
X180573934Y-95880883D02*
X180526315Y-95976121D01*
X180526315Y-95976121D02*
X180526315Y-96499931D01*
X180097743Y-96452312D02*
X180002505Y-96499931D01*
X180002505Y-96499931D02*
X179812029Y-96499931D01*
X179812029Y-96499931D02*
X179716791Y-96452312D01*
X179716791Y-96452312D02*
X179669172Y-96357073D01*
X179669172Y-96357073D02*
X179669172Y-96309454D01*
X179669172Y-96309454D02*
X179716791Y-96214216D01*
X179716791Y-96214216D02*
X179812029Y-96166597D01*
X179812029Y-96166597D02*
X179954886Y-96166597D01*
X179954886Y-96166597D02*
X180050124Y-96118978D01*
X180050124Y-96118978D02*
X180097743Y-96023740D01*
X180097743Y-96023740D02*
X180097743Y-95976121D01*
X180097743Y-95976121D02*
X180050124Y-95880883D01*
X180050124Y-95880883D02*
X179954886Y-95833264D01*
X179954886Y-95833264D02*
X179812029Y-95833264D01*
X179812029Y-95833264D02*
X179716791Y-95880883D01*
X189288220Y-98109875D02*
X189288220Y-97443208D01*
X189288220Y-97633684D02*
X189240601Y-97538446D01*
X189240601Y-97538446D02*
X189192982Y-97490827D01*
X189192982Y-97490827D02*
X189097744Y-97443208D01*
X189097744Y-97443208D02*
X189002506Y-97443208D01*
X188812029Y-97443208D02*
X188431077Y-97443208D01*
X188669172Y-98109875D02*
X188669172Y-97252732D01*
X188669172Y-97252732D02*
X188621553Y-97157494D01*
X188621553Y-97157494D02*
X188526315Y-97109875D01*
X188526315Y-97109875D02*
X188431077Y-97109875D01*
X188097743Y-98109875D02*
X188097743Y-97443208D01*
X188097743Y-97109875D02*
X188145362Y-97157494D01*
X188145362Y-97157494D02*
X188097743Y-97205113D01*
X188097743Y-97205113D02*
X188050124Y-97157494D01*
X188050124Y-97157494D02*
X188097743Y-97109875D01*
X188097743Y-97109875D02*
X188097743Y-97205113D01*
X187192982Y-97443208D02*
X187192982Y-98443208D01*
X187192982Y-98062256D02*
X187288220Y-98109875D01*
X187288220Y-98109875D02*
X187478696Y-98109875D01*
X187478696Y-98109875D02*
X187573934Y-98062256D01*
X187573934Y-98062256D02*
X187621553Y-98014636D01*
X187621553Y-98014636D02*
X187669172Y-97919398D01*
X187669172Y-97919398D02*
X187669172Y-97633684D01*
X187669172Y-97633684D02*
X187621553Y-97538446D01*
X187621553Y-97538446D02*
X187573934Y-97490827D01*
X187573934Y-97490827D02*
X187478696Y-97443208D01*
X187478696Y-97443208D02*
X187288220Y-97443208D01*
X187288220Y-97443208D02*
X187192982Y-97490827D01*
X186716791Y-97728922D02*
X185954887Y-97728922D01*
X184954887Y-98109875D02*
X185526315Y-98109875D01*
X185240601Y-98109875D02*
X185240601Y-97109875D01*
X185240601Y-97109875D02*
X185335839Y-97252732D01*
X185335839Y-97252732D02*
X185431077Y-97347970D01*
X185431077Y-97347970D02*
X185526315Y-97395589D01*
X189335839Y-98815057D02*
X189288220Y-98767438D01*
X189288220Y-98767438D02*
X189192982Y-98719819D01*
X189192982Y-98719819D02*
X188954887Y-98719819D01*
X188954887Y-98719819D02*
X188859649Y-98767438D01*
X188859649Y-98767438D02*
X188812030Y-98815057D01*
X188812030Y-98815057D02*
X188764411Y-98910295D01*
X188764411Y-98910295D02*
X188764411Y-99005533D01*
X188764411Y-99005533D02*
X188812030Y-99148390D01*
X188812030Y-99148390D02*
X189383458Y-99719819D01*
X189383458Y-99719819D02*
X188764411Y-99719819D01*
X188145363Y-98719819D02*
X188050125Y-98719819D01*
X188050125Y-98719819D02*
X187954887Y-98767438D01*
X187954887Y-98767438D02*
X187907268Y-98815057D01*
X187907268Y-98815057D02*
X187859649Y-98910295D01*
X187859649Y-98910295D02*
X187812030Y-99100771D01*
X187812030Y-99100771D02*
X187812030Y-99338866D01*
X187812030Y-99338866D02*
X187859649Y-99529342D01*
X187859649Y-99529342D02*
X187907268Y-99624580D01*
X187907268Y-99624580D02*
X187954887Y-99672200D01*
X187954887Y-99672200D02*
X188050125Y-99719819D01*
X188050125Y-99719819D02*
X188145363Y-99719819D01*
X188145363Y-99719819D02*
X188240601Y-99672200D01*
X188240601Y-99672200D02*
X188288220Y-99624580D01*
X188288220Y-99624580D02*
X188335839Y-99529342D01*
X188335839Y-99529342D02*
X188383458Y-99338866D01*
X188383458Y-99338866D02*
X188383458Y-99100771D01*
X188383458Y-99100771D02*
X188335839Y-98910295D01*
X188335839Y-98910295D02*
X188288220Y-98815057D01*
X188288220Y-98815057D02*
X188240601Y-98767438D01*
X188240601Y-98767438D02*
X188145363Y-98719819D01*
X187431077Y-98815057D02*
X187383458Y-98767438D01*
X187383458Y-98767438D02*
X187288220Y-98719819D01*
X187288220Y-98719819D02*
X187050125Y-98719819D01*
X187050125Y-98719819D02*
X186954887Y-98767438D01*
X186954887Y-98767438D02*
X186907268Y-98815057D01*
X186907268Y-98815057D02*
X186859649Y-98910295D01*
X186859649Y-98910295D02*
X186859649Y-99005533D01*
X186859649Y-99005533D02*
X186907268Y-99148390D01*
X186907268Y-99148390D02*
X187478696Y-99719819D01*
X187478696Y-99719819D02*
X186859649Y-99719819D01*
X186002506Y-98719819D02*
X186192982Y-98719819D01*
X186192982Y-98719819D02*
X186288220Y-98767438D01*
X186288220Y-98767438D02*
X186335839Y-98815057D01*
X186335839Y-98815057D02*
X186431077Y-98957914D01*
X186431077Y-98957914D02*
X186478696Y-99148390D01*
X186478696Y-99148390D02*
X186478696Y-99529342D01*
X186478696Y-99529342D02*
X186431077Y-99624580D01*
X186431077Y-99624580D02*
X186383458Y-99672200D01*
X186383458Y-99672200D02*
X186288220Y-99719819D01*
X186288220Y-99719819D02*
X186097744Y-99719819D01*
X186097744Y-99719819D02*
X186002506Y-99672200D01*
X186002506Y-99672200D02*
X185954887Y-99624580D01*
X185954887Y-99624580D02*
X185907268Y-99529342D01*
X185907268Y-99529342D02*
X185907268Y-99291247D01*
X185907268Y-99291247D02*
X185954887Y-99196009D01*
X185954887Y-99196009D02*
X186002506Y-99148390D01*
X186002506Y-99148390D02*
X186097744Y-99100771D01*
X186097744Y-99100771D02*
X186288220Y-99100771D01*
X186288220Y-99100771D02*
X186383458Y-99148390D01*
X186383458Y-99148390D02*
X186431077Y-99196009D01*
X186431077Y-99196009D02*
X186478696Y-99291247D01*
X185478696Y-99338866D02*
X184716792Y-99338866D01*
X184050125Y-98719819D02*
X183954887Y-98719819D01*
X183954887Y-98719819D02*
X183859649Y-98767438D01*
X183859649Y-98767438D02*
X183812030Y-98815057D01*
X183812030Y-98815057D02*
X183764411Y-98910295D01*
X183764411Y-98910295D02*
X183716792Y-99100771D01*
X183716792Y-99100771D02*
X183716792Y-99338866D01*
X183716792Y-99338866D02*
X183764411Y-99529342D01*
X183764411Y-99529342D02*
X183812030Y-99624580D01*
X183812030Y-99624580D02*
X183859649Y-99672200D01*
X183859649Y-99672200D02*
X183954887Y-99719819D01*
X183954887Y-99719819D02*
X184050125Y-99719819D01*
X184050125Y-99719819D02*
X184145363Y-99672200D01*
X184145363Y-99672200D02*
X184192982Y-99624580D01*
X184192982Y-99624580D02*
X184240601Y-99529342D01*
X184240601Y-99529342D02*
X184288220Y-99338866D01*
X184288220Y-99338866D02*
X184288220Y-99100771D01*
X184288220Y-99100771D02*
X184240601Y-98910295D01*
X184240601Y-98910295D02*
X184192982Y-98815057D01*
X184192982Y-98815057D02*
X184145363Y-98767438D01*
X184145363Y-98767438D02*
X184050125Y-98719819D01*
X182764411Y-99719819D02*
X183335839Y-99719819D01*
X183050125Y-99719819D02*
X183050125Y-98719819D01*
X183050125Y-98719819D02*
X183145363Y-98862676D01*
X183145363Y-98862676D02*
X183240601Y-98957914D01*
X183240601Y-98957914D02*
X183335839Y-99005533D01*
X182335839Y-99338866D02*
X181573935Y-99338866D01*
X181145363Y-98815057D02*
X181097744Y-98767438D01*
X181097744Y-98767438D02*
X181002506Y-98719819D01*
X181002506Y-98719819D02*
X180764411Y-98719819D01*
X180764411Y-98719819D02*
X180669173Y-98767438D01*
X180669173Y-98767438D02*
X180621554Y-98815057D01*
X180621554Y-98815057D02*
X180573935Y-98910295D01*
X180573935Y-98910295D02*
X180573935Y-99005533D01*
X180573935Y-99005533D02*
X180621554Y-99148390D01*
X180621554Y-99148390D02*
X181192982Y-99719819D01*
X181192982Y-99719819D02*
X180573935Y-99719819D01*
X180240601Y-98719819D02*
X179573935Y-98719819D01*
X179573935Y-98719819D02*
X180002506Y-99719819D01*
D11*
G36*
X202134173Y-90459071D02*
G01*
X202135272Y-90459071D01*
X202135272Y-90459987D01*
X202175205Y-90486732D01*
X202210193Y-90519521D01*
X202276343Y-90623189D01*
X202298304Y-90743004D01*
X202298304Y-93266521D01*
X202298304Y-93269085D01*
X202298304Y-93271650D01*
X202293175Y-93318728D01*
X202282916Y-93363974D01*
X202227412Y-93467979D01*
X202136004Y-93545324D01*
X202135088Y-93545324D01*
X202135088Y-93546423D01*
X202090942Y-93566939D01*
X202044780Y-93580312D01*
X201923319Y-93584653D01*
X201809757Y-93542393D01*
X200612473Y-92852346D01*
X200975179Y-92852346D01*
X200975179Y-92853262D01*
X201844928Y-93352433D01*
X201846027Y-93352433D01*
X201919300Y-93376980D01*
X201920216Y-93376064D01*
X201934687Y-93376064D01*
X201961432Y-93376064D01*
X201433318Y-92468396D01*
X201383033Y-92550088D01*
X201295382Y-92649747D01*
X201259295Y-92683269D01*
X201227421Y-92707998D01*
X201135830Y-92749947D01*
X201057611Y-92783836D01*
X201056512Y-92783836D01*
X200994596Y-92829815D01*
X200975179Y-92852346D01*
X200612473Y-92852346D01*
X200155426Y-92588930D01*
X200517407Y-92588930D01*
X200518323Y-92588930D01*
X200933963Y-92828715D01*
X200961807Y-92797025D01*
X201032698Y-92743902D01*
X201120259Y-92706899D01*
X201200676Y-92670080D01*
X201229436Y-92647548D01*
X201262409Y-92616774D01*
X201361979Y-92501344D01*
X201403459Y-92417288D01*
X201217122Y-92095804D01*
X201378729Y-92095804D01*
X201479663Y-92270743D01*
X201514329Y-92222383D01*
X201571803Y-92222383D01*
X201622178Y-92277887D01*
X201625293Y-92279719D01*
X201628224Y-92283932D01*
X201653869Y-92292175D01*
X201693803Y-92283016D01*
X201696001Y-92281917D01*
X201708274Y-92233740D01*
X201694902Y-92148194D01*
X201680614Y-92117419D01*
X201674385Y-92119984D01*
X201668157Y-92123647D01*
X201605692Y-92173107D01*
X201571803Y-92222383D01*
X201514329Y-92222383D01*
X201531137Y-92198935D01*
X201568140Y-92145263D01*
X201623039Y-92101116D01*
X201726226Y-92101116D01*
X201739598Y-92133906D01*
X201746742Y-92157536D01*
X201774435Y-92171206D01*
X201802063Y-92170725D01*
X201813421Y-92166695D01*
X201824595Y-92159551D01*
X201827709Y-92157536D01*
X201841081Y-92115404D01*
X201821664Y-92064113D01*
X201821664Y-92063197D01*
X201746742Y-92095987D01*
X201726226Y-92101116D01*
X201623039Y-92101116D01*
X201647641Y-92081332D01*
X201689773Y-92063014D01*
X201710289Y-92056786D01*
X201698565Y-92021065D01*
X201692887Y-91997801D01*
X201697331Y-91917018D01*
X201716517Y-91917018D01*
X201716517Y-91991024D01*
X201738133Y-92051474D01*
X201816352Y-92010441D01*
X201883213Y-91952006D01*
X201900799Y-91923063D01*
X201907943Y-91896502D01*
X201907943Y-91895403D01*
X201907943Y-91857484D01*
X201893471Y-91823229D01*
X201867636Y-91805618D01*
X201830090Y-91799232D01*
X201807192Y-91799232D01*
X201761397Y-91818832D01*
X201728241Y-91872505D01*
X201726775Y-91879282D01*
X201724211Y-91886060D01*
X201723112Y-91893204D01*
X201720914Y-91900348D01*
X201716517Y-91917018D01*
X201697331Y-91917018D01*
X201698016Y-91904562D01*
X201700031Y-91895219D01*
X201702229Y-91886793D01*
X201703145Y-91879649D01*
X201709190Y-91864078D01*
X201746376Y-91800881D01*
X201769091Y-91787508D01*
X201703406Y-91797791D01*
X201631298Y-91831175D01*
X201549822Y-91893937D01*
X201452552Y-91996885D01*
X201378729Y-92095804D01*
X201217122Y-92095804D01*
X201126023Y-91938633D01*
X201287138Y-91938633D01*
X201353084Y-92051657D01*
X201412618Y-91972522D01*
X201367555Y-91946877D01*
X201357297Y-91942847D01*
X201320111Y-91934603D01*
X201287138Y-91938633D01*
X201126023Y-91938633D01*
X201052762Y-91812238D01*
X201216430Y-91812238D01*
X201263508Y-91896502D01*
X201321027Y-91887159D01*
X201376714Y-91900532D01*
X201386973Y-91905661D01*
X201443576Y-91936435D01*
X201517765Y-91861880D01*
X201527473Y-91853271D01*
X201536266Y-91845577D01*
X201474534Y-91809124D01*
X201455849Y-91801247D01*
X201438447Y-91795385D01*
X201372684Y-91787508D01*
X201298496Y-91787508D01*
X201251235Y-91792821D01*
X201216430Y-91812238D01*
X201052762Y-91812238D01*
X200989481Y-91703061D01*
X201152316Y-91703061D01*
X201192433Y-91770289D01*
X201238778Y-91746842D01*
X201298496Y-91740614D01*
X201336231Y-91740614D01*
X201373600Y-91740614D01*
X201449987Y-91749590D01*
X201450903Y-91749590D01*
X201472519Y-91757466D01*
X201493035Y-91767725D01*
X201575467Y-91817001D01*
X201658815Y-91764061D01*
X201642512Y-91737500D01*
X201621812Y-91708190D01*
X201608440Y-91692803D01*
X201601296Y-91682545D01*
X201591953Y-91666058D01*
X201585725Y-91664959D01*
X201577482Y-91664043D01*
X201489921Y-91670272D01*
X201457727Y-91669807D01*
X201386973Y-91651770D01*
X201292267Y-91632170D01*
X201235664Y-91662028D01*
X201152316Y-91703061D01*
X200989481Y-91703061D01*
X200877360Y-91509621D01*
X200836693Y-91555966D01*
X200789982Y-91622827D01*
X200767817Y-91660929D01*
X200728250Y-91723578D01*
X200661771Y-91826651D01*
X200625668Y-91907676D01*
X200605758Y-91992735D01*
X200598374Y-92103131D01*
X200598374Y-92165779D01*
X200605518Y-92306097D01*
X200598568Y-92376290D01*
X200577857Y-92442568D01*
X200517407Y-92588930D01*
X200155426Y-92588930D01*
X199621463Y-92281184D01*
X199582445Y-92253340D01*
X199547458Y-92221650D01*
X199482713Y-92120076D01*
X199461313Y-92002930D01*
X199672205Y-92002930D01*
X199683748Y-92066156D01*
X199718550Y-92121083D01*
X199737051Y-92138485D01*
X199758667Y-92152773D01*
X199758667Y-92153872D01*
X200474176Y-92565666D01*
X200528398Y-92424982D01*
X200545625Y-92364757D01*
X200551479Y-92299502D01*
X200551479Y-92167978D01*
X200551479Y-92135737D01*
X200551479Y-92104413D01*
X200559453Y-91989143D01*
X200581887Y-91891739D01*
X200621051Y-91804752D01*
X200691430Y-91695551D01*
X200726967Y-91637116D01*
X200740157Y-91614951D01*
X200751331Y-91596999D01*
X200799874Y-91527206D01*
X200853729Y-91468588D01*
X200826380Y-91421510D01*
X200987452Y-91421510D01*
X201126488Y-91659464D01*
X201159525Y-91651687D01*
X201208920Y-91624842D01*
X201284024Y-91587107D01*
X201325093Y-91588209D01*
X201402360Y-91608356D01*
X201479663Y-91625758D01*
X201580779Y-91618614D01*
X201593602Y-91619530D01*
X201606425Y-91621728D01*
X201633169Y-91628872D01*
X201663944Y-91638032D01*
X201818550Y-91673752D01*
X201819466Y-91673752D01*
X201857076Y-91661928D01*
X201890357Y-91633086D01*
X201898600Y-91623011D01*
X201878084Y-91624110D01*
X201852255Y-91622095D01*
X201809024Y-91601578D01*
X201791439Y-91589488D01*
X201743506Y-91545707D01*
X201728790Y-91494234D01*
X201754619Y-91494234D01*
X201766254Y-91534711D01*
X201804262Y-91569338D01*
X201815985Y-91575566D01*
X201824595Y-91581795D01*
X201860315Y-91599014D01*
X201878633Y-91599930D01*
X201896219Y-91599930D01*
X201909958Y-91599930D01*
X201913072Y-91577398D01*
X201906607Y-91551717D01*
X201885411Y-91527023D01*
X201772021Y-91475732D01*
X201758649Y-91470603D01*
X201756634Y-91475732D01*
X201754619Y-91494234D01*
X201728790Y-91494234D01*
X201731905Y-91469687D01*
X201733920Y-91462543D01*
X201681346Y-91442027D01*
X201601113Y-91410153D01*
X201497065Y-91392751D01*
X201377630Y-91372234D01*
X201374516Y-91372234D01*
X201330186Y-91359961D01*
X201240175Y-91340831D01*
X201196463Y-91342559D01*
X201114031Y-91375348D01*
X200987452Y-91421510D01*
X200826380Y-91421510D01*
X200746568Y-91284124D01*
X199762697Y-91850889D01*
X199761781Y-91851805D01*
X199704078Y-91902180D01*
X199704078Y-91903279D01*
X199696934Y-91914637D01*
X199678312Y-91957954D01*
X199672205Y-92002930D01*
X199461313Y-92002930D01*
X199461179Y-92002198D01*
X199472251Y-91917252D01*
X199505326Y-91839166D01*
X199520713Y-91815535D01*
X199520713Y-91816634D01*
X199567507Y-91763140D01*
X199626409Y-91721196D01*
X200504632Y-91214331D01*
X200868018Y-91214331D01*
X200962723Y-91377363D01*
X201017744Y-91364650D01*
X201094797Y-91333217D01*
X201184556Y-91297313D01*
X201237828Y-91294222D01*
X201343375Y-91314898D01*
X201385874Y-91326072D01*
X201388988Y-91327172D01*
X201389904Y-91327172D01*
X201504392Y-91346589D01*
X201615767Y-91366006D01*
X201701496Y-91398979D01*
X201768541Y-91425540D01*
X201787042Y-91431769D01*
X201873390Y-91465396D01*
X201916186Y-91492219D01*
X201948104Y-91530308D01*
X201958318Y-91574284D01*
X201950075Y-91622644D01*
X201925528Y-91663677D01*
X201877097Y-91704179D01*
X201820931Y-91717166D01*
X201666142Y-91686758D01*
X201682629Y-91714419D01*
X201708274Y-91748490D01*
X201775685Y-91740614D01*
X201782096Y-91740614D01*
X201788142Y-91740614D01*
X201873490Y-91754023D01*
X201928276Y-91789706D01*
X201945381Y-91814621D01*
X201955204Y-91851622D01*
X201955204Y-91900532D01*
X201942564Y-91942847D01*
X201919483Y-91979666D01*
X201859583Y-92036270D01*
X201880536Y-92072413D01*
X201887426Y-92112290D01*
X201882236Y-92157488D01*
X201859583Y-92191425D01*
X201853354Y-92196554D01*
X201833937Y-92209193D01*
X201812138Y-92216338D01*
X201754619Y-92214323D01*
X201754619Y-92224031D01*
X201754619Y-92234656D01*
X201746311Y-92290090D01*
X201725676Y-92319836D01*
X201710106Y-92328079D01*
X201656250Y-92338520D01*
X201597449Y-92317454D01*
X201591221Y-92312508D01*
X201543593Y-92264515D01*
X201504576Y-92311592D01*
X202079767Y-93300409D01*
X202102482Y-93254248D01*
X202108710Y-93229701D01*
X202109626Y-93204056D01*
X202110725Y-93203140D01*
X202110725Y-90804187D01*
X202099043Y-90738310D01*
X202064380Y-90683103D01*
X202044963Y-90665701D01*
X202023164Y-90651413D01*
X202023164Y-90650314D01*
X201965259Y-90629135D01*
X201900799Y-90630896D01*
X201875886Y-90638040D01*
X201852438Y-90648299D01*
X201849324Y-90650314D01*
X200868018Y-91214331D01*
X200504632Y-91214331D01*
X201813237Y-90459071D01*
X201813237Y-90457972D01*
X201815252Y-90456873D01*
X201820382Y-90454858D01*
X201863429Y-90435441D01*
X201907576Y-90422069D01*
X202025587Y-90419105D01*
X202134173Y-90459071D01*
G37*
G36*
X201512565Y-95487119D02*
G01*
X201538390Y-95512821D01*
X201547990Y-95559045D01*
X201538336Y-95605998D01*
X201512461Y-95631996D01*
X201465924Y-95641660D01*
X201419388Y-95631996D01*
X201393512Y-95605998D01*
X201383859Y-95559045D01*
X201384277Y-95557030D01*
X201448522Y-95557030D01*
X201460978Y-95570403D01*
X201474167Y-95557030D01*
X201460978Y-95544757D01*
X201448522Y-95557030D01*
X201384277Y-95557030D01*
X201393458Y-95512821D01*
X201419284Y-95487119D01*
X201465924Y-95477529D01*
X201512565Y-95487119D01*
G37*
G36*
X199983797Y-94499520D02*
G01*
X200182184Y-94519120D01*
X200662487Y-94564183D01*
X201010167Y-94600087D01*
X201787409Y-93839148D01*
X201837784Y-93891355D01*
X201107437Y-94605216D01*
X201559713Y-94647531D01*
X201559713Y-94668597D01*
X201724394Y-94668597D01*
X201724394Y-94832728D01*
X201559713Y-94832728D01*
X201559713Y-95319260D01*
X201592869Y-95336845D01*
X201624193Y-95359193D01*
X201660280Y-95395097D01*
X201689590Y-95441992D01*
X201706442Y-95494382D01*
X201712121Y-95543292D01*
X201712121Y-95598246D01*
X201702229Y-95635982D01*
X201685376Y-95678480D01*
X201662479Y-95714933D01*
X201634818Y-95744609D01*
X201594152Y-95773918D01*
X201548539Y-95795167D01*
X201505858Y-95806341D01*
X201472152Y-95810371D01*
X201427822Y-95807440D01*
X201392285Y-95800296D01*
X201359862Y-95789305D01*
X201323958Y-95770254D01*
X201293550Y-95749188D01*
X201266256Y-95720245D01*
X201244274Y-95690020D01*
X201229436Y-95660711D01*
X201190601Y-95665840D01*
X201836868Y-96290491D01*
X201785577Y-96342698D01*
X201090584Y-95670054D01*
X200486632Y-95724459D01*
X200047362Y-95761278D01*
X200047362Y-95958199D01*
X199769474Y-95958199D01*
X199769474Y-95906725D01*
X199243925Y-96419635D01*
X199193550Y-96367428D01*
X199685836Y-95887857D01*
X199839633Y-95887857D01*
X199977020Y-95887857D01*
X199977020Y-95750287D01*
X199839633Y-95750287D01*
X199839633Y-95887857D01*
X199685836Y-95887857D01*
X199689973Y-95883827D01*
X199654253Y-95883827D01*
X199644911Y-95894818D01*
X199637583Y-95906725D01*
X199624028Y-95919731D01*
X199608274Y-95931454D01*
X199590505Y-95938415D01*
X199572554Y-95943361D01*
X199550755Y-95945376D01*
X199524926Y-95942262D01*
X199508257Y-95935118D01*
X199480230Y-95916800D01*
X199460629Y-95896284D01*
X199448173Y-95868806D01*
X199443044Y-95840047D01*
X199443244Y-95838581D01*
X199513935Y-95838581D01*
X199523448Y-95864616D01*
X199553503Y-95873752D01*
X199583403Y-95864630D01*
X199592887Y-95838581D01*
X199583403Y-95812532D01*
X199553503Y-95803410D01*
X199523448Y-95812546D01*
X199513935Y-95838581D01*
X199443244Y-95838581D01*
X199447074Y-95810554D01*
X199458614Y-95786191D01*
X199470887Y-95764576D01*
X199483344Y-95754317D01*
X199465758Y-95736182D01*
X199445975Y-95704492D01*
X199426374Y-95665474D01*
X199405675Y-95611618D01*
X199388089Y-95553367D01*
X199375633Y-95494931D01*
X199365191Y-95433932D01*
X199358047Y-95383740D01*
X199297048Y-95383740D01*
X199297048Y-95314314D01*
X199367390Y-95314314D01*
X199408422Y-95314314D01*
X199408422Y-95067201D01*
X199367390Y-95067201D01*
X199367390Y-95314314D01*
X199297048Y-95314314D01*
X199297048Y-94985136D01*
X199350170Y-94985136D01*
X199426374Y-94985136D01*
X199484626Y-94985136D01*
X199484626Y-95383740D01*
X199434801Y-95383740D01*
X199447807Y-95468553D01*
X199465758Y-95544024D01*
X199484993Y-95607039D01*
X199507158Y-95656864D01*
X199532803Y-95698264D01*
X199559181Y-95727206D01*
X199578415Y-95727206D01*
X199578415Y-95717131D01*
X199707376Y-95717131D01*
X199769474Y-95711086D01*
X199769474Y-95679945D01*
X199902648Y-95679945D01*
X200004680Y-95679945D01*
X200048827Y-95679945D01*
X200048827Y-95688005D01*
X201022440Y-95604658D01*
X200549830Y-95152564D01*
X200246297Y-95446755D01*
X200246297Y-95500976D01*
X200185847Y-95500976D01*
X200004680Y-95679945D01*
X199902648Y-95679945D01*
X200079052Y-95500976D01*
X200079052Y-95427887D01*
X200152325Y-95427887D01*
X200175956Y-95427887D01*
X200175956Y-95051631D01*
X200152325Y-95051631D01*
X200152325Y-95427887D01*
X200079052Y-95427887D01*
X200079052Y-94973412D01*
X200246297Y-94973412D01*
X200246297Y-95338128D01*
X200497440Y-95103838D01*
X200492007Y-95098525D01*
X200600938Y-95098525D01*
X201118794Y-95596048D01*
X201208004Y-95587805D01*
X201208004Y-95556297D01*
X201336964Y-95556297D01*
X201351548Y-95628524D01*
X201390380Y-95668219D01*
X201459696Y-95682876D01*
X201529495Y-95668182D01*
X201568526Y-95628453D01*
X201583161Y-95556297D01*
X201568579Y-95484871D01*
X201529597Y-95445438D01*
X201459696Y-95430818D01*
X201390279Y-95445401D01*
X201351495Y-95484801D01*
X201336964Y-95556297D01*
X201208004Y-95556297D01*
X201208004Y-95551718D01*
X201208004Y-95513616D01*
X201220643Y-95468920D01*
X201243724Y-95425322D01*
X201268087Y-95390701D01*
X201298496Y-95360293D01*
X201339712Y-95332815D01*
X201391369Y-95311566D01*
X201449255Y-95299476D01*
X201489371Y-95302407D01*
X201489371Y-94759272D01*
X201551837Y-94759272D01*
X201653319Y-94759272D01*
X201653319Y-94742969D01*
X201551837Y-94742969D01*
X201551837Y-94759272D01*
X201489371Y-94759272D01*
X201489371Y-94713660D01*
X201039842Y-94671711D01*
X200600938Y-95098525D01*
X200492007Y-95098525D01*
X199961124Y-94579387D01*
X200063665Y-94579387D01*
X200549830Y-95052547D01*
X200944588Y-94662552D01*
X200063665Y-94579387D01*
X199961124Y-94579387D01*
X199951008Y-94569495D01*
X199707376Y-94546781D01*
X199707376Y-95717131D01*
X199578415Y-95717131D01*
X199578415Y-94797557D01*
X199450737Y-94797557D01*
X199440113Y-94853977D01*
X199432602Y-94915526D01*
X199426374Y-94985136D01*
X199350170Y-94985136D01*
X199351086Y-94954178D01*
X199356032Y-94904169D01*
X199363176Y-94850130D01*
X199372336Y-94797557D01*
X199338080Y-94797557D01*
X199338080Y-94722452D01*
X199408422Y-94722452D01*
X199503860Y-94722452D01*
X199503860Y-94694792D01*
X199408422Y-94693876D01*
X199408422Y-94722452D01*
X199338080Y-94722452D01*
X199338080Y-94621702D01*
X199420146Y-94621702D01*
X199502028Y-94621702D01*
X199578415Y-94621702D01*
X199578415Y-94536523D01*
X199564677Y-94534324D01*
X199543794Y-94555940D01*
X199524010Y-94582868D01*
X199502028Y-94621702D01*
X199420146Y-94621702D01*
X199429672Y-94601186D01*
X199442494Y-94573342D01*
X199462644Y-94543667D01*
X199480596Y-94516922D01*
X199502028Y-94494207D01*
X199516866Y-94478820D01*
X199531704Y-94466547D01*
X199548557Y-94459403D01*
X199578415Y-94462517D01*
X199578415Y-94361767D01*
X199707376Y-94361767D01*
X199707376Y-94473691D01*
X199870225Y-94491277D01*
X199195565Y-93841163D01*
X199245757Y-93788956D01*
X199983797Y-94499520D01*
G37*
G36*
X202990000Y-94298386D02*
G01*
X202990000Y-95084237D01*
X202990000Y-95870638D01*
X202990000Y-96227843D01*
X202900240Y-96227843D01*
X202702770Y-96227843D01*
X202505300Y-96227843D01*
X202415540Y-96227843D01*
X202415540Y-95870638D01*
X202415540Y-95084237D01*
X202415540Y-94298386D01*
X202415540Y-93941730D01*
X202505300Y-93941730D01*
X202702770Y-93941730D01*
X202900240Y-93941730D01*
X202990000Y-93941730D01*
X202990000Y-94298386D01*
G37*
D10*
X168139411Y-97567438D02*
X168234649Y-97519819D01*
X168234649Y-97519819D02*
X168377506Y-97519819D01*
X168377506Y-97519819D02*
X168520363Y-97567438D01*
X168520363Y-97567438D02*
X168615601Y-97662676D01*
X168615601Y-97662676D02*
X168663220Y-97757914D01*
X168663220Y-97757914D02*
X168710839Y-97948390D01*
X168710839Y-97948390D02*
X168710839Y-98091247D01*
X168710839Y-98091247D02*
X168663220Y-98281723D01*
X168663220Y-98281723D02*
X168615601Y-98376961D01*
X168615601Y-98376961D02*
X168520363Y-98472200D01*
X168520363Y-98472200D02*
X168377506Y-98519819D01*
X168377506Y-98519819D02*
X168282268Y-98519819D01*
X168282268Y-98519819D02*
X168139411Y-98472200D01*
X168139411Y-98472200D02*
X168091792Y-98424580D01*
X168091792Y-98424580D02*
X168091792Y-98091247D01*
X168091792Y-98091247D02*
X168282268Y-98091247D01*
X167663220Y-98519819D02*
X167663220Y-97519819D01*
X167663220Y-97519819D02*
X167091792Y-98519819D01*
X167091792Y-98519819D02*
X167091792Y-97519819D01*
X166615601Y-98519819D02*
X166615601Y-97519819D01*
X166615601Y-97519819D02*
X166377506Y-97519819D01*
X166377506Y-97519819D02*
X166234649Y-97567438D01*
X166234649Y-97567438D02*
X166139411Y-97662676D01*
X166139411Y-97662676D02*
X166091792Y-97757914D01*
X166091792Y-97757914D02*
X166044173Y-97948390D01*
X166044173Y-97948390D02*
X166044173Y-98091247D01*
X166044173Y-98091247D02*
X166091792Y-98281723D01*
X166091792Y-98281723D02*
X166139411Y-98376961D01*
X166139411Y-98376961D02*
X166234649Y-98472200D01*
X166234649Y-98472200D02*
X166377506Y-98519819D01*
X166377506Y-98519819D02*
X166615601Y-98519819D01*
X168656077Y-96219819D02*
X168084649Y-96219819D01*
X168370363Y-97219819D02*
X168370363Y-96219819D01*
X167751315Y-97219819D02*
X167751315Y-96219819D01*
X167751315Y-96219819D02*
X167370363Y-96219819D01*
X167370363Y-96219819D02*
X167275125Y-96267438D01*
X167275125Y-96267438D02*
X167227506Y-96315057D01*
X167227506Y-96315057D02*
X167179887Y-96410295D01*
X167179887Y-96410295D02*
X167179887Y-96553152D01*
X167179887Y-96553152D02*
X167227506Y-96648390D01*
X167227506Y-96648390D02*
X167275125Y-96696009D01*
X167275125Y-96696009D02*
X167370363Y-96743628D01*
X167370363Y-96743628D02*
X167751315Y-96743628D01*
X166227506Y-97219819D02*
X166798934Y-97219819D01*
X166513220Y-97219819D02*
X166513220Y-96219819D01*
X166513220Y-96219819D02*
X166608458Y-96362676D01*
X166608458Y-96362676D02*
X166703696Y-96457914D01*
X166703696Y-96457914D02*
X166798934Y-96505533D01*
X165608458Y-96219819D02*
X165513220Y-96219819D01*
X165513220Y-96219819D02*
X165417982Y-96267438D01*
X165417982Y-96267438D02*
X165370363Y-96315057D01*
X165370363Y-96315057D02*
X165322744Y-96410295D01*
X165322744Y-96410295D02*
X165275125Y-96600771D01*
X165275125Y-96600771D02*
X165275125Y-96838866D01*
X165275125Y-96838866D02*
X165322744Y-97029342D01*
X165322744Y-97029342D02*
X165370363Y-97124580D01*
X165370363Y-97124580D02*
X165417982Y-97172200D01*
X165417982Y-97172200D02*
X165513220Y-97219819D01*
X165513220Y-97219819D02*
X165608458Y-97219819D01*
X165608458Y-97219819D02*
X165703696Y-97172200D01*
X165703696Y-97172200D02*
X165751315Y-97124580D01*
X165751315Y-97124580D02*
X165798934Y-97029342D01*
X165798934Y-97029342D02*
X165846553Y-96838866D01*
X165846553Y-96838866D02*
X165846553Y-96600771D01*
X165846553Y-96600771D02*
X165798934Y-96410295D01*
X165798934Y-96410295D02*
X165751315Y-96315057D01*
X165751315Y-96315057D02*
X165703696Y-96267438D01*
X165703696Y-96267438D02*
X165608458Y-96219819D01*
X168456077Y-89419819D02*
X167884649Y-89419819D01*
X168170363Y-90419819D02*
X168170363Y-89419819D01*
X167551315Y-90419819D02*
X167551315Y-89419819D01*
X167551315Y-89419819D02*
X167170363Y-89419819D01*
X167170363Y-89419819D02*
X167075125Y-89467438D01*
X167075125Y-89467438D02*
X167027506Y-89515057D01*
X167027506Y-89515057D02*
X166979887Y-89610295D01*
X166979887Y-89610295D02*
X166979887Y-89753152D01*
X166979887Y-89753152D02*
X167027506Y-89848390D01*
X167027506Y-89848390D02*
X167075125Y-89896009D01*
X167075125Y-89896009D02*
X167170363Y-89943628D01*
X167170363Y-89943628D02*
X167551315Y-89943628D01*
X166122744Y-89419819D02*
X166313220Y-89419819D01*
X166313220Y-89419819D02*
X166408458Y-89467438D01*
X166408458Y-89467438D02*
X166456077Y-89515057D01*
X166456077Y-89515057D02*
X166551315Y-89657914D01*
X166551315Y-89657914D02*
X166598934Y-89848390D01*
X166598934Y-89848390D02*
X166598934Y-90229342D01*
X166598934Y-90229342D02*
X166551315Y-90324580D01*
X166551315Y-90324580D02*
X166503696Y-90372200D01*
X166503696Y-90372200D02*
X166408458Y-90419819D01*
X166408458Y-90419819D02*
X166217982Y-90419819D01*
X166217982Y-90419819D02*
X166122744Y-90372200D01*
X166122744Y-90372200D02*
X166075125Y-90324580D01*
X166075125Y-90324580D02*
X166027506Y-90229342D01*
X166027506Y-90229342D02*
X166027506Y-89991247D01*
X166027506Y-89991247D02*
X166075125Y-89896009D01*
X166075125Y-89896009D02*
X166122744Y-89848390D01*
X166122744Y-89848390D02*
X166217982Y-89800771D01*
X166217982Y-89800771D02*
X166408458Y-89800771D01*
X166408458Y-89800771D02*
X166503696Y-89848390D01*
X166503696Y-89848390D02*
X166551315Y-89896009D01*
X166551315Y-89896009D02*
X166598934Y-89991247D01*
X167796554Y-91765057D02*
X167891792Y-91717438D01*
X167891792Y-91717438D02*
X167987030Y-91622200D01*
X167987030Y-91622200D02*
X168129887Y-91479342D01*
X168129887Y-91479342D02*
X168225125Y-91431723D01*
X168225125Y-91431723D02*
X168320363Y-91431723D01*
X168272744Y-91669819D02*
X168367982Y-91622200D01*
X168367982Y-91622200D02*
X168463220Y-91526961D01*
X168463220Y-91526961D02*
X168510839Y-91336485D01*
X168510839Y-91336485D02*
X168510839Y-91003152D01*
X168510839Y-91003152D02*
X168463220Y-90812676D01*
X168463220Y-90812676D02*
X168367982Y-90717438D01*
X168367982Y-90717438D02*
X168272744Y-90669819D01*
X168272744Y-90669819D02*
X168082268Y-90669819D01*
X168082268Y-90669819D02*
X167987030Y-90717438D01*
X167987030Y-90717438D02*
X167891792Y-90812676D01*
X167891792Y-90812676D02*
X167844173Y-91003152D01*
X167844173Y-91003152D02*
X167844173Y-91336485D01*
X167844173Y-91336485D02*
X167891792Y-91526961D01*
X167891792Y-91526961D02*
X167987030Y-91622200D01*
X167987030Y-91622200D02*
X168082268Y-91669819D01*
X168082268Y-91669819D02*
X168272744Y-91669819D01*
X166891792Y-91669819D02*
X167463220Y-91669819D01*
X167177506Y-91669819D02*
X167177506Y-90669819D01*
X167177506Y-90669819D02*
X167272744Y-90812676D01*
X167272744Y-90812676D02*
X167367982Y-90907914D01*
X167367982Y-90907914D02*
X167463220Y-90955533D01*
X168656077Y-99169819D02*
X168084649Y-99169819D01*
X168370363Y-100169819D02*
X168370363Y-99169819D01*
X167751315Y-100169819D02*
X167751315Y-99169819D01*
X167751315Y-99169819D02*
X167370363Y-99169819D01*
X167370363Y-99169819D02*
X167275125Y-99217438D01*
X167275125Y-99217438D02*
X167227506Y-99265057D01*
X167227506Y-99265057D02*
X167179887Y-99360295D01*
X167179887Y-99360295D02*
X167179887Y-99503152D01*
X167179887Y-99503152D02*
X167227506Y-99598390D01*
X167227506Y-99598390D02*
X167275125Y-99646009D01*
X167275125Y-99646009D02*
X167370363Y-99693628D01*
X167370363Y-99693628D02*
X167751315Y-99693628D01*
X166798934Y-99265057D02*
X166751315Y-99217438D01*
X166751315Y-99217438D02*
X166656077Y-99169819D01*
X166656077Y-99169819D02*
X166417982Y-99169819D01*
X166417982Y-99169819D02*
X166322744Y-99217438D01*
X166322744Y-99217438D02*
X166275125Y-99265057D01*
X166275125Y-99265057D02*
X166227506Y-99360295D01*
X166227506Y-99360295D02*
X166227506Y-99455533D01*
X166227506Y-99455533D02*
X166275125Y-99598390D01*
X166275125Y-99598390D02*
X166846553Y-100169819D01*
X166846553Y-100169819D02*
X166227506Y-100169819D01*
X168660839Y-101372200D02*
X168517982Y-101419819D01*
X168517982Y-101419819D02*
X168279887Y-101419819D01*
X168279887Y-101419819D02*
X168184649Y-101372200D01*
X168184649Y-101372200D02*
X168137030Y-101324580D01*
X168137030Y-101324580D02*
X168089411Y-101229342D01*
X168089411Y-101229342D02*
X168089411Y-101134104D01*
X168089411Y-101134104D02*
X168137030Y-101038866D01*
X168137030Y-101038866D02*
X168184649Y-100991247D01*
X168184649Y-100991247D02*
X168279887Y-100943628D01*
X168279887Y-100943628D02*
X168470363Y-100896009D01*
X168470363Y-100896009D02*
X168565601Y-100848390D01*
X168565601Y-100848390D02*
X168613220Y-100800771D01*
X168613220Y-100800771D02*
X168660839Y-100705533D01*
X168660839Y-100705533D02*
X168660839Y-100610295D01*
X168660839Y-100610295D02*
X168613220Y-100515057D01*
X168613220Y-100515057D02*
X168565601Y-100467438D01*
X168565601Y-100467438D02*
X168470363Y-100419819D01*
X168470363Y-100419819D02*
X168232268Y-100419819D01*
X168232268Y-100419819D02*
X168089411Y-100467438D01*
X167089411Y-101324580D02*
X167137030Y-101372200D01*
X167137030Y-101372200D02*
X167279887Y-101419819D01*
X167279887Y-101419819D02*
X167375125Y-101419819D01*
X167375125Y-101419819D02*
X167517982Y-101372200D01*
X167517982Y-101372200D02*
X167613220Y-101276961D01*
X167613220Y-101276961D02*
X167660839Y-101181723D01*
X167660839Y-101181723D02*
X167708458Y-100991247D01*
X167708458Y-100991247D02*
X167708458Y-100848390D01*
X167708458Y-100848390D02*
X167660839Y-100657914D01*
X167660839Y-100657914D02*
X167613220Y-100562676D01*
X167613220Y-100562676D02*
X167517982Y-100467438D01*
X167517982Y-100467438D02*
X167375125Y-100419819D01*
X167375125Y-100419819D02*
X167279887Y-100419819D01*
X167279887Y-100419819D02*
X167137030Y-100467438D01*
X167137030Y-100467438D02*
X167089411Y-100515057D01*
X166184649Y-101419819D02*
X166660839Y-101419819D01*
X166660839Y-101419819D02*
X166660839Y-100419819D01*
X167939411Y-87517438D02*
X168034649Y-87469819D01*
X168034649Y-87469819D02*
X168177506Y-87469819D01*
X168177506Y-87469819D02*
X168320363Y-87517438D01*
X168320363Y-87517438D02*
X168415601Y-87612676D01*
X168415601Y-87612676D02*
X168463220Y-87707914D01*
X168463220Y-87707914D02*
X168510839Y-87898390D01*
X168510839Y-87898390D02*
X168510839Y-88041247D01*
X168510839Y-88041247D02*
X168463220Y-88231723D01*
X168463220Y-88231723D02*
X168415601Y-88326961D01*
X168415601Y-88326961D02*
X168320363Y-88422200D01*
X168320363Y-88422200D02*
X168177506Y-88469819D01*
X168177506Y-88469819D02*
X168082268Y-88469819D01*
X168082268Y-88469819D02*
X167939411Y-88422200D01*
X167939411Y-88422200D02*
X167891792Y-88374580D01*
X167891792Y-88374580D02*
X167891792Y-88041247D01*
X167891792Y-88041247D02*
X168082268Y-88041247D01*
X167463220Y-88469819D02*
X167463220Y-87469819D01*
X167463220Y-87469819D02*
X166891792Y-88469819D01*
X166891792Y-88469819D02*
X166891792Y-87469819D01*
X166415601Y-88469819D02*
X166415601Y-87469819D01*
X166415601Y-87469819D02*
X166177506Y-87469819D01*
X166177506Y-87469819D02*
X166034649Y-87517438D01*
X166034649Y-87517438D02*
X165939411Y-87612676D01*
X165939411Y-87612676D02*
X165891792Y-87707914D01*
X165891792Y-87707914D02*
X165844173Y-87898390D01*
X165844173Y-87898390D02*
X165844173Y-88041247D01*
X165844173Y-88041247D02*
X165891792Y-88231723D01*
X165891792Y-88231723D02*
X165939411Y-88326961D01*
X165939411Y-88326961D02*
X166034649Y-88422200D01*
X166034649Y-88422200D02*
X166177506Y-88469819D01*
X166177506Y-88469819D02*
X166415601Y-88469819D01*
X168506077Y-86229819D02*
X167934649Y-86229819D01*
X168220363Y-87229819D02*
X168220363Y-86229819D01*
X167601315Y-87229819D02*
X167601315Y-86229819D01*
X167601315Y-86229819D02*
X167220363Y-86229819D01*
X167220363Y-86229819D02*
X167125125Y-86277438D01*
X167125125Y-86277438D02*
X167077506Y-86325057D01*
X167077506Y-86325057D02*
X167029887Y-86420295D01*
X167029887Y-86420295D02*
X167029887Y-86563152D01*
X167029887Y-86563152D02*
X167077506Y-86658390D01*
X167077506Y-86658390D02*
X167125125Y-86706009D01*
X167125125Y-86706009D02*
X167220363Y-86753628D01*
X167220363Y-86753628D02*
X167601315Y-86753628D01*
X166125125Y-86229819D02*
X166601315Y-86229819D01*
X166601315Y-86229819D02*
X166648934Y-86706009D01*
X166648934Y-86706009D02*
X166601315Y-86658390D01*
X166601315Y-86658390D02*
X166506077Y-86610771D01*
X166506077Y-86610771D02*
X166267982Y-86610771D01*
X166267982Y-86610771D02*
X166172744Y-86658390D01*
X166172744Y-86658390D02*
X166125125Y-86706009D01*
X166125125Y-86706009D02*
X166077506Y-86801247D01*
X166077506Y-86801247D02*
X166077506Y-87039342D01*
X166077506Y-87039342D02*
X166125125Y-87134580D01*
X166125125Y-87134580D02*
X166172744Y-87182200D01*
X166172744Y-87182200D02*
X166267982Y-87229819D01*
X166267982Y-87229819D02*
X166506077Y-87229819D01*
X166506077Y-87229819D02*
X166601315Y-87182200D01*
X166601315Y-87182200D02*
X166648934Y-87134580D01*
X189506077Y-90469819D02*
X188934649Y-90469819D01*
X189220363Y-91469819D02*
X189220363Y-90469819D01*
X188601315Y-91469819D02*
X188601315Y-90469819D01*
X188601315Y-90469819D02*
X188220363Y-90469819D01*
X188220363Y-90469819D02*
X188125125Y-90517438D01*
X188125125Y-90517438D02*
X188077506Y-90565057D01*
X188077506Y-90565057D02*
X188029887Y-90660295D01*
X188029887Y-90660295D02*
X188029887Y-90803152D01*
X188029887Y-90803152D02*
X188077506Y-90898390D01*
X188077506Y-90898390D02*
X188125125Y-90946009D01*
X188125125Y-90946009D02*
X188220363Y-90993628D01*
X188220363Y-90993628D02*
X188601315Y-90993628D01*
X187172744Y-90803152D02*
X187172744Y-91469819D01*
X187410839Y-90422200D02*
X187648934Y-91136485D01*
X187648934Y-91136485D02*
X187029887Y-91136485D01*
X188941792Y-92624580D02*
X188989411Y-92672200D01*
X188989411Y-92672200D02*
X189132268Y-92719819D01*
X189132268Y-92719819D02*
X189227506Y-92719819D01*
X189227506Y-92719819D02*
X189370363Y-92672200D01*
X189370363Y-92672200D02*
X189465601Y-92576961D01*
X189465601Y-92576961D02*
X189513220Y-92481723D01*
X189513220Y-92481723D02*
X189560839Y-92291247D01*
X189560839Y-92291247D02*
X189560839Y-92148390D01*
X189560839Y-92148390D02*
X189513220Y-91957914D01*
X189513220Y-91957914D02*
X189465601Y-91862676D01*
X189465601Y-91862676D02*
X189370363Y-91767438D01*
X189370363Y-91767438D02*
X189227506Y-91719819D01*
X189227506Y-91719819D02*
X189132268Y-91719819D01*
X189132268Y-91719819D02*
X188989411Y-91767438D01*
X188989411Y-91767438D02*
X188941792Y-91815057D01*
X188656077Y-91719819D02*
X188084649Y-91719819D01*
X188370363Y-92719819D02*
X188370363Y-91719819D01*
X187179887Y-92719819D02*
X187513220Y-92243628D01*
X187751315Y-92719819D02*
X187751315Y-91719819D01*
X187751315Y-91719819D02*
X187370363Y-91719819D01*
X187370363Y-91719819D02*
X187275125Y-91767438D01*
X187275125Y-91767438D02*
X187227506Y-91815057D01*
X187227506Y-91815057D02*
X187179887Y-91910295D01*
X187179887Y-91910295D02*
X187179887Y-92053152D01*
X187179887Y-92053152D02*
X187227506Y-92148390D01*
X187227506Y-92148390D02*
X187275125Y-92196009D01*
X187275125Y-92196009D02*
X187370363Y-92243628D01*
X187370363Y-92243628D02*
X187751315Y-92243628D01*
X186275125Y-92719819D02*
X186751315Y-92719819D01*
X186751315Y-92719819D02*
X186751315Y-91719819D01*
X167746554Y-85615057D02*
X167841792Y-85567438D01*
X167841792Y-85567438D02*
X167937030Y-85472200D01*
X167937030Y-85472200D02*
X168079887Y-85329342D01*
X168079887Y-85329342D02*
X168175125Y-85281723D01*
X168175125Y-85281723D02*
X168270363Y-85281723D01*
X168222744Y-85519819D02*
X168317982Y-85472200D01*
X168317982Y-85472200D02*
X168413220Y-85376961D01*
X168413220Y-85376961D02*
X168460839Y-85186485D01*
X168460839Y-85186485D02*
X168460839Y-84853152D01*
X168460839Y-84853152D02*
X168413220Y-84662676D01*
X168413220Y-84662676D02*
X168317982Y-84567438D01*
X168317982Y-84567438D02*
X168222744Y-84519819D01*
X168222744Y-84519819D02*
X168032268Y-84519819D01*
X168032268Y-84519819D02*
X167937030Y-84567438D01*
X167937030Y-84567438D02*
X167841792Y-84662676D01*
X167841792Y-84662676D02*
X167794173Y-84853152D01*
X167794173Y-84853152D02*
X167794173Y-85186485D01*
X167794173Y-85186485D02*
X167841792Y-85376961D01*
X167841792Y-85376961D02*
X167937030Y-85472200D01*
X167937030Y-85472200D02*
X168032268Y-85519819D01*
X168032268Y-85519819D02*
X168222744Y-85519819D01*
X167413220Y-84615057D02*
X167365601Y-84567438D01*
X167365601Y-84567438D02*
X167270363Y-84519819D01*
X167270363Y-84519819D02*
X167032268Y-84519819D01*
X167032268Y-84519819D02*
X166937030Y-84567438D01*
X166937030Y-84567438D02*
X166889411Y-84615057D01*
X166889411Y-84615057D02*
X166841792Y-84710295D01*
X166841792Y-84710295D02*
X166841792Y-84805533D01*
X166841792Y-84805533D02*
X166889411Y-84948390D01*
X166889411Y-84948390D02*
X167460839Y-85519819D01*
X167460839Y-85519819D02*
X166841792Y-85519819D01*
X168456077Y-83269819D02*
X167884649Y-83269819D01*
X168170363Y-84269819D02*
X168170363Y-83269819D01*
X167551315Y-84269819D02*
X167551315Y-83269819D01*
X167551315Y-83269819D02*
X167170363Y-83269819D01*
X167170363Y-83269819D02*
X167075125Y-83317438D01*
X167075125Y-83317438D02*
X167027506Y-83365057D01*
X167027506Y-83365057D02*
X166979887Y-83460295D01*
X166979887Y-83460295D02*
X166979887Y-83603152D01*
X166979887Y-83603152D02*
X167027506Y-83698390D01*
X167027506Y-83698390D02*
X167075125Y-83746009D01*
X167075125Y-83746009D02*
X167170363Y-83793628D01*
X167170363Y-83793628D02*
X167551315Y-83793628D01*
X166646553Y-83269819D02*
X165979887Y-83269819D01*
X165979887Y-83269819D02*
X166408458Y-84269819D01*
X181556077Y-88819819D02*
X180984649Y-88819819D01*
X181270363Y-89819819D02*
X181270363Y-88819819D01*
X180651315Y-89819819D02*
X180651315Y-88819819D01*
X180651315Y-88819819D02*
X180270363Y-88819819D01*
X180270363Y-88819819D02*
X180175125Y-88867438D01*
X180175125Y-88867438D02*
X180127506Y-88915057D01*
X180127506Y-88915057D02*
X180079887Y-89010295D01*
X180079887Y-89010295D02*
X180079887Y-89153152D01*
X180079887Y-89153152D02*
X180127506Y-89248390D01*
X180127506Y-89248390D02*
X180175125Y-89296009D01*
X180175125Y-89296009D02*
X180270363Y-89343628D01*
X180270363Y-89343628D02*
X180651315Y-89343628D01*
X179127506Y-89819819D02*
X179698934Y-89819819D01*
X179413220Y-89819819D02*
X179413220Y-88819819D01*
X179413220Y-88819819D02*
X179508458Y-88962676D01*
X179508458Y-88962676D02*
X179603696Y-89057914D01*
X179603696Y-89057914D02*
X179698934Y-89105533D01*
X178794172Y-88819819D02*
X178175125Y-88819819D01*
X178175125Y-88819819D02*
X178508458Y-89200771D01*
X178508458Y-89200771D02*
X178365601Y-89200771D01*
X178365601Y-89200771D02*
X178270363Y-89248390D01*
X178270363Y-89248390D02*
X178222744Y-89296009D01*
X178222744Y-89296009D02*
X178175125Y-89391247D01*
X178175125Y-89391247D02*
X178175125Y-89629342D01*
X178175125Y-89629342D02*
X178222744Y-89724580D01*
X178222744Y-89724580D02*
X178270363Y-89772200D01*
X178270363Y-89772200D02*
X178365601Y-89819819D01*
X178365601Y-89819819D02*
X178651315Y-89819819D01*
X178651315Y-89819819D02*
X178746553Y-89772200D01*
X178746553Y-89772200D02*
X178794172Y-89724580D01*
X181039411Y-90117438D02*
X181134649Y-90069819D01*
X181134649Y-90069819D02*
X181277506Y-90069819D01*
X181277506Y-90069819D02*
X181420363Y-90117438D01*
X181420363Y-90117438D02*
X181515601Y-90212676D01*
X181515601Y-90212676D02*
X181563220Y-90307914D01*
X181563220Y-90307914D02*
X181610839Y-90498390D01*
X181610839Y-90498390D02*
X181610839Y-90641247D01*
X181610839Y-90641247D02*
X181563220Y-90831723D01*
X181563220Y-90831723D02*
X181515601Y-90926961D01*
X181515601Y-90926961D02*
X181420363Y-91022200D01*
X181420363Y-91022200D02*
X181277506Y-91069819D01*
X181277506Y-91069819D02*
X181182268Y-91069819D01*
X181182268Y-91069819D02*
X181039411Y-91022200D01*
X181039411Y-91022200D02*
X180991792Y-90974580D01*
X180991792Y-90974580D02*
X180991792Y-90641247D01*
X180991792Y-90641247D02*
X181182268Y-90641247D01*
X180563220Y-91069819D02*
X180563220Y-90069819D01*
X180563220Y-90069819D02*
X179991792Y-91069819D01*
X179991792Y-91069819D02*
X179991792Y-90069819D01*
X179515601Y-91069819D02*
X179515601Y-90069819D01*
X179515601Y-90069819D02*
X179277506Y-90069819D01*
X179277506Y-90069819D02*
X179134649Y-90117438D01*
X179134649Y-90117438D02*
X179039411Y-90212676D01*
X179039411Y-90212676D02*
X178991792Y-90307914D01*
X178991792Y-90307914D02*
X178944173Y-90498390D01*
X178944173Y-90498390D02*
X178944173Y-90641247D01*
X178944173Y-90641247D02*
X178991792Y-90831723D01*
X178991792Y-90831723D02*
X179039411Y-90926961D01*
X179039411Y-90926961D02*
X179134649Y-91022200D01*
X179134649Y-91022200D02*
X179277506Y-91069819D01*
X179277506Y-91069819D02*
X179515601Y-91069819D01*
X168660839Y-95572200D02*
X168517982Y-95619819D01*
X168517982Y-95619819D02*
X168279887Y-95619819D01*
X168279887Y-95619819D02*
X168184649Y-95572200D01*
X168184649Y-95572200D02*
X168137030Y-95524580D01*
X168137030Y-95524580D02*
X168089411Y-95429342D01*
X168089411Y-95429342D02*
X168089411Y-95334104D01*
X168089411Y-95334104D02*
X168137030Y-95238866D01*
X168137030Y-95238866D02*
X168184649Y-95191247D01*
X168184649Y-95191247D02*
X168279887Y-95143628D01*
X168279887Y-95143628D02*
X168470363Y-95096009D01*
X168470363Y-95096009D02*
X168565601Y-95048390D01*
X168565601Y-95048390D02*
X168613220Y-95000771D01*
X168613220Y-95000771D02*
X168660839Y-94905533D01*
X168660839Y-94905533D02*
X168660839Y-94810295D01*
X168660839Y-94810295D02*
X168613220Y-94715057D01*
X168613220Y-94715057D02*
X168565601Y-94667438D01*
X168565601Y-94667438D02*
X168470363Y-94619819D01*
X168470363Y-94619819D02*
X168232268Y-94619819D01*
X168232268Y-94619819D02*
X168089411Y-94667438D01*
X167660839Y-95619819D02*
X167660839Y-94619819D01*
X167660839Y-94619819D02*
X167422744Y-94619819D01*
X167422744Y-94619819D02*
X167279887Y-94667438D01*
X167279887Y-94667438D02*
X167184649Y-94762676D01*
X167184649Y-94762676D02*
X167137030Y-94857914D01*
X167137030Y-94857914D02*
X167089411Y-95048390D01*
X167089411Y-95048390D02*
X167089411Y-95191247D01*
X167089411Y-95191247D02*
X167137030Y-95381723D01*
X167137030Y-95381723D02*
X167184649Y-95476961D01*
X167184649Y-95476961D02*
X167279887Y-95572200D01*
X167279887Y-95572200D02*
X167422744Y-95619819D01*
X167422744Y-95619819D02*
X167660839Y-95619819D01*
X166708458Y-95334104D02*
X166232268Y-95334104D01*
X166803696Y-95619819D02*
X166470363Y-94619819D01*
X166470363Y-94619819D02*
X166137030Y-95619819D01*
X168656077Y-93369819D02*
X168084649Y-93369819D01*
X168370363Y-94369819D02*
X168370363Y-93369819D01*
X167751315Y-94369819D02*
X167751315Y-93369819D01*
X167751315Y-93369819D02*
X167370363Y-93369819D01*
X167370363Y-93369819D02*
X167275125Y-93417438D01*
X167275125Y-93417438D02*
X167227506Y-93465057D01*
X167227506Y-93465057D02*
X167179887Y-93560295D01*
X167179887Y-93560295D02*
X167179887Y-93703152D01*
X167179887Y-93703152D02*
X167227506Y-93798390D01*
X167227506Y-93798390D02*
X167275125Y-93846009D01*
X167275125Y-93846009D02*
X167370363Y-93893628D01*
X167370363Y-93893628D02*
X167751315Y-93893628D01*
X166227506Y-94369819D02*
X166798934Y-94369819D01*
X166513220Y-94369819D02*
X166513220Y-93369819D01*
X166513220Y-93369819D02*
X166608458Y-93512676D01*
X166608458Y-93512676D02*
X166703696Y-93607914D01*
X166703696Y-93607914D02*
X166798934Y-93655533D01*
D11*
%TO.C,TP10*%
X169500000Y-97120000D02*
X169100000Y-96720000D01*
X169500000Y-98720000D02*
X169100000Y-99120000D01*
X171100000Y-97120000D02*
X171500000Y-96720000D01*
X171100000Y-98720000D02*
X171500000Y-99120000D01*
%TO.C,TP6*%
X169500000Y-89500000D02*
X169100000Y-89100000D01*
X169500000Y-91100000D02*
X169100000Y-91500000D01*
X171100000Y-89500000D02*
X171500000Y-89100000D01*
X171100000Y-91100000D02*
X171500000Y-91500000D01*
%TO.C,TP2*%
X169500000Y-99660000D02*
X169100000Y-99260000D01*
X169500000Y-101260000D02*
X169100000Y-101660000D01*
X171100000Y-99660000D02*
X171500000Y-99260000D01*
X171100000Y-101260000D02*
X171500000Y-101660000D01*
%TO.C,TP5*%
X169500000Y-86960000D02*
X169100000Y-86560000D01*
X169500000Y-88560000D02*
X169100000Y-88960000D01*
X171100000Y-86960000D02*
X171500000Y-86560000D01*
X171100000Y-88560000D02*
X171500000Y-88960000D01*
%TO.C,TP4*%
X184740000Y-89500000D02*
X184340000Y-89100000D01*
X184740000Y-91100000D02*
X184340000Y-91500000D01*
X186340000Y-89500000D02*
X186740000Y-89100000D01*
X186340000Y-91100000D02*
X186740000Y-91500000D01*
%TO.C,TP7*%
X169500000Y-84420000D02*
X169100000Y-84020000D01*
X169500000Y-86020000D02*
X169100000Y-86420000D01*
X171100000Y-84420000D02*
X171500000Y-84020000D01*
X171100000Y-86020000D02*
X171500000Y-86420000D01*
%TO.C,TP13*%
X182200000Y-89500000D02*
X181800000Y-89100000D01*
X182200000Y-91100000D02*
X181800000Y-91500000D01*
X183800000Y-89500000D02*
X184200000Y-89100000D01*
X183800000Y-91100000D02*
X184200000Y-91500000D01*
%TO.C,TP1*%
X169500000Y-94580000D02*
X169100000Y-94180000D01*
X169500000Y-96180000D02*
X169100000Y-96580000D01*
X171100000Y-94580000D02*
X171500000Y-94180000D01*
X171100000Y-96180000D02*
X171500000Y-96580000D01*
%TD*%
M02*
