%TF.GenerationSoftware,KiCad,Pcbnew,9.0.7*%
%TF.CreationDate,2026-01-30T12:17:07+01:00*%
%TF.ProjectId,rfiq-1,72666971-2d31-42e6-9b69-6361645f7063,1a*%
%TF.SameCoordinates,Original*%
%TF.FileFunction,Copper,L2,Inr*%
%TF.FilePolarity,Positive*%
%FSLAX46Y46*%
G04 Gerber Fmt 4.6, Leading zero omitted, Abs format (unit mm)*
G04 Created by KiCad (PCBNEW 9.0.7) date 2026-01-30 12:17:07*
%MOMM*%
%LPD*%
G01*
G04 APERTURE LIST*
G04 Aperture macros list*
%AMOutline5P*
0 Free polygon, 5 corners , with rotation*
0 The origin of the aperture is its center*
0 number of corners: always 5*
0 $1 to $10 corner X, Y*
0 $11 Rotation angle, in degrees counterclockwise*
0 create outline with 5 corners*
4,1,5,$1,$2,$3,$4,$5,$6,$7,$8,$9,$10,$1,$2,$11*%
%AMOutline6P*
0 Free polygon, 6 corners , with rotation*
0 The origin of the aperture is its center*
0 number of corners: always 6*
0 $1 to $12 corner X, Y*
0 $13 Rotation angle, in degrees counterclockwise*
0 create outline with 6 corners*
4,1,6,$1,$2,$3,$4,$5,$6,$7,$8,$9,$10,$11,$12,$1,$2,$13*%
%AMOutline7P*
0 Free polygon, 7 corners , with rotation*
0 The origin of the aperture is its center*
0 number of corners: always 7*
0 $1 to $14 corner X, Y*
0 $15 Rotation angle, in degrees counterclockwise*
0 create outline with 7 corners*
4,1,7,$1,$2,$3,$4,$5,$6,$7,$8,$9,$10,$11,$12,$13,$14,$1,$2,$15*%
%AMOutline8P*
0 Free polygon, 8 corners , with rotation*
0 The origin of the aperture is its center*
0 number of corners: always 8*
0 $1 to $16 corner X, Y*
0 $17 Rotation angle, in degrees counterclockwise*
0 create outline with 8 corners*
4,1,8,$1,$2,$3,$4,$5,$6,$7,$8,$9,$10,$11,$12,$13,$14,$15,$16,$1,$2,$17*%
G04 Aperture macros list end*
%TA.AperFunction,ComponentPad*%
%ADD10Outline8P,-0.950000X0.475000X-0.475000X0.950000X0.475000X0.950000X0.950000X0.475000X0.950000X-0.475000X0.475000X-0.950000X-0.475000X-0.950000X-0.950000X-0.475000X0.000000*%
%TD*%
%TA.AperFunction,ComponentPad*%
%ADD11C,1.000000*%
%TD*%
%TA.AperFunction,ComponentPad*%
%ADD12C,2.050000*%
%TD*%
%TA.AperFunction,ComponentPad*%
%ADD13C,2.250000*%
%TD*%
%TA.AperFunction,ComponentPad*%
%ADD14R,1.700000X1.700000*%
%TD*%
%TA.AperFunction,ComponentPad*%
%ADD15O,1.700000X1.700000*%
%TD*%
%TA.AperFunction,ComponentPad*%
%ADD16C,1.700000*%
%TD*%
%TA.AperFunction,ViaPad*%
%ADD17C,0.600000*%
%TD*%
G04 APERTURE END LIST*
D10*
%TO.N,GND*%
%TO.C,TP10*%
X170300000Y-97920000D03*
%TD*%
%TO.N,/GQ1*%
%TO.C,TP6*%
X170300000Y-90300000D03*
%TD*%
%TO.N,/SCL*%
%TO.C,TP2*%
X170300000Y-100460000D03*
%TD*%
%TO.N,GND*%
%TO.C,TP5*%
X170300000Y-87760000D03*
%TD*%
%TO.N,/IO1*%
%TO.C,TP4*%
X185540000Y-90300000D03*
%TD*%
%TO.N,/GQ2*%
%TO.C,TP7*%
X170300000Y-85220000D03*
%TD*%
%TO.N,GND*%
%TO.C,TP13*%
X183000000Y-90300000D03*
%TD*%
D11*
%TO.N,*%
%TO.C,AE1*%
X209250000Y-83800000D03*
X209250000Y-85800000D03*
X204250000Y-85800000D03*
X209250000Y-87800000D03*
X204250000Y-87800000D03*
X209250000Y-89800000D03*
X204250000Y-89800000D03*
X209250000Y-91800000D03*
X204250000Y-91800000D03*
X209250000Y-93800000D03*
X204250000Y-93800000D03*
X209250000Y-95800000D03*
X204250000Y-95800000D03*
X209250000Y-97800000D03*
X204250000Y-97800000D03*
X209250000Y-99800000D03*
X204250000Y-99800000D03*
X209250000Y-101800000D03*
X204250000Y-101800000D03*
%TD*%
D10*
%TO.N,/SDA*%
%TO.C,TP1*%
X170300000Y-95380000D03*
%TD*%
D12*
%TO.N,/ANT_CONN*%
%TO.C,J1*%
X193260000Y-91060000D03*
D13*
%TO.N,GND*%
X195800000Y-88520000D03*
X190720000Y-88520000D03*
X195800000Y-93600000D03*
X190720000Y-93600000D03*
%TD*%
D14*
%TO.N,/IO1*%
%TO.C,J4*%
X163950000Y-86490000D03*
D15*
%TO.N,unconnected-(J4-Pin_2-Pad2)*%
X163950000Y-89030000D03*
%TO.N,/SCL*%
X163950000Y-91570000D03*
%TO.N,/SDA*%
X163950000Y-94110000D03*
%TO.N,GND*%
X163950000Y-96650000D03*
D16*
%TO.N,VCC*%
X163950000Y-99190000D03*
%TO.N,unconnected-(J4-Pin_7-Pad7)*%
X161410000Y-86490000D03*
D15*
%TO.N,unconnected-(J4-Pin_8-Pad8)*%
X161410000Y-89030000D03*
%TO.N,unconnected-(J4-Pin_9-Pad9)*%
X161410000Y-91570000D03*
%TO.N,unconnected-(J4-Pin_10-Pad10)*%
X161410000Y-94110000D03*
%TO.N,GND*%
X161410000Y-96650000D03*
%TO.N,VBAT*%
X161410000Y-99190000D03*
%TD*%
D17*
%TO.N,GND*%
X181900000Y-84500000D03*
X177900000Y-91800000D03*
X182100000Y-86950000D03*
X174950000Y-86200000D03*
X197200000Y-97675000D03*
X197200000Y-100225000D03*
X171900000Y-87500000D03*
X190500000Y-86200000D03*
X197200000Y-92550000D03*
X177750000Y-87650000D03*
X194000000Y-88300000D03*
X178500000Y-92200000D03*
X192300000Y-84600000D03*
X186500000Y-85425000D03*
X177100000Y-86300000D03*
X190800000Y-83500000D03*
X177300000Y-88100000D03*
X197200000Y-95725000D03*
X175400000Y-84750000D03*
X180500000Y-98000000D03*
X171900000Y-89600000D03*
X193375000Y-102150000D03*
X177300000Y-88700000D03*
X177300000Y-84200000D03*
X182300000Y-99800000D03*
X177300000Y-91400000D03*
X171900000Y-88200000D03*
X189900000Y-85700000D03*
X182400000Y-84100000D03*
X197200000Y-98325000D03*
X197200000Y-97025000D03*
X173100000Y-86900000D03*
X192600000Y-88300000D03*
X195925000Y-102150000D03*
X197200000Y-98975000D03*
X197200000Y-102150000D03*
X188600000Y-84000000D03*
X172350000Y-84800000D03*
X197200000Y-95100000D03*
X193000000Y-85600000D03*
X197200000Y-91275000D03*
X185100000Y-84150000D03*
X172800000Y-86200000D03*
X173900000Y-84700000D03*
X187200000Y-85425000D03*
X175400000Y-83500000D03*
X184400000Y-84200000D03*
X178350000Y-84850000D03*
X191450000Y-102150000D03*
X190800000Y-84190000D03*
X178400000Y-90100000D03*
X195150000Y-85750000D03*
X184150000Y-86900000D03*
X193400000Y-86300000D03*
X181450000Y-85650000D03*
X192600000Y-89000000D03*
X182750000Y-86950000D03*
X192100000Y-102150000D03*
X194400000Y-85200000D03*
X189200000Y-85700000D03*
X188900000Y-98000000D03*
X195950000Y-85350000D03*
X187150000Y-89200000D03*
X192600000Y-87600000D03*
X177000000Y-92000000D03*
X177250000Y-83600000D03*
X183100000Y-84150000D03*
X192250000Y-85350000D03*
X183750000Y-84200000D03*
X172000000Y-86400000D03*
X190800000Y-102150000D03*
X178700000Y-91600000D03*
X185750000Y-84150000D03*
X173300000Y-91200000D03*
X197200000Y-90650000D03*
X194000000Y-89000000D03*
X184450000Y-87500000D03*
X194025000Y-102150000D03*
X196100000Y-86050000D03*
X187200000Y-84200000D03*
X194550000Y-84600000D03*
X175700000Y-86300000D03*
X197200000Y-99600000D03*
X187900000Y-84200000D03*
X180700000Y-87300000D03*
X194675000Y-102150000D03*
X188000000Y-85425000D03*
X174500000Y-91700000D03*
X190100000Y-102150000D03*
X193850000Y-85550000D03*
X189300000Y-84000000D03*
X177200000Y-89800000D03*
X181900000Y-85150000D03*
X175000000Y-92200000D03*
X197200000Y-85450000D03*
X178400000Y-87750000D03*
X194000000Y-87600000D03*
X176400000Y-92200000D03*
X177050000Y-84800000D03*
X186400000Y-101500000D03*
X172700000Y-90700000D03*
X175700000Y-92200000D03*
X192800000Y-85000000D03*
X195200000Y-84550000D03*
X173900000Y-91400000D03*
X183450000Y-86900000D03*
X179200000Y-87600000D03*
X181400000Y-87000000D03*
X172000000Y-90300000D03*
X197200000Y-94475000D03*
X173800000Y-83500000D03*
X175300000Y-88100000D03*
X179400000Y-85600000D03*
X192725000Y-102150000D03*
X180100000Y-91400000D03*
X175300000Y-88800000D03*
X197200000Y-101500000D03*
X196550000Y-85550000D03*
X174300000Y-86100000D03*
X173700000Y-86400000D03*
X193900000Y-86900000D03*
X197200000Y-100850000D03*
X197200000Y-96375000D03*
X178600000Y-88600000D03*
X197200000Y-91900000D03*
X190600000Y-85500000D03*
X178600000Y-99400000D03*
X195800000Y-84750000D03*
X192200000Y-87000000D03*
X179500000Y-91900000D03*
X188500000Y-85700000D03*
X172000000Y-85400000D03*
X161400000Y-101800000D03*
X179400000Y-86910000D03*
X171900000Y-88900000D03*
X195300000Y-102150000D03*
X179100000Y-84950000D03*
X177600000Y-84900000D03*
X180000000Y-90100000D03*
X190000000Y-84000000D03*
X186500000Y-84200000D03*
X197200000Y-90025000D03*
X172400000Y-87000000D03*
X173900000Y-99800000D03*
X196550000Y-102150000D03*
X180000000Y-87200000D03*
X191500000Y-87000000D03*
X190800000Y-86900000D03*
%TO.N,VCC*%
X163975000Y-100800000D03*
X179675000Y-99400000D03*
X187975000Y-99400000D03*
X175000000Y-94000000D03*
X183400000Y-94000000D03*
X185350000Y-87100000D03*
%TO.N,/IO1*%
X186100000Y-86100000D03*
%TO.N,/SDA*%
X172100000Y-99900000D03*
X172100000Y-101300000D03*
%TO.N,/SCL*%
X177400000Y-101500000D03*
X176100000Y-100500000D03*
%TO.N,/GQ1*%
X181500000Y-92700000D03*
%TD*%
%TA.AperFunction,Conductor*%
%TO.N,GND*%
G36*
X206478326Y-83202174D02*
G01*
X206500000Y-83254500D01*
X206500000Y-102425500D01*
X206478326Y-102477826D01*
X206426000Y-102499500D01*
X204617936Y-102499500D01*
X204565610Y-102477826D01*
X204543936Y-102425500D01*
X204565610Y-102373174D01*
X204576816Y-102363976D01*
X204664669Y-102305276D01*
X204755276Y-102214669D01*
X204826465Y-102108127D01*
X204875501Y-101989744D01*
X204900500Y-101864069D01*
X204900500Y-101735931D01*
X204875501Y-101610256D01*
X204826465Y-101491873D01*
X204755276Y-101385331D01*
X204664669Y-101294724D01*
X204558127Y-101223535D01*
X204558124Y-101223533D01*
X204558123Y-101223533D01*
X204439742Y-101174498D01*
X204439739Y-101174497D01*
X204349696Y-101156586D01*
X204314069Y-101149500D01*
X204185931Y-101149500D01*
X204154726Y-101155707D01*
X204060260Y-101174497D01*
X204060257Y-101174498D01*
X203941876Y-101223533D01*
X203835331Y-101294723D01*
X203835330Y-101294725D01*
X203744725Y-101385330D01*
X203744723Y-101385331D01*
X203673533Y-101491876D01*
X203624498Y-101610257D01*
X203624497Y-101610260D01*
X203599500Y-101735932D01*
X203599500Y-101864067D01*
X203624497Y-101989739D01*
X203624498Y-101989742D01*
X203624499Y-101989744D01*
X203673535Y-102108127D01*
X203744724Y-102214669D01*
X203835331Y-102305276D01*
X203923177Y-102363972D01*
X203954642Y-102411063D01*
X203943593Y-102466612D01*
X203896501Y-102498078D01*
X203882064Y-102499500D01*
X158174500Y-102499500D01*
X158122174Y-102477826D01*
X158100500Y-102425500D01*
X158100500Y-100740688D01*
X163524500Y-100740688D01*
X163524500Y-100859311D01*
X163555199Y-100973882D01*
X163555201Y-100973887D01*
X163614508Y-101076609D01*
X163614509Y-101076610D01*
X163614511Y-101076613D01*
X163698387Y-101160489D01*
X163698389Y-101160490D01*
X163698390Y-101160491D01*
X163801112Y-101219798D01*
X163801114Y-101219799D01*
X163801115Y-101219799D01*
X163801117Y-101219800D01*
X163858402Y-101235149D01*
X163915688Y-101250499D01*
X163915689Y-101250500D01*
X163915691Y-101250500D01*
X164034311Y-101250500D01*
X164034311Y-101250499D01*
X164148886Y-101219799D01*
X164251613Y-101160489D01*
X164335489Y-101076613D01*
X164394799Y-100973886D01*
X164395970Y-100969514D01*
X164405404Y-100934310D01*
X164419902Y-100880201D01*
X164425499Y-100859311D01*
X164425500Y-100859311D01*
X164425500Y-100740689D01*
X164425499Y-100740688D01*
X164394800Y-100626117D01*
X164394798Y-100626112D01*
X164335491Y-100523390D01*
X164335490Y-100523389D01*
X164335489Y-100523387D01*
X164251613Y-100439511D01*
X164251610Y-100439509D01*
X164251609Y-100439508D01*
X164148887Y-100380201D01*
X164148882Y-100380199D01*
X164034311Y-100349500D01*
X164034309Y-100349500D01*
X163915691Y-100349500D01*
X163915689Y-100349500D01*
X163801117Y-100380199D01*
X163801112Y-100380201D01*
X163698390Y-100439508D01*
X163614508Y-100523390D01*
X163555201Y-100626112D01*
X163555199Y-100626117D01*
X163524500Y-100740688D01*
X158100500Y-100740688D01*
X158100500Y-99091460D01*
X160409500Y-99091460D01*
X160409500Y-99288539D01*
X160447947Y-99481829D01*
X160447950Y-99481839D01*
X160523367Y-99663913D01*
X160632860Y-99827781D01*
X160772218Y-99967139D01*
X160936086Y-100076632D01*
X161087890Y-100139511D01*
X161118165Y-100152051D01*
X161311459Y-100190500D01*
X161311461Y-100190500D01*
X161508539Y-100190500D01*
X161508541Y-100190500D01*
X161701835Y-100152051D01*
X161883914Y-100076632D01*
X162047782Y-99967139D01*
X162187139Y-99827782D01*
X162296632Y-99663914D01*
X162372051Y-99481835D01*
X162410500Y-99288541D01*
X162410500Y-99091460D01*
X162949500Y-99091460D01*
X162949500Y-99288539D01*
X162987947Y-99481829D01*
X162987950Y-99481839D01*
X163063367Y-99663913D01*
X163172860Y-99827781D01*
X163312218Y-99967139D01*
X163476086Y-100076632D01*
X163627890Y-100139511D01*
X163658165Y-100152051D01*
X163851459Y-100190500D01*
X163851461Y-100190500D01*
X164048539Y-100190500D01*
X164048541Y-100190500D01*
X164241835Y-100152051D01*
X164423914Y-100076632D01*
X164583231Y-99970180D01*
X169199499Y-99970180D01*
X169199499Y-100949826D01*
X169208231Y-100993724D01*
X169233092Y-101030931D01*
X169233094Y-101030933D01*
X169233097Y-101030937D01*
X169729060Y-101526900D01*
X169766278Y-101551767D01*
X169810180Y-101560500D01*
X170789827Y-101560501D01*
X170833723Y-101551769D01*
X170870937Y-101526903D01*
X171157152Y-101240688D01*
X171649500Y-101240688D01*
X171649500Y-101359311D01*
X171680199Y-101473882D01*
X171680201Y-101473887D01*
X171739508Y-101576609D01*
X171739509Y-101576610D01*
X171739511Y-101576613D01*
X171823387Y-101660489D01*
X171823389Y-101660490D01*
X171823390Y-101660491D01*
X171926112Y-101719798D01*
X171926114Y-101719799D01*
X171926115Y-101719799D01*
X171926117Y-101719800D01*
X171983402Y-101735149D01*
X172040688Y-101750499D01*
X172040689Y-101750500D01*
X172040691Y-101750500D01*
X172159311Y-101750500D01*
X172159311Y-101750499D01*
X172273886Y-101719799D01*
X172376613Y-101660489D01*
X172460489Y-101576613D01*
X172519799Y-101473886D01*
X172528694Y-101440689D01*
X172528694Y-101440688D01*
X176949500Y-101440688D01*
X176949500Y-101559311D01*
X176980199Y-101673882D01*
X176980201Y-101673887D01*
X177039508Y-101776609D01*
X177039509Y-101776610D01*
X177039511Y-101776613D01*
X177123387Y-101860489D01*
X177123389Y-101860490D01*
X177123390Y-101860491D01*
X177226112Y-101919798D01*
X177226114Y-101919799D01*
X177226115Y-101919799D01*
X177226117Y-101919800D01*
X177283402Y-101935149D01*
X177340688Y-101950499D01*
X177340689Y-101950500D01*
X177340691Y-101950500D01*
X177459311Y-101950500D01*
X177459311Y-101950499D01*
X177573886Y-101919799D01*
X177676613Y-101860489D01*
X177760489Y-101776613D01*
X177819799Y-101673886D01*
X177850499Y-101559311D01*
X177850500Y-101559311D01*
X177850500Y-101440689D01*
X177850499Y-101440688D01*
X177819800Y-101326117D01*
X177819798Y-101326112D01*
X177760491Y-101223390D01*
X177760490Y-101223389D01*
X177760489Y-101223387D01*
X177676613Y-101139511D01*
X177676610Y-101139509D01*
X177676609Y-101139508D01*
X177573887Y-101080201D01*
X177573882Y-101080199D01*
X177459311Y-101049500D01*
X177459309Y-101049500D01*
X177340691Y-101049500D01*
X177340689Y-101049500D01*
X177226117Y-101080199D01*
X177226112Y-101080201D01*
X177123390Y-101139508D01*
X177039508Y-101223390D01*
X176980201Y-101326112D01*
X176980199Y-101326117D01*
X176949500Y-101440688D01*
X172528694Y-101440688D01*
X172535124Y-101416695D01*
X172535125Y-101416688D01*
X172543527Y-101385331D01*
X172550500Y-101359309D01*
X172550500Y-101240691D01*
X172550500Y-101240689D01*
X172550499Y-101240688D01*
X172519800Y-101126117D01*
X172519798Y-101126112D01*
X172460491Y-101023390D01*
X172460490Y-101023389D01*
X172460489Y-101023387D01*
X172376613Y-100939511D01*
X172376610Y-100939509D01*
X172376609Y-100939508D01*
X172273887Y-100880201D01*
X172273882Y-100880199D01*
X172159311Y-100849500D01*
X172159309Y-100849500D01*
X172040691Y-100849500D01*
X172040689Y-100849500D01*
X171926117Y-100880199D01*
X171926112Y-100880201D01*
X171823390Y-100939508D01*
X171739508Y-101023390D01*
X171680201Y-101126112D01*
X171680199Y-101126117D01*
X171649500Y-101240688D01*
X171157152Y-101240688D01*
X171366900Y-101030940D01*
X171391767Y-100993722D01*
X171400500Y-100949820D01*
X171400500Y-100740688D01*
X171400501Y-100440688D01*
X175649500Y-100440688D01*
X175649500Y-100559311D01*
X175680199Y-100673882D01*
X175680201Y-100673887D01*
X175739508Y-100776609D01*
X175739509Y-100776610D01*
X175739511Y-100776613D01*
X175823387Y-100860489D01*
X175823389Y-100860490D01*
X175823390Y-100860491D01*
X175926112Y-100919798D01*
X175926114Y-100919799D01*
X175926115Y-100919799D01*
X175926117Y-100919800D01*
X175980269Y-100934310D01*
X176040688Y-100950499D01*
X176040689Y-100950500D01*
X176040691Y-100950500D01*
X176159311Y-100950500D01*
X176159311Y-100950499D01*
X176273886Y-100919799D01*
X176376613Y-100860489D01*
X176460489Y-100776613D01*
X176519799Y-100673886D01*
X176550499Y-100559311D01*
X176550500Y-100559311D01*
X176550500Y-100440689D01*
X176550499Y-100440688D01*
X176519800Y-100326117D01*
X176519798Y-100326112D01*
X176460491Y-100223390D01*
X176460490Y-100223389D01*
X176460489Y-100223387D01*
X176376613Y-100139511D01*
X176376610Y-100139509D01*
X176376609Y-100139508D01*
X176273887Y-100080201D01*
X176273882Y-100080199D01*
X176159311Y-100049500D01*
X176159309Y-100049500D01*
X176040691Y-100049500D01*
X176040689Y-100049500D01*
X175926117Y-100080199D01*
X175926112Y-100080201D01*
X175823390Y-100139508D01*
X175739508Y-100223390D01*
X175680201Y-100326112D01*
X175680199Y-100326117D01*
X175649500Y-100440688D01*
X171400501Y-100440688D01*
X171400501Y-100435841D01*
X171400501Y-99970173D01*
X171391769Y-99926278D01*
X171391769Y-99926277D01*
X171391768Y-99926275D01*
X171366907Y-99889068D01*
X171366905Y-99889066D01*
X171366903Y-99889063D01*
X171318528Y-99840688D01*
X171649500Y-99840688D01*
X171649500Y-99959311D01*
X171680199Y-100073882D01*
X171680201Y-100073887D01*
X171739508Y-100176609D01*
X171739509Y-100176610D01*
X171739511Y-100176613D01*
X171823387Y-100260489D01*
X171823389Y-100260490D01*
X171823390Y-100260491D01*
X171926112Y-100319798D01*
X171926114Y-100319799D01*
X171926115Y-100319799D01*
X171926117Y-100319800D01*
X171949693Y-100326117D01*
X172040688Y-100350499D01*
X172040689Y-100350500D01*
X172040691Y-100350500D01*
X172159311Y-100350500D01*
X172159311Y-100350499D01*
X172273886Y-100319799D01*
X172376613Y-100260489D01*
X172460489Y-100176613D01*
X172519799Y-100073886D01*
X172550500Y-99959309D01*
X172550500Y-99840691D01*
X172550500Y-99840689D01*
X172550499Y-99840688D01*
X172519800Y-99726117D01*
X172519798Y-99726112D01*
X172460491Y-99623390D01*
X172460490Y-99623389D01*
X172460489Y-99623387D01*
X172376613Y-99539511D01*
X172376610Y-99539509D01*
X172376609Y-99539508D01*
X172273887Y-99480201D01*
X172273882Y-99480199D01*
X172159311Y-99449500D01*
X172159309Y-99449500D01*
X172040691Y-99449500D01*
X172040689Y-99449500D01*
X171926117Y-99480199D01*
X171926112Y-99480201D01*
X171823390Y-99539508D01*
X171739508Y-99623390D01*
X171680201Y-99726112D01*
X171680199Y-99726117D01*
X171649500Y-99840688D01*
X171318528Y-99840688D01*
X170870940Y-99393100D01*
X170870939Y-99393099D01*
X170870938Y-99393098D01*
X170833722Y-99368233D01*
X170833720Y-99368232D01*
X170789815Y-99359499D01*
X169810173Y-99359499D01*
X169766275Y-99368231D01*
X169729068Y-99393092D01*
X169729065Y-99393095D01*
X169233099Y-99889060D01*
X169233098Y-99889062D01*
X169208233Y-99926277D01*
X169208232Y-99926279D01*
X169199499Y-99970180D01*
X164583231Y-99970180D01*
X164587782Y-99967139D01*
X164727139Y-99827782D01*
X164836632Y-99663914D01*
X164912051Y-99481835D01*
X164940127Y-99340688D01*
X179224500Y-99340688D01*
X179224500Y-99459311D01*
X179255199Y-99573882D01*
X179255201Y-99573887D01*
X179314508Y-99676609D01*
X179314509Y-99676610D01*
X179314511Y-99676613D01*
X179398387Y-99760489D01*
X179501114Y-99819799D01*
X179501115Y-99819799D01*
X179501117Y-99819800D01*
X179558402Y-99835149D01*
X179615688Y-99850499D01*
X179615689Y-99850500D01*
X179615691Y-99850500D01*
X179734311Y-99850500D01*
X179734311Y-99850499D01*
X179848886Y-99819799D01*
X179951613Y-99760489D01*
X180035489Y-99676613D01*
X180094799Y-99573886D01*
X180125499Y-99459311D01*
X180125500Y-99459311D01*
X180125500Y-99340689D01*
X180125499Y-99340688D01*
X187524500Y-99340688D01*
X187524500Y-99459311D01*
X187555199Y-99573882D01*
X187555201Y-99573887D01*
X187614508Y-99676609D01*
X187614509Y-99676610D01*
X187614511Y-99676613D01*
X187698387Y-99760489D01*
X187801114Y-99819799D01*
X187801115Y-99819799D01*
X187801117Y-99819800D01*
X187858402Y-99835149D01*
X187915688Y-99850499D01*
X187915689Y-99850500D01*
X187915691Y-99850500D01*
X188034311Y-99850500D01*
X188034311Y-99850499D01*
X188148886Y-99819799D01*
X188251613Y-99760489D01*
X188276170Y-99735932D01*
X203599500Y-99735932D01*
X203599500Y-99864067D01*
X203624497Y-99989739D01*
X203624498Y-99989742D01*
X203661967Y-100080201D01*
X203673535Y-100108127D01*
X203744724Y-100214669D01*
X203835331Y-100305276D01*
X203941873Y-100376465D01*
X204060256Y-100425501D01*
X204060258Y-100425501D01*
X204060260Y-100425502D01*
X204102903Y-100433984D01*
X204185931Y-100450500D01*
X204185933Y-100450500D01*
X204314067Y-100450500D01*
X204314069Y-100450500D01*
X204439744Y-100425501D01*
X204558127Y-100376465D01*
X204664669Y-100305276D01*
X204755276Y-100214669D01*
X204826465Y-100108127D01*
X204875501Y-99989744D01*
X204900500Y-99864069D01*
X204900500Y-99735931D01*
X204875501Y-99610256D01*
X204826465Y-99491873D01*
X204755276Y-99385331D01*
X204664669Y-99294724D01*
X204655415Y-99288541D01*
X204629473Y-99271207D01*
X204558127Y-99223535D01*
X204558124Y-99223533D01*
X204558123Y-99223533D01*
X204439742Y-99174498D01*
X204439739Y-99174497D01*
X204349696Y-99156586D01*
X204314069Y-99149500D01*
X204185931Y-99149500D01*
X204154726Y-99155707D01*
X204060260Y-99174497D01*
X204060257Y-99174498D01*
X203941876Y-99223533D01*
X203835331Y-99294723D01*
X203835330Y-99294725D01*
X203744725Y-99385330D01*
X203744723Y-99385331D01*
X203673533Y-99491876D01*
X203624498Y-99610257D01*
X203624497Y-99610260D01*
X203599500Y-99735932D01*
X188276170Y-99735932D01*
X188335489Y-99676613D01*
X188394799Y-99573886D01*
X188425499Y-99459311D01*
X188425500Y-99459311D01*
X188425500Y-99340689D01*
X188425499Y-99340688D01*
X188394800Y-99226117D01*
X188394798Y-99226112D01*
X188335491Y-99123390D01*
X188335490Y-99123389D01*
X188335489Y-99123387D01*
X188251613Y-99039511D01*
X188251610Y-99039509D01*
X188251609Y-99039508D01*
X188148887Y-98980201D01*
X188148882Y-98980199D01*
X188034311Y-98949500D01*
X188034309Y-98949500D01*
X187915691Y-98949500D01*
X187915689Y-98949500D01*
X187801117Y-98980199D01*
X187801112Y-98980201D01*
X187698390Y-99039508D01*
X187614508Y-99123390D01*
X187555201Y-99226112D01*
X187555199Y-99226117D01*
X187524500Y-99340688D01*
X180125499Y-99340688D01*
X180094800Y-99226117D01*
X180094798Y-99226112D01*
X180035491Y-99123390D01*
X180035490Y-99123389D01*
X180035489Y-99123387D01*
X179951613Y-99039511D01*
X179951610Y-99039509D01*
X179951609Y-99039508D01*
X179848887Y-98980201D01*
X179848882Y-98980199D01*
X179734311Y-98949500D01*
X179734309Y-98949500D01*
X179615691Y-98949500D01*
X179615689Y-98949500D01*
X179501117Y-98980199D01*
X179501112Y-98980201D01*
X179398390Y-99039508D01*
X179314508Y-99123390D01*
X179255201Y-99226112D01*
X179255199Y-99226117D01*
X179224500Y-99340688D01*
X164940127Y-99340688D01*
X164950500Y-99288541D01*
X164950500Y-99091459D01*
X164912051Y-98898165D01*
X164836632Y-98716086D01*
X164727139Y-98552218D01*
X164587782Y-98412861D01*
X164533312Y-98376465D01*
X164423913Y-98303367D01*
X164241839Y-98227950D01*
X164241829Y-98227947D01*
X164112388Y-98202200D01*
X164048541Y-98189500D01*
X163851459Y-98189500D01*
X163796662Y-98200399D01*
X163658170Y-98227947D01*
X163658160Y-98227950D01*
X163476086Y-98303367D01*
X163312218Y-98412860D01*
X163312217Y-98412862D01*
X163172862Y-98552217D01*
X163172860Y-98552218D01*
X163063367Y-98716086D01*
X162987950Y-98898160D01*
X162987947Y-98898170D01*
X162949500Y-99091460D01*
X162410500Y-99091460D01*
X162410500Y-99091459D01*
X162372051Y-98898165D01*
X162296632Y-98716086D01*
X162187139Y-98552218D01*
X162047782Y-98412861D01*
X161993312Y-98376465D01*
X161883913Y-98303367D01*
X161701839Y-98227950D01*
X161701829Y-98227947D01*
X161572388Y-98202200D01*
X161508541Y-98189500D01*
X161311459Y-98189500D01*
X161256662Y-98200399D01*
X161118170Y-98227947D01*
X161118160Y-98227950D01*
X160936086Y-98303367D01*
X160772218Y-98412860D01*
X160772217Y-98412862D01*
X160632862Y-98552217D01*
X160632860Y-98552218D01*
X160523367Y-98716086D01*
X160447950Y-98898160D01*
X160447947Y-98898170D01*
X160409500Y-99091460D01*
X158100500Y-99091460D01*
X158100500Y-96499998D01*
X160269422Y-96499998D01*
X160269424Y-96500000D01*
X160932555Y-96500000D01*
X160910000Y-96584174D01*
X160910000Y-96715826D01*
X160932555Y-96800000D01*
X160269424Y-96800000D01*
X160269422Y-96800001D01*
X160288316Y-96919289D01*
X160288319Y-96919302D01*
X160344251Y-97091443D01*
X160426433Y-97252732D01*
X160426433Y-97252733D01*
X160532826Y-97399170D01*
X160532834Y-97399180D01*
X160660820Y-97527166D01*
X160660829Y-97527173D01*
X160807266Y-97633566D01*
X160968556Y-97715748D01*
X160968555Y-97715748D01*
X161140697Y-97771680D01*
X161140710Y-97771683D01*
X161259998Y-97790577D01*
X161260000Y-97790576D01*
X161260000Y-97127445D01*
X161344174Y-97150000D01*
X161475826Y-97150000D01*
X161560000Y-97127445D01*
X161560000Y-97790576D01*
X161560001Y-97790577D01*
X161679289Y-97771683D01*
X161679302Y-97771680D01*
X161851443Y-97715748D01*
X162012732Y-97633566D01*
X162012733Y-97633566D01*
X162159170Y-97527173D01*
X162159180Y-97527166D01*
X162287166Y-97399180D01*
X162287173Y-97399170D01*
X162393566Y-97252733D01*
X162393566Y-97252732D01*
X162475748Y-97091443D01*
X162531680Y-96919302D01*
X162531683Y-96919289D01*
X162550577Y-96800001D01*
X162550576Y-96800000D01*
X161887445Y-96800000D01*
X161910000Y-96715826D01*
X161910000Y-96584174D01*
X161887445Y-96500000D01*
X162550576Y-96500000D01*
X162550577Y-96499998D01*
X162809422Y-96499998D01*
X162809424Y-96500000D01*
X163472555Y-96500000D01*
X163450000Y-96584174D01*
X163450000Y-96715826D01*
X163472555Y-96800000D01*
X162809424Y-96800000D01*
X162809422Y-96800001D01*
X162828316Y-96919289D01*
X162828319Y-96919302D01*
X162884251Y-97091443D01*
X162966433Y-97252732D01*
X162966433Y-97252733D01*
X163072826Y-97399170D01*
X163072834Y-97399180D01*
X163200820Y-97527166D01*
X163200829Y-97527173D01*
X163347266Y-97633566D01*
X163508556Y-97715748D01*
X163508555Y-97715748D01*
X163680697Y-97771680D01*
X163680710Y-97771683D01*
X163799998Y-97790577D01*
X163800000Y-97790576D01*
X163800000Y-97127445D01*
X163884174Y-97150000D01*
X164015826Y-97150000D01*
X164100000Y-97127445D01*
X164100000Y-97790576D01*
X164100001Y-97790577D01*
X164219289Y-97771683D01*
X164219302Y-97771680D01*
X164391443Y-97715748D01*
X164552732Y-97633566D01*
X164552733Y-97633566D01*
X164699170Y-97527173D01*
X164699180Y-97527166D01*
X164827166Y-97399180D01*
X164827174Y-97399170D01*
X164830064Y-97395192D01*
X169050000Y-97395192D01*
X169050000Y-97770000D01*
X169874318Y-97770000D01*
X169850000Y-97860756D01*
X169850000Y-97979244D01*
X169874318Y-98070000D01*
X169050001Y-98070000D01*
X169050001Y-98444820D01*
X169051374Y-98457990D01*
X169051376Y-98457997D01*
X169094296Y-98561616D01*
X169094297Y-98561617D01*
X169102641Y-98571905D01*
X169648097Y-99117358D01*
X169658386Y-99125705D01*
X169762002Y-99168623D01*
X169775192Y-99169999D01*
X170150000Y-99169999D01*
X170150000Y-98345681D01*
X170240756Y-98370000D01*
X170359244Y-98370000D01*
X170450000Y-98345681D01*
X170450000Y-99169999D01*
X170824816Y-99169999D01*
X170824820Y-99169998D01*
X170837990Y-99168625D01*
X170837997Y-99168623D01*
X170941616Y-99125703D01*
X170941617Y-99125702D01*
X170951905Y-99117358D01*
X171497358Y-98571902D01*
X171505705Y-98561613D01*
X171548623Y-98457997D01*
X171550000Y-98444807D01*
X171550000Y-98070000D01*
X170725682Y-98070000D01*
X170750000Y-97979244D01*
X170750000Y-97860756D01*
X170725682Y-97770000D01*
X171549999Y-97770000D01*
X171549999Y-97735932D01*
X203599500Y-97735932D01*
X203599500Y-97864067D01*
X203624497Y-97989739D01*
X203624498Y-97989742D01*
X203667556Y-98093694D01*
X203673535Y-98108127D01*
X203744724Y-98214669D01*
X203835331Y-98305276D01*
X203941873Y-98376465D01*
X204060256Y-98425501D01*
X204060258Y-98425501D01*
X204060260Y-98425502D01*
X204102903Y-98433984D01*
X204185931Y-98450500D01*
X204185933Y-98450500D01*
X204314067Y-98450500D01*
X204314069Y-98450500D01*
X204439744Y-98425501D01*
X204558127Y-98376465D01*
X204664669Y-98305276D01*
X204755276Y-98214669D01*
X204826465Y-98108127D01*
X204875501Y-97989744D01*
X204900500Y-97864069D01*
X204900500Y-97735931D01*
X204888168Y-97673939D01*
X204875502Y-97610260D01*
X204875501Y-97610257D01*
X204841086Y-97527173D01*
X204826465Y-97491873D01*
X204755276Y-97385331D01*
X204664669Y-97294724D01*
X204640217Y-97278386D01*
X204601823Y-97252732D01*
X204558127Y-97223535D01*
X204558124Y-97223533D01*
X204558123Y-97223533D01*
X204439742Y-97174498D01*
X204439739Y-97174497D01*
X204349696Y-97156586D01*
X204314069Y-97149500D01*
X204185931Y-97149500D01*
X204154726Y-97155707D01*
X204060260Y-97174497D01*
X204060257Y-97174498D01*
X203941876Y-97223533D01*
X203835331Y-97294723D01*
X203835330Y-97294725D01*
X203744725Y-97385330D01*
X203744723Y-97385331D01*
X203673533Y-97491876D01*
X203624498Y-97610257D01*
X203624497Y-97610260D01*
X203599500Y-97735932D01*
X171549999Y-97735932D01*
X171549999Y-97395183D01*
X171549998Y-97395179D01*
X171548625Y-97382009D01*
X171548623Y-97382002D01*
X171505703Y-97278383D01*
X171505702Y-97278382D01*
X171497358Y-97268094D01*
X170951902Y-96722641D01*
X170941613Y-96714294D01*
X170837997Y-96671376D01*
X170824807Y-96670000D01*
X170450000Y-96670000D01*
X170450000Y-97494318D01*
X170359244Y-97470000D01*
X170240756Y-97470000D01*
X170150000Y-97494318D01*
X170150000Y-96670000D01*
X169775183Y-96670000D01*
X169775179Y-96670001D01*
X169762009Y-96671374D01*
X169762002Y-96671376D01*
X169658383Y-96714296D01*
X169658382Y-96714297D01*
X169648094Y-96722641D01*
X169102641Y-97268097D01*
X169094294Y-97278386D01*
X169051376Y-97382002D01*
X169050000Y-97395192D01*
X164830064Y-97395192D01*
X164863068Y-97349767D01*
X164933565Y-97252734D01*
X164933566Y-97252732D01*
X165015748Y-97091443D01*
X165071680Y-96919302D01*
X165071683Y-96919289D01*
X165090577Y-96800001D01*
X165090576Y-96800000D01*
X164427445Y-96800000D01*
X164450000Y-96715826D01*
X164450000Y-96584174D01*
X164427445Y-96500000D01*
X165090576Y-96500000D01*
X165090577Y-96499998D01*
X165071683Y-96380710D01*
X165071680Y-96380697D01*
X165015748Y-96208556D01*
X164933566Y-96047267D01*
X164933565Y-96047265D01*
X164838893Y-95916959D01*
X164827174Y-95900829D01*
X164827166Y-95900820D01*
X164699180Y-95772834D01*
X164699170Y-95772826D01*
X164552733Y-95666433D01*
X164391443Y-95584251D01*
X164391444Y-95584251D01*
X164219302Y-95528319D01*
X164219291Y-95528317D01*
X164100000Y-95509422D01*
X164100000Y-96172554D01*
X164015826Y-96150000D01*
X163884174Y-96150000D01*
X163800000Y-96172554D01*
X163800000Y-95509422D01*
X163680708Y-95528317D01*
X163680697Y-95528319D01*
X163508556Y-95584251D01*
X163347267Y-95666433D01*
X163347266Y-95666433D01*
X163200829Y-95772826D01*
X163200820Y-95772834D01*
X163072834Y-95900820D01*
X163072826Y-95900829D01*
X162966433Y-96047266D01*
X162966433Y-96047267D01*
X162884251Y-96208556D01*
X162828319Y-96380697D01*
X162828316Y-96380710D01*
X162809422Y-96499998D01*
X162550577Y-96499998D01*
X162531683Y-96380710D01*
X162531680Y-96380697D01*
X162475748Y-96208556D01*
X162393566Y-96047267D01*
X162393566Y-96047266D01*
X162287173Y-95900829D01*
X162287166Y-95900820D01*
X162159180Y-95772834D01*
X162159170Y-95772826D01*
X162012733Y-95666433D01*
X161851443Y-95584251D01*
X161851444Y-95584251D01*
X161679302Y-95528319D01*
X161679291Y-95528317D01*
X161560000Y-95509422D01*
X161560000Y-96172554D01*
X161475826Y-96150000D01*
X161344174Y-96150000D01*
X161260000Y-96172554D01*
X161260000Y-95509422D01*
X161140708Y-95528317D01*
X161140697Y-95528319D01*
X160968556Y-95584251D01*
X160807267Y-95666433D01*
X160807266Y-95666433D01*
X160660829Y-95772826D01*
X160660820Y-95772834D01*
X160532834Y-95900820D01*
X160532826Y-95900829D01*
X160426433Y-96047266D01*
X160426433Y-96047267D01*
X160344251Y-96208556D01*
X160288319Y-96380697D01*
X160288316Y-96380710D01*
X160269422Y-96499998D01*
X158100500Y-96499998D01*
X158100500Y-94011459D01*
X160409500Y-94011459D01*
X160409500Y-94208541D01*
X160419783Y-94260238D01*
X160447947Y-94401829D01*
X160447950Y-94401839D01*
X160523367Y-94583913D01*
X160623370Y-94733577D01*
X160632861Y-94747782D01*
X160772218Y-94887139D01*
X160936086Y-94996632D01*
X161118165Y-95072051D01*
X161311459Y-95110500D01*
X161311461Y-95110500D01*
X161508539Y-95110500D01*
X161508541Y-95110500D01*
X161701835Y-95072051D01*
X161883914Y-94996632D01*
X162047782Y-94887139D01*
X162187139Y-94747782D01*
X162296632Y-94583914D01*
X162372051Y-94401835D01*
X162410500Y-94208541D01*
X162410500Y-94011459D01*
X162949500Y-94011459D01*
X162949500Y-94208541D01*
X162959783Y-94260238D01*
X162987947Y-94401829D01*
X162987950Y-94401839D01*
X163063367Y-94583913D01*
X163163370Y-94733577D01*
X163172861Y-94747782D01*
X163312218Y-94887139D01*
X163476086Y-94996632D01*
X163658165Y-95072051D01*
X163851459Y-95110500D01*
X163851461Y-95110500D01*
X164048539Y-95110500D01*
X164048541Y-95110500D01*
X164241835Y-95072051D01*
X164423914Y-94996632D01*
X164583231Y-94890180D01*
X169199499Y-94890180D01*
X169199499Y-95869826D01*
X169208231Y-95913724D01*
X169233092Y-95950931D01*
X169233094Y-95950933D01*
X169233097Y-95950937D01*
X169729060Y-96446900D01*
X169766278Y-96471767D01*
X169810180Y-96480500D01*
X170789827Y-96480501D01*
X170833723Y-96471769D01*
X170870937Y-96446903D01*
X171366900Y-95950940D01*
X171391767Y-95913722D01*
X171400500Y-95869820D01*
X171400500Y-95735931D01*
X203599500Y-95735931D01*
X203599500Y-95864069D01*
X203606586Y-95899696D01*
X203624497Y-95989739D01*
X203624498Y-95989742D01*
X203624499Y-95989744D01*
X203673535Y-96108127D01*
X203744724Y-96214669D01*
X203835331Y-96305276D01*
X203941873Y-96376465D01*
X204060256Y-96425501D01*
X204060258Y-96425501D01*
X204060260Y-96425502D01*
X204102903Y-96433984D01*
X204185931Y-96450500D01*
X204185933Y-96450500D01*
X204314067Y-96450500D01*
X204314069Y-96450500D01*
X204439744Y-96425501D01*
X204558127Y-96376465D01*
X204664669Y-96305276D01*
X204755276Y-96214669D01*
X204826465Y-96108127D01*
X204875501Y-95989744D01*
X204900500Y-95864069D01*
X204900500Y-95735931D01*
X204875501Y-95610256D01*
X204826465Y-95491873D01*
X204755276Y-95385331D01*
X204664669Y-95294724D01*
X204558127Y-95223535D01*
X204558124Y-95223533D01*
X204558123Y-95223533D01*
X204439742Y-95174498D01*
X204439739Y-95174497D01*
X204349696Y-95156586D01*
X204314069Y-95149500D01*
X204185931Y-95149500D01*
X204154726Y-95155707D01*
X204060260Y-95174497D01*
X204060257Y-95174498D01*
X203941876Y-95223533D01*
X203835331Y-95294723D01*
X203835330Y-95294725D01*
X203744725Y-95385330D01*
X203744723Y-95385331D01*
X203673533Y-95491876D01*
X203624498Y-95610257D01*
X203624497Y-95610260D01*
X203613324Y-95666433D01*
X203599500Y-95735931D01*
X171400500Y-95735931D01*
X171400501Y-94890173D01*
X171391769Y-94846277D01*
X171391768Y-94846275D01*
X171366907Y-94809068D01*
X171366905Y-94809066D01*
X171366903Y-94809063D01*
X170870940Y-94313100D01*
X170833722Y-94288233D01*
X170833720Y-94288232D01*
X170789815Y-94279499D01*
X169810173Y-94279499D01*
X169766275Y-94288231D01*
X169729068Y-94313092D01*
X169729065Y-94313095D01*
X169233099Y-94809060D01*
X169233098Y-94809062D01*
X169208233Y-94846277D01*
X169208232Y-94846279D01*
X169199499Y-94890180D01*
X164583231Y-94890180D01*
X164587782Y-94887139D01*
X164727139Y-94747782D01*
X164836632Y-94583914D01*
X164912051Y-94401835D01*
X164950500Y-94208541D01*
X164950500Y-94011459D01*
X164936423Y-93940688D01*
X174549500Y-93940688D01*
X174549500Y-94059311D01*
X174580199Y-94173882D01*
X174580201Y-94173887D01*
X174639508Y-94276609D01*
X174639509Y-94276610D01*
X174639511Y-94276613D01*
X174723387Y-94360489D01*
X174723389Y-94360490D01*
X174723390Y-94360491D01*
X174821846Y-94417335D01*
X174826114Y-94419799D01*
X174826115Y-94419799D01*
X174826117Y-94419800D01*
X174883402Y-94435149D01*
X174940688Y-94450499D01*
X174940689Y-94450500D01*
X174940691Y-94450500D01*
X175059311Y-94450500D01*
X175059311Y-94450499D01*
X175173886Y-94419799D01*
X175276613Y-94360489D01*
X175360489Y-94276613D01*
X175419799Y-94173886D01*
X175450499Y-94059311D01*
X175450500Y-94059311D01*
X175450500Y-93940689D01*
X175450499Y-93940688D01*
X182949500Y-93940688D01*
X182949500Y-94059311D01*
X182980199Y-94173882D01*
X182980201Y-94173887D01*
X183039508Y-94276609D01*
X183039509Y-94276610D01*
X183039511Y-94276613D01*
X183123387Y-94360489D01*
X183123389Y-94360490D01*
X183123390Y-94360491D01*
X183221846Y-94417335D01*
X183226114Y-94419799D01*
X183226115Y-94419799D01*
X183226117Y-94419800D01*
X183283402Y-94435149D01*
X183340688Y-94450499D01*
X183340689Y-94450500D01*
X183340691Y-94450500D01*
X183459311Y-94450500D01*
X183459311Y-94450499D01*
X183573886Y-94419799D01*
X183676613Y-94360489D01*
X183760489Y-94276613D01*
X183819799Y-94173886D01*
X183850499Y-94059311D01*
X183850500Y-94059311D01*
X183850500Y-93940689D01*
X183850499Y-93940688D01*
X183819800Y-93826117D01*
X183819798Y-93826112D01*
X183760491Y-93723390D01*
X183760490Y-93723389D01*
X183760489Y-93723387D01*
X183676613Y-93639511D01*
X183676610Y-93639509D01*
X183676609Y-93639508D01*
X183573887Y-93580201D01*
X183573882Y-93580199D01*
X183485137Y-93556420D01*
X183459311Y-93549500D01*
X183459309Y-93549500D01*
X183340691Y-93549500D01*
X183340689Y-93549500D01*
X183226117Y-93580199D01*
X183226112Y-93580201D01*
X183123390Y-93639508D01*
X183039508Y-93723390D01*
X182980201Y-93826112D01*
X182980199Y-93826117D01*
X182949500Y-93940688D01*
X175450499Y-93940688D01*
X175419800Y-93826117D01*
X175419798Y-93826112D01*
X175360491Y-93723390D01*
X175360490Y-93723389D01*
X175360489Y-93723387D01*
X175276613Y-93639511D01*
X175276610Y-93639509D01*
X175276609Y-93639508D01*
X175173887Y-93580201D01*
X175173882Y-93580199D01*
X175059311Y-93549500D01*
X175059309Y-93549500D01*
X174940691Y-93549500D01*
X174940689Y-93549500D01*
X174826117Y-93580199D01*
X174826112Y-93580201D01*
X174723390Y-93639508D01*
X174639508Y-93723390D01*
X174580201Y-93826112D01*
X174580199Y-93826117D01*
X174549500Y-93940688D01*
X164936423Y-93940688D01*
X164912051Y-93818165D01*
X164868138Y-93712150D01*
X164836632Y-93636086D01*
X164737583Y-93487849D01*
X189295000Y-93487849D01*
X189295000Y-93712150D01*
X189330089Y-93933687D01*
X189330091Y-93933698D01*
X189399398Y-94147004D01*
X189501228Y-94346858D01*
X189610545Y-94497321D01*
X190022215Y-94085650D01*
X190059762Y-94141844D01*
X190178156Y-94260238D01*
X190234347Y-94297783D01*
X189822677Y-94709453D01*
X189973136Y-94818769D01*
X190172995Y-94920601D01*
X190386301Y-94989908D01*
X190386312Y-94989910D01*
X190607849Y-95025000D01*
X190832151Y-95025000D01*
X191053687Y-94989910D01*
X191053698Y-94989908D01*
X191267004Y-94920601D01*
X191466862Y-94818769D01*
X191617321Y-94709454D01*
X191205651Y-94297784D01*
X191261844Y-94260238D01*
X191380238Y-94141844D01*
X191417784Y-94085651D01*
X191829454Y-94497321D01*
X191938769Y-94346862D01*
X192040601Y-94147004D01*
X192109908Y-93933698D01*
X192109910Y-93933687D01*
X192145000Y-93712150D01*
X192145000Y-93487849D01*
X194375000Y-93487849D01*
X194375000Y-93712150D01*
X194410089Y-93933687D01*
X194410091Y-93933698D01*
X194479398Y-94147004D01*
X194581228Y-94346858D01*
X194690545Y-94497321D01*
X195102215Y-94085650D01*
X195139762Y-94141844D01*
X195258156Y-94260238D01*
X195314347Y-94297783D01*
X194902677Y-94709453D01*
X195053136Y-94818769D01*
X195252995Y-94920601D01*
X195466301Y-94989908D01*
X195466312Y-94989910D01*
X195687849Y-95025000D01*
X195912151Y-95025000D01*
X196133687Y-94989910D01*
X196133698Y-94989908D01*
X196347004Y-94920601D01*
X196546862Y-94818769D01*
X196697321Y-94709454D01*
X196285651Y-94297784D01*
X196341844Y-94260238D01*
X196460238Y-94141844D01*
X196497784Y-94085651D01*
X196909454Y-94497321D01*
X197018769Y-94346862D01*
X197120601Y-94147004D01*
X197189908Y-93933698D01*
X197189910Y-93933687D01*
X197221233Y-93735932D01*
X203599500Y-93735932D01*
X203599500Y-93864067D01*
X203624497Y-93989739D01*
X203624498Y-93989742D01*
X203653314Y-94059311D01*
X203673535Y-94108127D01*
X203744724Y-94214669D01*
X203835331Y-94305276D01*
X203941873Y-94376465D01*
X204060256Y-94425501D01*
X204060258Y-94425501D01*
X204060260Y-94425502D01*
X204102903Y-94433984D01*
X204185931Y-94450500D01*
X204185933Y-94450500D01*
X204314067Y-94450500D01*
X204314069Y-94450500D01*
X204439744Y-94425501D01*
X204558127Y-94376465D01*
X204664669Y-94305276D01*
X204755276Y-94214669D01*
X204826465Y-94108127D01*
X204875501Y-93989744D01*
X204900500Y-93864069D01*
X204900500Y-93735931D01*
X204875501Y-93610256D01*
X204826465Y-93491873D01*
X204755276Y-93385331D01*
X204664669Y-93294724D01*
X204558127Y-93223535D01*
X204558124Y-93223533D01*
X204558123Y-93223533D01*
X204439742Y-93174498D01*
X204439739Y-93174497D01*
X204349696Y-93156586D01*
X204314069Y-93149500D01*
X204185931Y-93149500D01*
X204154726Y-93155707D01*
X204060260Y-93174497D01*
X204060257Y-93174498D01*
X203941876Y-93223533D01*
X203835331Y-93294723D01*
X203835330Y-93294725D01*
X203744725Y-93385330D01*
X203744723Y-93385331D01*
X203673533Y-93491876D01*
X203624498Y-93610257D01*
X203624497Y-93610260D01*
X203599500Y-93735932D01*
X197221233Y-93735932D01*
X197223643Y-93720719D01*
X197223643Y-93720718D01*
X197225000Y-93712151D01*
X197225000Y-93487849D01*
X197189910Y-93266312D01*
X197189908Y-93266301D01*
X197120601Y-93052995D01*
X197018769Y-92853136D01*
X196909453Y-92702677D01*
X196497783Y-93114347D01*
X196460238Y-93058156D01*
X196341844Y-92939762D01*
X196285650Y-92902215D01*
X196697321Y-92490545D01*
X196546858Y-92381228D01*
X196347004Y-92279398D01*
X196133698Y-92210091D01*
X196133687Y-92210089D01*
X195912151Y-92175000D01*
X195687849Y-92175000D01*
X195466312Y-92210089D01*
X195466301Y-92210091D01*
X195252995Y-92279398D01*
X195053141Y-92381228D01*
X194902677Y-92490545D01*
X195314347Y-92902215D01*
X195258156Y-92939762D01*
X195139762Y-93058156D01*
X195102215Y-93114347D01*
X194690545Y-92702677D01*
X194581228Y-92853141D01*
X194479398Y-93052995D01*
X194410091Y-93266301D01*
X194410089Y-93266312D01*
X194375000Y-93487849D01*
X192145000Y-93487849D01*
X192109910Y-93266312D01*
X192109908Y-93266301D01*
X192040601Y-93052995D01*
X191938769Y-92853136D01*
X191829453Y-92702677D01*
X191417783Y-93114347D01*
X191380238Y-93058156D01*
X191261844Y-92939762D01*
X191205650Y-92902215D01*
X191617321Y-92490545D01*
X191466858Y-92381228D01*
X191267004Y-92279398D01*
X191053698Y-92210091D01*
X191053687Y-92210089D01*
X190832151Y-92175000D01*
X190607849Y-92175000D01*
X190386312Y-92210089D01*
X190386301Y-92210091D01*
X190172995Y-92279398D01*
X189973141Y-92381228D01*
X189822677Y-92490545D01*
X190234347Y-92902215D01*
X190178156Y-92939762D01*
X190059762Y-93058156D01*
X190022215Y-93114347D01*
X189610545Y-92702677D01*
X189501228Y-92853141D01*
X189399398Y-93052995D01*
X189330091Y-93266301D01*
X189330089Y-93266312D01*
X189295000Y-93487849D01*
X164737583Y-93487849D01*
X164727139Y-93472218D01*
X164587781Y-93332860D01*
X164423913Y-93223367D01*
X164241839Y-93147950D01*
X164241829Y-93147947D01*
X164100312Y-93119798D01*
X164048541Y-93109500D01*
X163851459Y-93109500D01*
X163799688Y-93119798D01*
X163658170Y-93147947D01*
X163658160Y-93147950D01*
X163476086Y-93223367D01*
X163312218Y-93332860D01*
X163312217Y-93332862D01*
X163172862Y-93472217D01*
X163172860Y-93472218D01*
X163063367Y-93636086D01*
X162987950Y-93818160D01*
X162987947Y-93818170D01*
X162964970Y-93933687D01*
X162949500Y-94011459D01*
X162410500Y-94011459D01*
X162372051Y-93818165D01*
X162328138Y-93712150D01*
X162296632Y-93636086D01*
X162187139Y-93472218D01*
X162047781Y-93332860D01*
X161883913Y-93223367D01*
X161701839Y-93147950D01*
X161701829Y-93147947D01*
X161560312Y-93119798D01*
X161508541Y-93109500D01*
X161311459Y-93109500D01*
X161259688Y-93119798D01*
X161118170Y-93147947D01*
X161118160Y-93147950D01*
X160936086Y-93223367D01*
X160772218Y-93332860D01*
X160772217Y-93332862D01*
X160632862Y-93472217D01*
X160632860Y-93472218D01*
X160523367Y-93636086D01*
X160447950Y-93818160D01*
X160447947Y-93818170D01*
X160424970Y-93933687D01*
X160409500Y-94011459D01*
X158100500Y-94011459D01*
X158100500Y-92640688D01*
X181049500Y-92640688D01*
X181049500Y-92759311D01*
X181080199Y-92873882D01*
X181080201Y-92873887D01*
X181139508Y-92976609D01*
X181139509Y-92976610D01*
X181139511Y-92976613D01*
X181223387Y-93060489D01*
X181223389Y-93060490D01*
X181223390Y-93060491D01*
X181326112Y-93119798D01*
X181326114Y-93119799D01*
X181326115Y-93119799D01*
X181326117Y-93119800D01*
X181383402Y-93135149D01*
X181440688Y-93150499D01*
X181440689Y-93150500D01*
X181440691Y-93150500D01*
X181559311Y-93150500D01*
X181559311Y-93150499D01*
X181673886Y-93119799D01*
X181776613Y-93060489D01*
X181860489Y-92976613D01*
X181919799Y-92873886D01*
X181950499Y-92759311D01*
X181950500Y-92759311D01*
X181950500Y-92640689D01*
X181950499Y-92640688D01*
X181922958Y-92537901D01*
X181921210Y-92531380D01*
X181919799Y-92526114D01*
X181860489Y-92423387D01*
X181776613Y-92339511D01*
X181776610Y-92339509D01*
X181776609Y-92339508D01*
X181673887Y-92280201D01*
X181673882Y-92280199D01*
X181559311Y-92249500D01*
X181559309Y-92249500D01*
X181440691Y-92249500D01*
X181440689Y-92249500D01*
X181326117Y-92280199D01*
X181326112Y-92280201D01*
X181223390Y-92339508D01*
X181139508Y-92423390D01*
X181080201Y-92526112D01*
X181080199Y-92526117D01*
X181049500Y-92640688D01*
X158100500Y-92640688D01*
X158100500Y-91471459D01*
X160409500Y-91471459D01*
X160409500Y-91668541D01*
X160413530Y-91688799D01*
X160447947Y-91861829D01*
X160447950Y-91861839D01*
X160523367Y-92043913D01*
X160632860Y-92207781D01*
X160772218Y-92347139D01*
X160936086Y-92456632D01*
X161103836Y-92526116D01*
X161118165Y-92532051D01*
X161311459Y-92570500D01*
X161311461Y-92570500D01*
X161508539Y-92570500D01*
X161508541Y-92570500D01*
X161701835Y-92532051D01*
X161883914Y-92456632D01*
X162047782Y-92347139D01*
X162187139Y-92207782D01*
X162296632Y-92043914D01*
X162372051Y-91861835D01*
X162410500Y-91668541D01*
X162410500Y-91471459D01*
X162949500Y-91471459D01*
X162949500Y-91668541D01*
X162953530Y-91688799D01*
X162987947Y-91861829D01*
X162987950Y-91861839D01*
X163063367Y-92043913D01*
X163172860Y-92207781D01*
X163312218Y-92347139D01*
X163476086Y-92456632D01*
X163643836Y-92526116D01*
X163658165Y-92532051D01*
X163851459Y-92570500D01*
X163851461Y-92570500D01*
X164048539Y-92570500D01*
X164048541Y-92570500D01*
X164241835Y-92532051D01*
X164423914Y-92456632D01*
X164587782Y-92347139D01*
X164727139Y-92207782D01*
X164836632Y-92043914D01*
X164912051Y-91861835D01*
X164950500Y-91668541D01*
X164950500Y-91471459D01*
X164912051Y-91278165D01*
X164869111Y-91174499D01*
X164836632Y-91096086D01*
X164727139Y-90932218D01*
X164587781Y-90792860D01*
X164423913Y-90683367D01*
X164241839Y-90607950D01*
X164241829Y-90607947D01*
X164112388Y-90582200D01*
X164048541Y-90569500D01*
X163851459Y-90569500D01*
X163796662Y-90580399D01*
X163658170Y-90607947D01*
X163658160Y-90607950D01*
X163476086Y-90683367D01*
X163312218Y-90792860D01*
X163312217Y-90792862D01*
X163172862Y-90932217D01*
X163172860Y-90932218D01*
X163063367Y-91096086D01*
X162987950Y-91278160D01*
X162987947Y-91278170D01*
X162955850Y-91439535D01*
X162949500Y-91471459D01*
X162410500Y-91471459D01*
X162372051Y-91278165D01*
X162329111Y-91174499D01*
X162296632Y-91096086D01*
X162187139Y-90932218D01*
X162047781Y-90792860D01*
X161883913Y-90683367D01*
X161701839Y-90607950D01*
X161701829Y-90607947D01*
X161572388Y-90582200D01*
X161508541Y-90569500D01*
X161311459Y-90569500D01*
X161256662Y-90580399D01*
X161118170Y-90607947D01*
X161118160Y-90607950D01*
X160936086Y-90683367D01*
X160772218Y-90792860D01*
X160772217Y-90792862D01*
X160632862Y-90932217D01*
X160632860Y-90932218D01*
X160523367Y-91096086D01*
X160447950Y-91278160D01*
X160447947Y-91278170D01*
X160415850Y-91439535D01*
X160409500Y-91471459D01*
X158100500Y-91471459D01*
X158100500Y-88931460D01*
X160409500Y-88931460D01*
X160409500Y-89128539D01*
X160447947Y-89321829D01*
X160447950Y-89321839D01*
X160523367Y-89503913D01*
X160632860Y-89667781D01*
X160772218Y-89807139D01*
X160936086Y-89916632D01*
X161112590Y-89989742D01*
X161118165Y-89992051D01*
X161311459Y-90030500D01*
X161311461Y-90030500D01*
X161508539Y-90030500D01*
X161508541Y-90030500D01*
X161701835Y-89992051D01*
X161883914Y-89916632D01*
X162047782Y-89807139D01*
X162187139Y-89667782D01*
X162296632Y-89503914D01*
X162372051Y-89321835D01*
X162410500Y-89128541D01*
X162410500Y-88931460D01*
X162949500Y-88931460D01*
X162949500Y-89128539D01*
X162987947Y-89321829D01*
X162987950Y-89321839D01*
X163063367Y-89503913D01*
X163172860Y-89667781D01*
X163312218Y-89807139D01*
X163476086Y-89916632D01*
X163652590Y-89989742D01*
X163658165Y-89992051D01*
X163851459Y-90030500D01*
X163851461Y-90030500D01*
X164048539Y-90030500D01*
X164048541Y-90030500D01*
X164241835Y-89992051D01*
X164423914Y-89916632D01*
X164583231Y-89810180D01*
X169199499Y-89810180D01*
X169199499Y-90305275D01*
X169199499Y-90789827D01*
X169200103Y-90792861D01*
X169208231Y-90833724D01*
X169233092Y-90870931D01*
X169233094Y-90870933D01*
X169233097Y-90870937D01*
X169729060Y-91366900D01*
X169766278Y-91391767D01*
X169810180Y-91400500D01*
X170789827Y-91400501D01*
X170833723Y-91391769D01*
X170870937Y-91366903D01*
X171366900Y-90870940D01*
X171391767Y-90833722D01*
X171400500Y-90789820D01*
X171400501Y-89810173D01*
X171398006Y-89797630D01*
X171396031Y-89787699D01*
X171393543Y-89775192D01*
X181750000Y-89775192D01*
X181750000Y-90150000D01*
X182574318Y-90150000D01*
X182550000Y-90240756D01*
X182550000Y-90359244D01*
X182574318Y-90450000D01*
X181750001Y-90450000D01*
X181750001Y-90824820D01*
X181751374Y-90837990D01*
X181751376Y-90837997D01*
X181794296Y-90941616D01*
X181794297Y-90941617D01*
X181802641Y-90951905D01*
X182348097Y-91497358D01*
X182358386Y-91505705D01*
X182462002Y-91548623D01*
X182475192Y-91549999D01*
X182850000Y-91549999D01*
X182850000Y-90725681D01*
X182940756Y-90750000D01*
X183059244Y-90750000D01*
X183150000Y-90725681D01*
X183150000Y-91549999D01*
X183524816Y-91549999D01*
X183524820Y-91549998D01*
X183537990Y-91548625D01*
X183537997Y-91548623D01*
X183641616Y-91505703D01*
X183641617Y-91505702D01*
X183651905Y-91497358D01*
X184197358Y-90951902D01*
X184205705Y-90941613D01*
X184248623Y-90837997D01*
X184250000Y-90824807D01*
X184250000Y-90450000D01*
X183425682Y-90450000D01*
X183450000Y-90359244D01*
X183450000Y-90240756D01*
X183425682Y-90150000D01*
X184249999Y-90150000D01*
X184249999Y-89810180D01*
X184439499Y-89810180D01*
X184439499Y-90305275D01*
X184439499Y-90789827D01*
X184440103Y-90792861D01*
X184448231Y-90833724D01*
X184473092Y-90870931D01*
X184473094Y-90870933D01*
X184473097Y-90870937D01*
X184969060Y-91366900D01*
X185006278Y-91391767D01*
X185050180Y-91400500D01*
X186029827Y-91400501D01*
X186073723Y-91391769D01*
X186110937Y-91366903D01*
X186510356Y-90967484D01*
X192084500Y-90967484D01*
X192084500Y-91152515D01*
X192113444Y-91335261D01*
X192113447Y-91335274D01*
X192170619Y-91511232D01*
X192170621Y-91511236D01*
X192254620Y-91676092D01*
X192254623Y-91676098D01*
X192298095Y-91735932D01*
X192363379Y-91825787D01*
X192494213Y-91956621D01*
X192643904Y-92065378D01*
X192727796Y-92108123D01*
X192808763Y-92149378D01*
X192808767Y-92149380D01*
X192984725Y-92206552D01*
X192984731Y-92206553D01*
X192984736Y-92206555D01*
X193076111Y-92221027D01*
X193167484Y-92235500D01*
X193167486Y-92235500D01*
X193352516Y-92235500D01*
X193425614Y-92223922D01*
X193535264Y-92206555D01*
X193535271Y-92206552D01*
X193535274Y-92206552D01*
X193711232Y-92149380D01*
X193711232Y-92149379D01*
X193711235Y-92149379D01*
X193876096Y-92065378D01*
X194025787Y-91956621D01*
X194156621Y-91825787D01*
X194221905Y-91735932D01*
X203599500Y-91735932D01*
X203599500Y-91864067D01*
X203624497Y-91989739D01*
X203624498Y-91989742D01*
X203655827Y-92065378D01*
X203673535Y-92108127D01*
X203718218Y-92175000D01*
X203741663Y-92210089D01*
X203744724Y-92214669D01*
X203835331Y-92305276D01*
X203941873Y-92376465D01*
X204060256Y-92425501D01*
X204060258Y-92425501D01*
X204060260Y-92425502D01*
X204102903Y-92433984D01*
X204185931Y-92450500D01*
X204185933Y-92450500D01*
X204314067Y-92450500D01*
X204314069Y-92450500D01*
X204439744Y-92425501D01*
X204558127Y-92376465D01*
X204664669Y-92305276D01*
X204755276Y-92214669D01*
X204826465Y-92108127D01*
X204875501Y-91989744D01*
X204900500Y-91864069D01*
X204900500Y-91735931D01*
X204875501Y-91610256D01*
X204826465Y-91491873D01*
X204755276Y-91385331D01*
X204664669Y-91294724D01*
X204558127Y-91223535D01*
X204558124Y-91223533D01*
X204558123Y-91223533D01*
X204439742Y-91174498D01*
X204439739Y-91174497D01*
X204349696Y-91156586D01*
X204314069Y-91149500D01*
X204185931Y-91149500D01*
X204154726Y-91155707D01*
X204060260Y-91174497D01*
X204060257Y-91174498D01*
X203941876Y-91223533D01*
X203835331Y-91294723D01*
X203835330Y-91294725D01*
X203744725Y-91385330D01*
X203744723Y-91385331D01*
X203673533Y-91491876D01*
X203624498Y-91610257D01*
X203624497Y-91610260D01*
X203599500Y-91735932D01*
X194221905Y-91735932D01*
X194265378Y-91676096D01*
X194349379Y-91511235D01*
X194362303Y-91471459D01*
X194406552Y-91335274D01*
X194406552Y-91335271D01*
X194406555Y-91335264D01*
X194435500Y-91152514D01*
X194435500Y-90967486D01*
X194406555Y-90784736D01*
X194406553Y-90784731D01*
X194406552Y-90784725D01*
X194349380Y-90608767D01*
X194349378Y-90608763D01*
X194329372Y-90569500D01*
X194265378Y-90443904D01*
X194252007Y-90425501D01*
X194156624Y-90294217D01*
X194156623Y-90294216D01*
X194156621Y-90294213D01*
X194025787Y-90163379D01*
X194025784Y-90163376D01*
X194025782Y-90163375D01*
X193876098Y-90054623D01*
X193876092Y-90054620D01*
X193711236Y-89970621D01*
X193711232Y-89970619D01*
X193535274Y-89913447D01*
X193535261Y-89913444D01*
X193352516Y-89884500D01*
X193352514Y-89884500D01*
X193167486Y-89884500D01*
X193167484Y-89884500D01*
X192984738Y-89913444D01*
X192984725Y-89913447D01*
X192808767Y-89970619D01*
X192808763Y-89970621D01*
X192643907Y-90054620D01*
X192643901Y-90054623D01*
X192494217Y-90163375D01*
X192363375Y-90294217D01*
X192254623Y-90443901D01*
X192254620Y-90443907D01*
X192170621Y-90608763D01*
X192170619Y-90608767D01*
X192113447Y-90784725D01*
X192113444Y-90784738D01*
X192084500Y-90967484D01*
X186510356Y-90967484D01*
X186606900Y-90870940D01*
X186631767Y-90833722D01*
X186640500Y-90789820D01*
X186640501Y-89810173D01*
X186631769Y-89766277D01*
X186631768Y-89766275D01*
X186606907Y-89729068D01*
X186606904Y-89729065D01*
X186606903Y-89729063D01*
X186110940Y-89233100D01*
X186073722Y-89208233D01*
X186073720Y-89208232D01*
X186029815Y-89199499D01*
X185050173Y-89199499D01*
X185006275Y-89208231D01*
X184969068Y-89233092D01*
X184969065Y-89233095D01*
X184473099Y-89729060D01*
X184473098Y-89729062D01*
X184448233Y-89766277D01*
X184448232Y-89766279D01*
X184439499Y-89810180D01*
X184249999Y-89810180D01*
X184249999Y-89775183D01*
X184249998Y-89775179D01*
X184248625Y-89762009D01*
X184248623Y-89762002D01*
X184205703Y-89658383D01*
X184205702Y-89658382D01*
X184197358Y-89648094D01*
X183651902Y-89102641D01*
X183641613Y-89094294D01*
X183537997Y-89051376D01*
X183524807Y-89050000D01*
X183150000Y-89050000D01*
X183150000Y-89874318D01*
X183059244Y-89850000D01*
X182940756Y-89850000D01*
X182850000Y-89874318D01*
X182850000Y-89050000D01*
X182475183Y-89050000D01*
X182475179Y-89050001D01*
X182462009Y-89051374D01*
X182462002Y-89051376D01*
X182358383Y-89094296D01*
X182358382Y-89094297D01*
X182348094Y-89102641D01*
X181802641Y-89648097D01*
X181794294Y-89658386D01*
X181751376Y-89762002D01*
X181750000Y-89775192D01*
X171393543Y-89775192D01*
X171391769Y-89766278D01*
X171391769Y-89766277D01*
X171391768Y-89766275D01*
X171366907Y-89729068D01*
X171366904Y-89729065D01*
X171366903Y-89729063D01*
X170870940Y-89233100D01*
X170833722Y-89208233D01*
X170833720Y-89208232D01*
X170789815Y-89199499D01*
X169810173Y-89199499D01*
X169766275Y-89208231D01*
X169729068Y-89233092D01*
X169729065Y-89233095D01*
X169233099Y-89729060D01*
X169233098Y-89729062D01*
X169208233Y-89766277D01*
X169208232Y-89766279D01*
X169199499Y-89810180D01*
X164583231Y-89810180D01*
X164587782Y-89807139D01*
X164727139Y-89667782D01*
X164836632Y-89503914D01*
X164912051Y-89321835D01*
X164950500Y-89128541D01*
X164950500Y-88931459D01*
X164912051Y-88738165D01*
X164868138Y-88632150D01*
X164836632Y-88556086D01*
X164727139Y-88392218D01*
X164587781Y-88252860D01*
X164423913Y-88143367D01*
X164241839Y-88067950D01*
X164241829Y-88067947D01*
X164112388Y-88042200D01*
X164048541Y-88029500D01*
X163851459Y-88029500D01*
X163796662Y-88040399D01*
X163658170Y-88067947D01*
X163658160Y-88067950D01*
X163476086Y-88143367D01*
X163312218Y-88252860D01*
X163312217Y-88252862D01*
X163172862Y-88392217D01*
X163172860Y-88392218D01*
X163063367Y-88556086D01*
X162987950Y-88738160D01*
X162987947Y-88738170D01*
X162949500Y-88931460D01*
X162410500Y-88931460D01*
X162410500Y-88931459D01*
X162372051Y-88738165D01*
X162328138Y-88632150D01*
X162296632Y-88556086D01*
X162187139Y-88392218D01*
X162047781Y-88252860D01*
X161883913Y-88143367D01*
X161701839Y-88067950D01*
X161701829Y-88067947D01*
X161572388Y-88042200D01*
X161508541Y-88029500D01*
X161311459Y-88029500D01*
X161256662Y-88040399D01*
X161118170Y-88067947D01*
X161118160Y-88067950D01*
X160936086Y-88143367D01*
X160772218Y-88252860D01*
X160772217Y-88252862D01*
X160632862Y-88392217D01*
X160632860Y-88392218D01*
X160523367Y-88556086D01*
X160447950Y-88738160D01*
X160447947Y-88738170D01*
X160409500Y-88931460D01*
X158100500Y-88931460D01*
X158100500Y-86391460D01*
X160409500Y-86391460D01*
X160409500Y-86588539D01*
X160447947Y-86781829D01*
X160447950Y-86781839D01*
X160523367Y-86963913D01*
X160632860Y-87127781D01*
X160772218Y-87267139D01*
X160936086Y-87376632D01*
X160992284Y-87399910D01*
X161118165Y-87452051D01*
X161311459Y-87490500D01*
X161311461Y-87490500D01*
X161508539Y-87490500D01*
X161508541Y-87490500D01*
X161701835Y-87452051D01*
X161883914Y-87376632D01*
X162047782Y-87267139D01*
X162187139Y-87127782D01*
X162296632Y-86963914D01*
X162372051Y-86781835D01*
X162410500Y-86588541D01*
X162410500Y-86391459D01*
X162372051Y-86198165D01*
X162296632Y-86016086D01*
X162187139Y-85852218D01*
X162047782Y-85712861D01*
X162043241Y-85709827D01*
X162003201Y-85683073D01*
X161916558Y-85625180D01*
X162949500Y-85625180D01*
X162949500Y-87354820D01*
X162958233Y-87398722D01*
X162991496Y-87448504D01*
X163041278Y-87481767D01*
X163085180Y-87490500D01*
X163085181Y-87490500D01*
X164814819Y-87490500D01*
X164814820Y-87490500D01*
X164858722Y-87481767D01*
X164908504Y-87448504D01*
X164941767Y-87398722D01*
X164950500Y-87354820D01*
X164950500Y-87235192D01*
X169050000Y-87235192D01*
X169050000Y-87610000D01*
X169874318Y-87610000D01*
X169850000Y-87700756D01*
X169850000Y-87819244D01*
X169874318Y-87910000D01*
X169050001Y-87910000D01*
X169050001Y-88284820D01*
X169051374Y-88297990D01*
X169051376Y-88297997D01*
X169094296Y-88401616D01*
X169094297Y-88401617D01*
X169102641Y-88411905D01*
X169648097Y-88957358D01*
X169658386Y-88965705D01*
X169762002Y-89008623D01*
X169775192Y-89009999D01*
X170150000Y-89009999D01*
X170150000Y-88185681D01*
X170240756Y-88210000D01*
X170359244Y-88210000D01*
X170450000Y-88185681D01*
X170450000Y-89009999D01*
X170824816Y-89009999D01*
X170824820Y-89009998D01*
X170837990Y-89008625D01*
X170837997Y-89008623D01*
X170941616Y-88965703D01*
X170941617Y-88965702D01*
X170951905Y-88957358D01*
X171497358Y-88411902D01*
X171500646Y-88407849D01*
X189295000Y-88407849D01*
X189295000Y-88632150D01*
X189330089Y-88853687D01*
X189330091Y-88853698D01*
X189399398Y-89067004D01*
X189501228Y-89266858D01*
X189610545Y-89417321D01*
X190022215Y-89005650D01*
X190059762Y-89061844D01*
X190178156Y-89180238D01*
X190234347Y-89217783D01*
X189822677Y-89629453D01*
X189973136Y-89738769D01*
X190172995Y-89840601D01*
X190386301Y-89909908D01*
X190386312Y-89909910D01*
X190607849Y-89945000D01*
X190832151Y-89945000D01*
X191053687Y-89909910D01*
X191053698Y-89909908D01*
X191267004Y-89840601D01*
X191466862Y-89738769D01*
X191617321Y-89629454D01*
X191205651Y-89217784D01*
X191261844Y-89180238D01*
X191380238Y-89061844D01*
X191417784Y-89005651D01*
X191829454Y-89417321D01*
X191938769Y-89266862D01*
X192040601Y-89067004D01*
X192109908Y-88853698D01*
X192109910Y-88853687D01*
X192145000Y-88632150D01*
X192145000Y-88407849D01*
X194375000Y-88407849D01*
X194375000Y-88632150D01*
X194410089Y-88853687D01*
X194410091Y-88853698D01*
X194479398Y-89067004D01*
X194581228Y-89266858D01*
X194690545Y-89417321D01*
X195102215Y-89005650D01*
X195139762Y-89061844D01*
X195258156Y-89180238D01*
X195314347Y-89217783D01*
X194902677Y-89629453D01*
X195053136Y-89738769D01*
X195252995Y-89840601D01*
X195466301Y-89909908D01*
X195466312Y-89909910D01*
X195687849Y-89945000D01*
X195912151Y-89945000D01*
X196133687Y-89909910D01*
X196133698Y-89909908D01*
X196347004Y-89840601D01*
X196546862Y-89738769D01*
X196550767Y-89735932D01*
X203599500Y-89735932D01*
X203599500Y-89864067D01*
X203624497Y-89989739D01*
X203624498Y-89989742D01*
X203651371Y-90054620D01*
X203673535Y-90108127D01*
X203744724Y-90214669D01*
X203835331Y-90305276D01*
X203941873Y-90376465D01*
X204060256Y-90425501D01*
X204060258Y-90425501D01*
X204060260Y-90425502D01*
X204102903Y-90433984D01*
X204185931Y-90450500D01*
X204185933Y-90450500D01*
X204314067Y-90450500D01*
X204314069Y-90450500D01*
X204439744Y-90425501D01*
X204558127Y-90376465D01*
X204664669Y-90305276D01*
X204755276Y-90214669D01*
X204826465Y-90108127D01*
X204875501Y-89989744D01*
X204900500Y-89864069D01*
X204900500Y-89735931D01*
X204875501Y-89610256D01*
X204826465Y-89491873D01*
X204755276Y-89385331D01*
X204664669Y-89294724D01*
X204558127Y-89223535D01*
X204558124Y-89223533D01*
X204558123Y-89223533D01*
X204439742Y-89174498D01*
X204439739Y-89174497D01*
X204349696Y-89156586D01*
X204314069Y-89149500D01*
X204185931Y-89149500D01*
X204154726Y-89155707D01*
X204060260Y-89174497D01*
X204060257Y-89174498D01*
X203941876Y-89223533D01*
X203835331Y-89294723D01*
X203835330Y-89294725D01*
X203744725Y-89385330D01*
X203744723Y-89385331D01*
X203673533Y-89491876D01*
X203624498Y-89610257D01*
X203624497Y-89610260D01*
X203599500Y-89735932D01*
X196550767Y-89735932D01*
X196638172Y-89672429D01*
X196697321Y-89629454D01*
X196285651Y-89217784D01*
X196341844Y-89180238D01*
X196460238Y-89061844D01*
X196497784Y-89005651D01*
X196909454Y-89417321D01*
X197018769Y-89266862D01*
X197120601Y-89067004D01*
X197189908Y-88853698D01*
X197189910Y-88853687D01*
X197225000Y-88632150D01*
X197225000Y-88407849D01*
X197189910Y-88186312D01*
X197189908Y-88186301D01*
X197120601Y-87972995D01*
X197018769Y-87773136D01*
X196991738Y-87735932D01*
X203599500Y-87735932D01*
X203599500Y-87864067D01*
X203624497Y-87989739D01*
X203624498Y-87989742D01*
X203656892Y-88067949D01*
X203673535Y-88108127D01*
X203744724Y-88214669D01*
X203835331Y-88305276D01*
X203941873Y-88376465D01*
X204060256Y-88425501D01*
X204060258Y-88425501D01*
X204060260Y-88425502D01*
X204102903Y-88433984D01*
X204185931Y-88450500D01*
X204185933Y-88450500D01*
X204314067Y-88450500D01*
X204314069Y-88450500D01*
X204439744Y-88425501D01*
X204558127Y-88376465D01*
X204664669Y-88305276D01*
X204755276Y-88214669D01*
X204826465Y-88108127D01*
X204875501Y-87989744D01*
X204900500Y-87864069D01*
X204900500Y-87735931D01*
X204875501Y-87610256D01*
X204826465Y-87491873D01*
X204755276Y-87385331D01*
X204664669Y-87294724D01*
X204558127Y-87223535D01*
X204558124Y-87223533D01*
X204558123Y-87223533D01*
X204439742Y-87174498D01*
X204439739Y-87174497D01*
X204349696Y-87156586D01*
X204314069Y-87149500D01*
X204185931Y-87149500D01*
X204154726Y-87155707D01*
X204060260Y-87174497D01*
X204060257Y-87174498D01*
X203941876Y-87223533D01*
X203835331Y-87294723D01*
X203835330Y-87294725D01*
X203744725Y-87385330D01*
X203744723Y-87385331D01*
X203673533Y-87491876D01*
X203624498Y-87610257D01*
X203624497Y-87610260D01*
X203599500Y-87735932D01*
X196991738Y-87735932D01*
X196909453Y-87622677D01*
X196497783Y-88034347D01*
X196460238Y-87978156D01*
X196341844Y-87859762D01*
X196285650Y-87822215D01*
X196697321Y-87410545D01*
X196546858Y-87301228D01*
X196347004Y-87199398D01*
X196133698Y-87130091D01*
X196133687Y-87130089D01*
X195912151Y-87095000D01*
X195687849Y-87095000D01*
X195466312Y-87130089D01*
X195466301Y-87130091D01*
X195252995Y-87199398D01*
X195053141Y-87301228D01*
X194902677Y-87410545D01*
X195314347Y-87822215D01*
X195258156Y-87859762D01*
X195139762Y-87978156D01*
X195102215Y-88034347D01*
X194690545Y-87622677D01*
X194581228Y-87773141D01*
X194479398Y-87972995D01*
X194410091Y-88186301D01*
X194410089Y-88186312D01*
X194375000Y-88407849D01*
X192145000Y-88407849D01*
X192109910Y-88186312D01*
X192109908Y-88186301D01*
X192040601Y-87972995D01*
X191938769Y-87773136D01*
X191829453Y-87622677D01*
X191417783Y-88034347D01*
X191380238Y-87978156D01*
X191261844Y-87859762D01*
X191205650Y-87822215D01*
X191617321Y-87410545D01*
X191466858Y-87301228D01*
X191267004Y-87199398D01*
X191053698Y-87130091D01*
X191053687Y-87130089D01*
X190832151Y-87095000D01*
X190607849Y-87095000D01*
X190386312Y-87130089D01*
X190386301Y-87130091D01*
X190172995Y-87199398D01*
X189973141Y-87301228D01*
X189822677Y-87410545D01*
X190234347Y-87822215D01*
X190178156Y-87859762D01*
X190059762Y-87978156D01*
X190022215Y-88034347D01*
X189610545Y-87622677D01*
X189501228Y-87773141D01*
X189399398Y-87972995D01*
X189330091Y-88186301D01*
X189330089Y-88186312D01*
X189295000Y-88407849D01*
X171500646Y-88407849D01*
X171505704Y-88401615D01*
X171516055Y-88376625D01*
X171516056Y-88376623D01*
X171548623Y-88297996D01*
X171550000Y-88284807D01*
X171550000Y-87910000D01*
X170725682Y-87910000D01*
X170750000Y-87819244D01*
X170750000Y-87700756D01*
X170725682Y-87610000D01*
X171549999Y-87610000D01*
X171549999Y-87235183D01*
X171549998Y-87235179D01*
X171548625Y-87222009D01*
X171548623Y-87222002D01*
X171505703Y-87118383D01*
X171505702Y-87118382D01*
X171497358Y-87108094D01*
X171477431Y-87088167D01*
X171429952Y-87040688D01*
X184899500Y-87040688D01*
X184899500Y-87159311D01*
X184930199Y-87273882D01*
X184930201Y-87273887D01*
X184989508Y-87376609D01*
X184989509Y-87376610D01*
X184989511Y-87376613D01*
X185073387Y-87460489D01*
X185073389Y-87460490D01*
X185073390Y-87460491D01*
X185125367Y-87490500D01*
X185176114Y-87519799D01*
X185176115Y-87519799D01*
X185176117Y-87519800D01*
X185233402Y-87535149D01*
X185290688Y-87550499D01*
X185290689Y-87550500D01*
X185290691Y-87550500D01*
X185409311Y-87550500D01*
X185409311Y-87550499D01*
X185523886Y-87519799D01*
X185626613Y-87460489D01*
X185710489Y-87376613D01*
X185769799Y-87273886D01*
X185800499Y-87159311D01*
X185800500Y-87159311D01*
X185800500Y-87040689D01*
X185800499Y-87040688D01*
X185769800Y-86926117D01*
X185769798Y-86926112D01*
X185710491Y-86823390D01*
X185710490Y-86823389D01*
X185710489Y-86823387D01*
X185626613Y-86739511D01*
X185626610Y-86739509D01*
X185626609Y-86739508D01*
X185523887Y-86680201D01*
X185523882Y-86680199D01*
X185409311Y-86649500D01*
X185409309Y-86649500D01*
X185290691Y-86649500D01*
X185290689Y-86649500D01*
X185176117Y-86680199D01*
X185176112Y-86680201D01*
X185073390Y-86739508D01*
X184989508Y-86823390D01*
X184930201Y-86926112D01*
X184930199Y-86926117D01*
X184899500Y-87040688D01*
X171429952Y-87040688D01*
X170951902Y-86562641D01*
X170941613Y-86554294D01*
X170837997Y-86511376D01*
X170824807Y-86510000D01*
X170450000Y-86510000D01*
X170450000Y-87334318D01*
X170359244Y-87310000D01*
X170240756Y-87310000D01*
X170150000Y-87334318D01*
X170150000Y-86510000D01*
X169775183Y-86510000D01*
X169775179Y-86510001D01*
X169762009Y-86511374D01*
X169762002Y-86511376D01*
X169658383Y-86554296D01*
X169658382Y-86554297D01*
X169648094Y-86562641D01*
X169102641Y-87108097D01*
X169094294Y-87118386D01*
X169051376Y-87222002D01*
X169050000Y-87235192D01*
X164950500Y-87235192D01*
X164950500Y-85625180D01*
X164941767Y-85581278D01*
X164908504Y-85531496D01*
X164903195Y-85527949D01*
X164858722Y-85498233D01*
X164826749Y-85491873D01*
X164814820Y-85489500D01*
X163085180Y-85489500D01*
X163073251Y-85491873D01*
X163041277Y-85498233D01*
X162991496Y-85531495D01*
X162991495Y-85531496D01*
X162958233Y-85581277D01*
X162958233Y-85581278D01*
X162949500Y-85625180D01*
X161916558Y-85625180D01*
X161883913Y-85603367D01*
X161701839Y-85527950D01*
X161701829Y-85527947D01*
X161552444Y-85498233D01*
X161508541Y-85489500D01*
X161311459Y-85489500D01*
X161267556Y-85498233D01*
X161118170Y-85527947D01*
X161118160Y-85527950D01*
X160936086Y-85603367D01*
X160772218Y-85712860D01*
X160772217Y-85712862D01*
X160632862Y-85852217D01*
X160632860Y-85852218D01*
X160523367Y-86016086D01*
X160447950Y-86198160D01*
X160447947Y-86198170D01*
X160409500Y-86391460D01*
X158100500Y-86391460D01*
X158100500Y-84730180D01*
X169199499Y-84730180D01*
X169199499Y-85223533D01*
X169199499Y-85709827D01*
X169200103Y-85712861D01*
X169208231Y-85753724D01*
X169233092Y-85790931D01*
X169233094Y-85790933D01*
X169233097Y-85790937D01*
X169729060Y-86286900D01*
X169766278Y-86311767D01*
X169810180Y-86320500D01*
X170789827Y-86320501D01*
X170833723Y-86311769D01*
X170870937Y-86286903D01*
X171117152Y-86040688D01*
X185649500Y-86040688D01*
X185649500Y-86159311D01*
X185680199Y-86273882D01*
X185680201Y-86273887D01*
X185739508Y-86376609D01*
X185739509Y-86376610D01*
X185739511Y-86376613D01*
X185823387Y-86460489D01*
X185823389Y-86460490D01*
X185823390Y-86460491D01*
X185911525Y-86511376D01*
X185926114Y-86519799D01*
X185926115Y-86519799D01*
X185926117Y-86519800D01*
X185983402Y-86535149D01*
X186040688Y-86550499D01*
X186040689Y-86550500D01*
X186040691Y-86550500D01*
X186159311Y-86550500D01*
X186159311Y-86550499D01*
X186273886Y-86519799D01*
X186376613Y-86460489D01*
X186460489Y-86376613D01*
X186519799Y-86273886D01*
X186550499Y-86159311D01*
X186550500Y-86159311D01*
X186550500Y-86040689D01*
X186550499Y-86040688D01*
X186519800Y-85926117D01*
X186519798Y-85926112D01*
X186460491Y-85823390D01*
X186460490Y-85823389D01*
X186460489Y-85823387D01*
X186376613Y-85739511D01*
X186376610Y-85739509D01*
X186376609Y-85739508D01*
X186370415Y-85735932D01*
X203599500Y-85735932D01*
X203599500Y-85864067D01*
X203624497Y-85989739D01*
X203624498Y-85989742D01*
X203624499Y-85989744D01*
X203673535Y-86108127D01*
X203744724Y-86214669D01*
X203835331Y-86305276D01*
X203941873Y-86376465D01*
X204060256Y-86425501D01*
X204060258Y-86425501D01*
X204060260Y-86425502D01*
X204102903Y-86433984D01*
X204185931Y-86450500D01*
X204185933Y-86450500D01*
X204314067Y-86450500D01*
X204314069Y-86450500D01*
X204439744Y-86425501D01*
X204558127Y-86376465D01*
X204664669Y-86305276D01*
X204755276Y-86214669D01*
X204826465Y-86108127D01*
X204875501Y-85989744D01*
X204900500Y-85864069D01*
X204900500Y-85735931D01*
X204875501Y-85610256D01*
X204826465Y-85491873D01*
X204755276Y-85385331D01*
X204664669Y-85294724D01*
X204558127Y-85223535D01*
X204558124Y-85223533D01*
X204558123Y-85223533D01*
X204439742Y-85174498D01*
X204439739Y-85174497D01*
X204349696Y-85156586D01*
X204314069Y-85149500D01*
X204185931Y-85149500D01*
X204154726Y-85155707D01*
X204060260Y-85174497D01*
X204060257Y-85174498D01*
X203941876Y-85223533D01*
X203835331Y-85294723D01*
X203835330Y-85294725D01*
X203744725Y-85385330D01*
X203744723Y-85385331D01*
X203673533Y-85491876D01*
X203624498Y-85610257D01*
X203624497Y-85610260D01*
X203599500Y-85735932D01*
X186370415Y-85735932D01*
X186273887Y-85680201D01*
X186273882Y-85680199D01*
X186159311Y-85649500D01*
X186159309Y-85649500D01*
X186040691Y-85649500D01*
X186040689Y-85649500D01*
X185926117Y-85680199D01*
X185926112Y-85680201D01*
X185823390Y-85739508D01*
X185739508Y-85823390D01*
X185680201Y-85926112D01*
X185680199Y-85926117D01*
X185649500Y-86040688D01*
X171117152Y-86040688D01*
X171366900Y-85790940D01*
X171391767Y-85753722D01*
X171400500Y-85709820D01*
X171400501Y-84730173D01*
X171391769Y-84686277D01*
X171391768Y-84686275D01*
X171366907Y-84649068D01*
X171366904Y-84649065D01*
X171366903Y-84649063D01*
X170870940Y-84153100D01*
X170833722Y-84128233D01*
X170833720Y-84128232D01*
X170789815Y-84119499D01*
X169810173Y-84119499D01*
X169766275Y-84128231D01*
X169729068Y-84153092D01*
X169729065Y-84153095D01*
X169233099Y-84649060D01*
X169233098Y-84649062D01*
X169208233Y-84686277D01*
X169208232Y-84686279D01*
X169199499Y-84730180D01*
X158100500Y-84730180D01*
X158100500Y-83254500D01*
X158122174Y-83202174D01*
X158174500Y-83180500D01*
X206426000Y-83180500D01*
X206478326Y-83202174D01*
G37*
%TD.AperFunction*%
%TD*%
M02*
