%TF.GenerationSoftware,KiCad,Pcbnew,9.0.7*%
%TF.CreationDate,2026-01-30T12:17:07+01:00*%
%TF.ProjectId,rfiq-1,72666971-2d31-42e6-9b69-6361645f7063,1a*%
%TF.SameCoordinates,Original*%
%TF.FileFunction,Copper,L3,Inr*%
%TF.FilePolarity,Positive*%
%FSLAX46Y46*%
G04 Gerber Fmt 4.6, Leading zero omitted, Abs format (unit mm)*
G04 Created by KiCad (PCBNEW 9.0.7) date 2026-01-30 12:17:07*
%MOMM*%
%LPD*%
G01*
G04 APERTURE LIST*
G04 Aperture macros list*
%AMOutline5P*
0 Free polygon, 5 corners , with rotation*
0 The origin of the aperture is its center*
0 number of corners: always 5*
0 $1 to $10 corner X, Y*
0 $11 Rotation angle, in degrees counterclockwise*
0 create outline with 5 corners*
4,1,5,$1,$2,$3,$4,$5,$6,$7,$8,$9,$10,$1,$2,$11*%
%AMOutline6P*
0 Free polygon, 6 corners , with rotation*
0 The origin of the aperture is its center*
0 number of corners: always 6*
0 $1 to $12 corner X, Y*
0 $13 Rotation angle, in degrees counterclockwise*
0 create outline with 6 corners*
4,1,6,$1,$2,$3,$4,$5,$6,$7,$8,$9,$10,$11,$12,$1,$2,$13*%
%AMOutline7P*
0 Free polygon, 7 corners , with rotation*
0 The origin of the aperture is its center*
0 number of corners: always 7*
0 $1 to $14 corner X, Y*
0 $15 Rotation angle, in degrees counterclockwise*
0 create outline with 7 corners*
4,1,7,$1,$2,$3,$4,$5,$6,$7,$8,$9,$10,$11,$12,$13,$14,$1,$2,$15*%
%AMOutline8P*
0 Free polygon, 8 corners , with rotation*
0 The origin of the aperture is its center*
0 number of corners: always 8*
0 $1 to $16 corner X, Y*
0 $17 Rotation angle, in degrees counterclockwise*
0 create outline with 8 corners*
4,1,8,$1,$2,$3,$4,$5,$6,$7,$8,$9,$10,$11,$12,$13,$14,$15,$16,$1,$2,$17*%
G04 Aperture macros list end*
%TA.AperFunction,ComponentPad*%
%ADD10Outline8P,-0.950000X0.475000X-0.475000X0.950000X0.475000X0.950000X0.950000X0.475000X0.950000X-0.475000X0.475000X-0.950000X-0.475000X-0.950000X-0.950000X-0.475000X0.000000*%
%TD*%
%TA.AperFunction,ComponentPad*%
%ADD11C,1.000000*%
%TD*%
%TA.AperFunction,ComponentPad*%
%ADD12C,2.050000*%
%TD*%
%TA.AperFunction,ComponentPad*%
%ADD13C,2.250000*%
%TD*%
%TA.AperFunction,ComponentPad*%
%ADD14R,1.700000X1.700000*%
%TD*%
%TA.AperFunction,ComponentPad*%
%ADD15O,1.700000X1.700000*%
%TD*%
%TA.AperFunction,ComponentPad*%
%ADD16C,1.700000*%
%TD*%
%TA.AperFunction,ViaPad*%
%ADD17C,0.600000*%
%TD*%
G04 APERTURE END LIST*
D10*
%TO.N,GND*%
%TO.C,TP10*%
X170300000Y-97920000D03*
%TD*%
%TO.N,/GQ1*%
%TO.C,TP6*%
X170300000Y-90300000D03*
%TD*%
%TO.N,/SCL*%
%TO.C,TP2*%
X170300000Y-100460000D03*
%TD*%
%TO.N,GND*%
%TO.C,TP5*%
X170300000Y-87760000D03*
%TD*%
%TO.N,/IO1*%
%TO.C,TP4*%
X185540000Y-90300000D03*
%TD*%
%TO.N,/GQ2*%
%TO.C,TP7*%
X170300000Y-85220000D03*
%TD*%
%TO.N,GND*%
%TO.C,TP13*%
X183000000Y-90300000D03*
%TD*%
D11*
%TO.N,*%
%TO.C,AE1*%
X209250000Y-83800000D03*
X209250000Y-85800000D03*
X204250000Y-85800000D03*
X209250000Y-87800000D03*
X204250000Y-87800000D03*
X209250000Y-89800000D03*
X204250000Y-89800000D03*
X209250000Y-91800000D03*
X204250000Y-91800000D03*
X209250000Y-93800000D03*
X204250000Y-93800000D03*
X209250000Y-95800000D03*
X204250000Y-95800000D03*
X209250000Y-97800000D03*
X204250000Y-97800000D03*
X209250000Y-99800000D03*
X204250000Y-99800000D03*
X209250000Y-101800000D03*
X204250000Y-101800000D03*
%TD*%
D10*
%TO.N,/SDA*%
%TO.C,TP1*%
X170300000Y-95380000D03*
%TD*%
D12*
%TO.N,/ANT_CONN*%
%TO.C,J1*%
X193260000Y-91060000D03*
D13*
%TO.N,GND*%
X195800000Y-88520000D03*
X190720000Y-88520000D03*
X195800000Y-93600000D03*
X190720000Y-93600000D03*
%TD*%
D14*
%TO.N,/IO1*%
%TO.C,J4*%
X163950000Y-86490000D03*
D15*
%TO.N,unconnected-(J4-Pin_2-Pad2)*%
X163950000Y-89030000D03*
%TO.N,/SCL*%
X163950000Y-91570000D03*
%TO.N,/SDA*%
X163950000Y-94110000D03*
%TO.N,GND*%
X163950000Y-96650000D03*
D16*
%TO.N,VCC*%
X163950000Y-99190000D03*
%TO.N,unconnected-(J4-Pin_7-Pad7)*%
X161410000Y-86490000D03*
D15*
%TO.N,unconnected-(J4-Pin_8-Pad8)*%
X161410000Y-89030000D03*
%TO.N,unconnected-(J4-Pin_9-Pad9)*%
X161410000Y-91570000D03*
%TO.N,unconnected-(J4-Pin_10-Pad10)*%
X161410000Y-94110000D03*
%TO.N,GND*%
X161410000Y-96650000D03*
%TO.N,VBAT*%
X161410000Y-99190000D03*
%TD*%
D17*
%TO.N,GND*%
X181900000Y-84500000D03*
X177900000Y-91800000D03*
X182100000Y-86950000D03*
X174950000Y-86200000D03*
X197200000Y-97675000D03*
X197200000Y-100225000D03*
X171900000Y-87500000D03*
X190500000Y-86200000D03*
X197200000Y-92550000D03*
X177750000Y-87650000D03*
X194000000Y-88300000D03*
X178500000Y-92200000D03*
X192300000Y-84600000D03*
X186500000Y-85425000D03*
X177100000Y-86300000D03*
X190800000Y-83500000D03*
X177300000Y-88100000D03*
X197200000Y-95725000D03*
X175400000Y-84750000D03*
X180500000Y-98000000D03*
X171900000Y-89600000D03*
X193375000Y-102150000D03*
X177300000Y-88700000D03*
X177300000Y-84200000D03*
X182300000Y-99800000D03*
X177300000Y-91400000D03*
X171900000Y-88200000D03*
X189900000Y-85700000D03*
X182400000Y-84100000D03*
X197200000Y-98325000D03*
X197200000Y-97025000D03*
X173100000Y-86900000D03*
X192600000Y-88300000D03*
X195925000Y-102150000D03*
X197200000Y-98975000D03*
X197200000Y-102150000D03*
X188600000Y-84000000D03*
X172350000Y-84800000D03*
X197200000Y-95100000D03*
X193000000Y-85600000D03*
X197200000Y-91275000D03*
X185100000Y-84150000D03*
X172800000Y-86200000D03*
X173900000Y-84700000D03*
X187200000Y-85425000D03*
X175400000Y-83500000D03*
X184400000Y-84200000D03*
X178350000Y-84850000D03*
X191450000Y-102150000D03*
X190800000Y-84190000D03*
X178400000Y-90100000D03*
X195150000Y-85750000D03*
X184150000Y-86900000D03*
X193400000Y-86300000D03*
X181450000Y-85650000D03*
X192600000Y-89000000D03*
X182750000Y-86950000D03*
X192100000Y-102150000D03*
X194400000Y-85200000D03*
X189200000Y-85700000D03*
X188900000Y-98000000D03*
X195950000Y-85350000D03*
X187150000Y-89200000D03*
X192600000Y-87600000D03*
X177000000Y-92000000D03*
X177250000Y-83600000D03*
X183100000Y-84150000D03*
X192250000Y-85350000D03*
X183750000Y-84200000D03*
X172000000Y-86400000D03*
X190800000Y-102150000D03*
X178700000Y-91600000D03*
X185750000Y-84150000D03*
X173300000Y-91200000D03*
X197200000Y-90650000D03*
X194000000Y-89000000D03*
X184450000Y-87500000D03*
X194025000Y-102150000D03*
X196100000Y-86050000D03*
X187200000Y-84200000D03*
X194550000Y-84600000D03*
X175700000Y-86300000D03*
X197200000Y-99600000D03*
X187900000Y-84200000D03*
X180700000Y-87300000D03*
X194675000Y-102150000D03*
X188000000Y-85425000D03*
X174500000Y-91700000D03*
X190100000Y-102150000D03*
X193850000Y-85550000D03*
X189300000Y-84000000D03*
X177200000Y-89800000D03*
X181900000Y-85150000D03*
X175000000Y-92200000D03*
X197200000Y-85450000D03*
X178400000Y-87750000D03*
X194000000Y-87600000D03*
X176400000Y-92200000D03*
X177050000Y-84800000D03*
X186400000Y-101500000D03*
X172700000Y-90700000D03*
X175700000Y-92200000D03*
X192800000Y-85000000D03*
X195200000Y-84550000D03*
X173900000Y-91400000D03*
X183450000Y-86900000D03*
X179200000Y-87600000D03*
X181400000Y-87000000D03*
X172000000Y-90300000D03*
X197200000Y-94475000D03*
X173800000Y-83500000D03*
X175300000Y-88100000D03*
X179400000Y-85600000D03*
X192725000Y-102150000D03*
X180100000Y-91400000D03*
X175300000Y-88800000D03*
X197200000Y-101500000D03*
X196550000Y-85550000D03*
X174300000Y-86100000D03*
X173700000Y-86400000D03*
X193900000Y-86900000D03*
X197200000Y-100850000D03*
X197200000Y-96375000D03*
X178600000Y-88600000D03*
X197200000Y-91900000D03*
X190600000Y-85500000D03*
X178600000Y-99400000D03*
X195800000Y-84750000D03*
X192200000Y-87000000D03*
X179500000Y-91900000D03*
X188500000Y-85700000D03*
X172000000Y-85400000D03*
X161400000Y-101800000D03*
X179400000Y-86910000D03*
X171900000Y-88900000D03*
X195300000Y-102150000D03*
X179100000Y-84950000D03*
X177600000Y-84900000D03*
X180000000Y-90100000D03*
X190000000Y-84000000D03*
X186500000Y-84200000D03*
X197200000Y-90025000D03*
X172400000Y-87000000D03*
X173900000Y-99800000D03*
X196550000Y-102150000D03*
X180000000Y-87200000D03*
X191500000Y-87000000D03*
X190800000Y-86900000D03*
%TO.N,VCC*%
X163975000Y-100800000D03*
X179675000Y-99400000D03*
X187975000Y-99400000D03*
X175000000Y-94000000D03*
X183400000Y-94000000D03*
X185350000Y-87100000D03*
%TO.N,/IO1*%
X186100000Y-86100000D03*
%TO.N,/SDA*%
X172100000Y-99900000D03*
X172100000Y-101300000D03*
%TO.N,/SCL*%
X177400000Y-101500000D03*
X176100000Y-100500000D03*
%TO.N,/GQ1*%
X181500000Y-92700000D03*
%TD*%
%TA.AperFunction,Conductor*%
%TO.N,VCC*%
G36*
X185627826Y-86021674D02*
G01*
X185649500Y-86074000D01*
X185649500Y-86159311D01*
X185680199Y-86273882D01*
X185680201Y-86273887D01*
X185739508Y-86376609D01*
X185739509Y-86376610D01*
X185739511Y-86376613D01*
X185823387Y-86460489D01*
X185823389Y-86460490D01*
X185823390Y-86460491D01*
X185922641Y-86517794D01*
X185926114Y-86519799D01*
X185926115Y-86519799D01*
X185926117Y-86519800D01*
X185983402Y-86535149D01*
X186040688Y-86550499D01*
X186040689Y-86550500D01*
X186040691Y-86550500D01*
X186159311Y-86550500D01*
X186159311Y-86550499D01*
X186273886Y-86519799D01*
X186376613Y-86460489D01*
X186460489Y-86376613D01*
X186519799Y-86273886D01*
X186550499Y-86159311D01*
X186550500Y-86159311D01*
X186550500Y-86074000D01*
X186572174Y-86021674D01*
X186624500Y-86000000D01*
X187269348Y-86000000D01*
X187321674Y-86021674D01*
X187778326Y-86478326D01*
X187800000Y-86530652D01*
X187800000Y-92200000D01*
X189378326Y-93778326D01*
X189400000Y-93830652D01*
X189400000Y-97688854D01*
X189378326Y-97741180D01*
X189326000Y-97762854D01*
X189273674Y-97741180D01*
X189261915Y-97725856D01*
X189260491Y-97723390D01*
X189260490Y-97723389D01*
X189260489Y-97723387D01*
X189176613Y-97639511D01*
X189176610Y-97639509D01*
X189176609Y-97639508D01*
X189073887Y-97580201D01*
X189073882Y-97580199D01*
X188959311Y-97549500D01*
X188959309Y-97549500D01*
X188840691Y-97549500D01*
X188840689Y-97549500D01*
X188726117Y-97580199D01*
X188726112Y-97580201D01*
X188623390Y-97639508D01*
X188539508Y-97723390D01*
X188480201Y-97826112D01*
X188480199Y-97826117D01*
X188449500Y-97940688D01*
X188449500Y-98059311D01*
X188480199Y-98173882D01*
X188480201Y-98173887D01*
X188539508Y-98276609D01*
X188539509Y-98276610D01*
X188539511Y-98276613D01*
X188623387Y-98360489D01*
X188726114Y-98419799D01*
X188726115Y-98419799D01*
X188726117Y-98419800D01*
X188783402Y-98435149D01*
X188840688Y-98450499D01*
X188840689Y-98450500D01*
X188840691Y-98450500D01*
X188959311Y-98450500D01*
X188959311Y-98450499D01*
X189073886Y-98419799D01*
X189176613Y-98360489D01*
X189260489Y-98276613D01*
X189260492Y-98276608D01*
X189261913Y-98274148D01*
X189263051Y-98273274D01*
X189263447Y-98272759D01*
X189263584Y-98272864D01*
X189306845Y-98239667D01*
X189362997Y-98247058D01*
X189397478Y-98291990D01*
X189400000Y-98311145D01*
X189400000Y-102369357D01*
X189378338Y-102421671D01*
X189322221Y-102477814D01*
X189269900Y-102499500D01*
X158174500Y-102499500D01*
X158122174Y-102477826D01*
X158100500Y-102425500D01*
X158100500Y-101740688D01*
X160949500Y-101740688D01*
X160949500Y-101859311D01*
X160980199Y-101973882D01*
X160980201Y-101973887D01*
X161039508Y-102076609D01*
X161039509Y-102076610D01*
X161039511Y-102076613D01*
X161123387Y-102160489D01*
X161226114Y-102219799D01*
X161226115Y-102219799D01*
X161226117Y-102219800D01*
X161283402Y-102235149D01*
X161340688Y-102250499D01*
X161340689Y-102250500D01*
X161340691Y-102250500D01*
X161459311Y-102250500D01*
X161459311Y-102250499D01*
X161573886Y-102219799D01*
X161676613Y-102160489D01*
X161760489Y-102076613D01*
X161819799Y-101973886D01*
X161850499Y-101859311D01*
X161850500Y-101859311D01*
X161850500Y-101740689D01*
X161850499Y-101740688D01*
X161819800Y-101626117D01*
X161819798Y-101626112D01*
X161760491Y-101523390D01*
X161760490Y-101523389D01*
X161760489Y-101523387D01*
X161676613Y-101439511D01*
X161676610Y-101439509D01*
X161676609Y-101439508D01*
X161573887Y-101380201D01*
X161573882Y-101380199D01*
X161459311Y-101349500D01*
X161459309Y-101349500D01*
X161340691Y-101349500D01*
X161340689Y-101349500D01*
X161226117Y-101380199D01*
X161226112Y-101380201D01*
X161123390Y-101439508D01*
X161039508Y-101523390D01*
X160980201Y-101626112D01*
X160980199Y-101626117D01*
X160949500Y-101740688D01*
X158100500Y-101740688D01*
X158100500Y-99091460D01*
X160409500Y-99091460D01*
X160409500Y-99288539D01*
X160447947Y-99481829D01*
X160447950Y-99481839D01*
X160523367Y-99663913D01*
X160632860Y-99827781D01*
X160772218Y-99967139D01*
X160936086Y-100076632D01*
X161087890Y-100139511D01*
X161118165Y-100152051D01*
X161311459Y-100190500D01*
X161311461Y-100190500D01*
X161508539Y-100190500D01*
X161508541Y-100190500D01*
X161701835Y-100152051D01*
X161883914Y-100076632D01*
X162047782Y-99967139D01*
X162187139Y-99827782D01*
X162296632Y-99663914D01*
X162372051Y-99481835D01*
X162410500Y-99288541D01*
X162410500Y-99099491D01*
X162800000Y-99099491D01*
X162800000Y-99280508D01*
X162828316Y-99459289D01*
X162828319Y-99459302D01*
X162884251Y-99631443D01*
X162966433Y-99792732D01*
X162966433Y-99792733D01*
X163037423Y-99890442D01*
X163506328Y-99421537D01*
X163549901Y-99497007D01*
X163642993Y-99590099D01*
X163718461Y-99633670D01*
X163249556Y-100102575D01*
X163347266Y-100173566D01*
X163508556Y-100255748D01*
X163508555Y-100255748D01*
X163680697Y-100311680D01*
X163680710Y-100311683D01*
X163859491Y-100340000D01*
X164040509Y-100340000D01*
X164219289Y-100311683D01*
X164219302Y-100311680D01*
X164391443Y-100255748D01*
X164552729Y-100173568D01*
X164650442Y-100102575D01*
X164518047Y-99970180D01*
X169199499Y-99970180D01*
X169199499Y-100949826D01*
X169208231Y-100993724D01*
X169233092Y-101030931D01*
X169233094Y-101030933D01*
X169233097Y-101030937D01*
X169729060Y-101526900D01*
X169766278Y-101551767D01*
X169810180Y-101560500D01*
X170789827Y-101560501D01*
X170833723Y-101551769D01*
X170870937Y-101526903D01*
X171157152Y-101240688D01*
X171649500Y-101240688D01*
X171649500Y-101359311D01*
X171680199Y-101473882D01*
X171680201Y-101473887D01*
X171739508Y-101576609D01*
X171739509Y-101576610D01*
X171739511Y-101576613D01*
X171823387Y-101660489D01*
X171823389Y-101660490D01*
X171823390Y-101660491D01*
X171890955Y-101699500D01*
X171926114Y-101719799D01*
X171926115Y-101719799D01*
X171926117Y-101719800D01*
X171983402Y-101735149D01*
X172040688Y-101750499D01*
X172040689Y-101750500D01*
X172040691Y-101750500D01*
X172159311Y-101750500D01*
X172159311Y-101750499D01*
X172273886Y-101719799D01*
X172376613Y-101660489D01*
X172460489Y-101576613D01*
X172519799Y-101473886D01*
X172528694Y-101440689D01*
X172528694Y-101440688D01*
X176949500Y-101440688D01*
X176949500Y-101559311D01*
X176980199Y-101673882D01*
X176980201Y-101673887D01*
X177039508Y-101776609D01*
X177039509Y-101776610D01*
X177039511Y-101776613D01*
X177123387Y-101860489D01*
X177123389Y-101860490D01*
X177123390Y-101860491D01*
X177226112Y-101919798D01*
X177226114Y-101919799D01*
X177226115Y-101919799D01*
X177226117Y-101919800D01*
X177283402Y-101935149D01*
X177340688Y-101950499D01*
X177340689Y-101950500D01*
X177340691Y-101950500D01*
X177459311Y-101950500D01*
X177459311Y-101950499D01*
X177573886Y-101919799D01*
X177676613Y-101860489D01*
X177760489Y-101776613D01*
X177819799Y-101673886D01*
X177850499Y-101559311D01*
X177850500Y-101559311D01*
X177850500Y-101440689D01*
X177850499Y-101440688D01*
X185949500Y-101440688D01*
X185949500Y-101559311D01*
X185980199Y-101673882D01*
X185980201Y-101673887D01*
X186039508Y-101776609D01*
X186039509Y-101776610D01*
X186039511Y-101776613D01*
X186123387Y-101860489D01*
X186123389Y-101860490D01*
X186123390Y-101860491D01*
X186226112Y-101919798D01*
X186226114Y-101919799D01*
X186226115Y-101919799D01*
X186226117Y-101919800D01*
X186283402Y-101935149D01*
X186340688Y-101950499D01*
X186340689Y-101950500D01*
X186340691Y-101950500D01*
X186459311Y-101950500D01*
X186459311Y-101950499D01*
X186573886Y-101919799D01*
X186676613Y-101860489D01*
X186760489Y-101776613D01*
X186819799Y-101673886D01*
X186850499Y-101559311D01*
X186850500Y-101559311D01*
X186850500Y-101440689D01*
X186850499Y-101440688D01*
X186819800Y-101326117D01*
X186819798Y-101326112D01*
X186760491Y-101223390D01*
X186760490Y-101223389D01*
X186760489Y-101223387D01*
X186676613Y-101139511D01*
X186676610Y-101139509D01*
X186676609Y-101139508D01*
X186573887Y-101080201D01*
X186573882Y-101080199D01*
X186459311Y-101049500D01*
X186459309Y-101049500D01*
X186340691Y-101049500D01*
X186340689Y-101049500D01*
X186226117Y-101080199D01*
X186226112Y-101080201D01*
X186123390Y-101139508D01*
X186039508Y-101223390D01*
X185980201Y-101326112D01*
X185980199Y-101326117D01*
X185949500Y-101440688D01*
X177850499Y-101440688D01*
X177819800Y-101326117D01*
X177819798Y-101326112D01*
X177760491Y-101223390D01*
X177760490Y-101223389D01*
X177760489Y-101223387D01*
X177676613Y-101139511D01*
X177676610Y-101139509D01*
X177676609Y-101139508D01*
X177573887Y-101080201D01*
X177573882Y-101080199D01*
X177459311Y-101049500D01*
X177459309Y-101049500D01*
X177340691Y-101049500D01*
X177340689Y-101049500D01*
X177226117Y-101080199D01*
X177226112Y-101080201D01*
X177123390Y-101139508D01*
X177039508Y-101223390D01*
X176980201Y-101326112D01*
X176980199Y-101326117D01*
X176949500Y-101440688D01*
X172528694Y-101440688D01*
X172535124Y-101416695D01*
X172535125Y-101416688D01*
X172544902Y-101380201D01*
X172550500Y-101359309D01*
X172550500Y-101240691D01*
X172550500Y-101240689D01*
X172550499Y-101240688D01*
X172519800Y-101126117D01*
X172519798Y-101126112D01*
X172460491Y-101023390D01*
X172460490Y-101023389D01*
X172460489Y-101023387D01*
X172376613Y-100939511D01*
X172376610Y-100939509D01*
X172376609Y-100939508D01*
X172273887Y-100880201D01*
X172273882Y-100880199D01*
X172159311Y-100849500D01*
X172159309Y-100849500D01*
X172040691Y-100849500D01*
X172040689Y-100849500D01*
X171926117Y-100880199D01*
X171926112Y-100880201D01*
X171823390Y-100939508D01*
X171739508Y-101023390D01*
X171680201Y-101126112D01*
X171680199Y-101126117D01*
X171649500Y-101240688D01*
X171157152Y-101240688D01*
X171366900Y-101030940D01*
X171391767Y-100993722D01*
X171400500Y-100949820D01*
X171400500Y-100776609D01*
X171400501Y-100440688D01*
X175649500Y-100440688D01*
X175649500Y-100559311D01*
X175680199Y-100673882D01*
X175680201Y-100673887D01*
X175739508Y-100776609D01*
X175739509Y-100776610D01*
X175739511Y-100776613D01*
X175823387Y-100860489D01*
X175823389Y-100860490D01*
X175823390Y-100860491D01*
X175926112Y-100919798D01*
X175926114Y-100919799D01*
X175926115Y-100919799D01*
X175926117Y-100919800D01*
X175983402Y-100935149D01*
X176040688Y-100950499D01*
X176040689Y-100950500D01*
X176040691Y-100950500D01*
X176159311Y-100950500D01*
X176159311Y-100950499D01*
X176273886Y-100919799D01*
X176376613Y-100860489D01*
X176460489Y-100776613D01*
X176519799Y-100673886D01*
X176550499Y-100559311D01*
X176550500Y-100559311D01*
X176550500Y-100440689D01*
X176550499Y-100440688D01*
X176519800Y-100326117D01*
X176519798Y-100326112D01*
X176460491Y-100223390D01*
X176460490Y-100223389D01*
X176460489Y-100223387D01*
X176376613Y-100139511D01*
X176376610Y-100139509D01*
X176376609Y-100139508D01*
X176273887Y-100080201D01*
X176273882Y-100080199D01*
X176159311Y-100049500D01*
X176159309Y-100049500D01*
X176040691Y-100049500D01*
X176040689Y-100049500D01*
X175926117Y-100080199D01*
X175926112Y-100080201D01*
X175823390Y-100139508D01*
X175739508Y-100223390D01*
X175680201Y-100326112D01*
X175680199Y-100326117D01*
X175649500Y-100440688D01*
X171400501Y-100440688D01*
X171400501Y-100435841D01*
X171400501Y-99970173D01*
X171391769Y-99926278D01*
X171391769Y-99926277D01*
X171391768Y-99926275D01*
X171366907Y-99889068D01*
X171366905Y-99889066D01*
X171366903Y-99889063D01*
X171318528Y-99840688D01*
X171649500Y-99840688D01*
X171649500Y-99959311D01*
X171680199Y-100073882D01*
X171680201Y-100073887D01*
X171739508Y-100176609D01*
X171739509Y-100176610D01*
X171739511Y-100176613D01*
X171823387Y-100260489D01*
X171823389Y-100260490D01*
X171823390Y-100260491D01*
X171912057Y-100311683D01*
X171926114Y-100319799D01*
X171926115Y-100319799D01*
X171926117Y-100319800D01*
X171949693Y-100326117D01*
X172040688Y-100350499D01*
X172040689Y-100350500D01*
X172040691Y-100350500D01*
X172159311Y-100350500D01*
X172159311Y-100350499D01*
X172273886Y-100319799D01*
X172376613Y-100260489D01*
X172460489Y-100176613D01*
X172519799Y-100073886D01*
X172550500Y-99959309D01*
X172550500Y-99840691D01*
X172550500Y-99840689D01*
X172550499Y-99840688D01*
X172527538Y-99754994D01*
X172523705Y-99740688D01*
X173449500Y-99740688D01*
X173449500Y-99859311D01*
X173480199Y-99973882D01*
X173480201Y-99973887D01*
X173539508Y-100076609D01*
X173539509Y-100076610D01*
X173539511Y-100076613D01*
X173623387Y-100160489D01*
X173623389Y-100160490D01*
X173623390Y-100160491D01*
X173646040Y-100173568D01*
X173726114Y-100219799D01*
X173726115Y-100219799D01*
X173726117Y-100219800D01*
X173783402Y-100235149D01*
X173840688Y-100250499D01*
X173840689Y-100250500D01*
X173840691Y-100250500D01*
X173959311Y-100250500D01*
X173959311Y-100250499D01*
X174073886Y-100219799D01*
X174176613Y-100160489D01*
X174260489Y-100076613D01*
X174319799Y-99973886D01*
X174350499Y-99859311D01*
X174350500Y-99859311D01*
X174350500Y-99740689D01*
X174350499Y-99740688D01*
X174346593Y-99726112D01*
X174319799Y-99626114D01*
X174299006Y-99590099D01*
X174260491Y-99523390D01*
X174260490Y-99523389D01*
X174260489Y-99523387D01*
X174176613Y-99439511D01*
X174176610Y-99439509D01*
X174176609Y-99439508D01*
X174108053Y-99399927D01*
X174073887Y-99380201D01*
X174073882Y-99380199D01*
X173959311Y-99349500D01*
X173959309Y-99349500D01*
X173840691Y-99349500D01*
X173840689Y-99349500D01*
X173726117Y-99380199D01*
X173726112Y-99380201D01*
X173623390Y-99439508D01*
X173539508Y-99523390D01*
X173480201Y-99626112D01*
X173480199Y-99626117D01*
X173449500Y-99740688D01*
X172523705Y-99740688D01*
X172519800Y-99726117D01*
X172519798Y-99726112D01*
X172460491Y-99623390D01*
X172460490Y-99623389D01*
X172460489Y-99623387D01*
X172376613Y-99539511D01*
X172376610Y-99539509D01*
X172376609Y-99539508D01*
X172273887Y-99480201D01*
X172273882Y-99480199D01*
X172159311Y-99449500D01*
X172159309Y-99449500D01*
X172040691Y-99449500D01*
X172040689Y-99449500D01*
X171926117Y-99480199D01*
X171926112Y-99480201D01*
X171823390Y-99539508D01*
X171739508Y-99623390D01*
X171680201Y-99726112D01*
X171680199Y-99726117D01*
X171649500Y-99840688D01*
X171318528Y-99840688D01*
X170870940Y-99393100D01*
X170833722Y-99368233D01*
X170833720Y-99368232D01*
X170789815Y-99359499D01*
X169810173Y-99359499D01*
X169766275Y-99368231D01*
X169729068Y-99393092D01*
X169729065Y-99393095D01*
X169233099Y-99889060D01*
X169233098Y-99889062D01*
X169208233Y-99926277D01*
X169208232Y-99926279D01*
X169199499Y-99970180D01*
X164518047Y-99970180D01*
X164181538Y-99633670D01*
X164257007Y-99590099D01*
X164350099Y-99497007D01*
X164393671Y-99421538D01*
X164862575Y-99890442D01*
X164933568Y-99792729D01*
X165015748Y-99631443D01*
X165071680Y-99459302D01*
X165071683Y-99459289D01*
X165090468Y-99340688D01*
X178149500Y-99340688D01*
X178149500Y-99459311D01*
X178180199Y-99573882D01*
X178180201Y-99573887D01*
X178239508Y-99676609D01*
X178239509Y-99676610D01*
X178239511Y-99676613D01*
X178323387Y-99760489D01*
X178323389Y-99760490D01*
X178323390Y-99760491D01*
X178426112Y-99819798D01*
X178426114Y-99819799D01*
X178426115Y-99819799D01*
X178426117Y-99819800D01*
X178483402Y-99835149D01*
X178540688Y-99850499D01*
X178540689Y-99850500D01*
X178540691Y-99850500D01*
X178659311Y-99850500D01*
X178659311Y-99850499D01*
X178773886Y-99819799D01*
X178876613Y-99760489D01*
X178896414Y-99740688D01*
X181849500Y-99740688D01*
X181849500Y-99859311D01*
X181880199Y-99973882D01*
X181880201Y-99973887D01*
X181939508Y-100076609D01*
X181939509Y-100076610D01*
X181939511Y-100076613D01*
X182023387Y-100160489D01*
X182023389Y-100160490D01*
X182023390Y-100160491D01*
X182046040Y-100173568D01*
X182126114Y-100219799D01*
X182126115Y-100219799D01*
X182126117Y-100219800D01*
X182183402Y-100235149D01*
X182240688Y-100250499D01*
X182240689Y-100250500D01*
X182240691Y-100250500D01*
X182359311Y-100250500D01*
X182359311Y-100250499D01*
X182473886Y-100219799D01*
X182576613Y-100160489D01*
X182660489Y-100076613D01*
X182719799Y-99973886D01*
X182750499Y-99859311D01*
X182750500Y-99859311D01*
X182750500Y-99740689D01*
X182750499Y-99740688D01*
X182746593Y-99726112D01*
X182719799Y-99626114D01*
X182699006Y-99590099D01*
X182660491Y-99523390D01*
X182660490Y-99523389D01*
X182660489Y-99523387D01*
X182576613Y-99439511D01*
X182576610Y-99439509D01*
X182576609Y-99439508D01*
X182473887Y-99380201D01*
X182473882Y-99380199D01*
X182359311Y-99349500D01*
X182359309Y-99349500D01*
X182240691Y-99349500D01*
X182240689Y-99349500D01*
X182126117Y-99380199D01*
X182126112Y-99380201D01*
X182023390Y-99439508D01*
X181939508Y-99523390D01*
X181880201Y-99626112D01*
X181880199Y-99626117D01*
X181849500Y-99740688D01*
X178896414Y-99740688D01*
X178960489Y-99676613D01*
X179019799Y-99573886D01*
X179050499Y-99459311D01*
X179050500Y-99459311D01*
X179050500Y-99340689D01*
X179050499Y-99340688D01*
X179019800Y-99226117D01*
X179019798Y-99226112D01*
X178960491Y-99123390D01*
X178960490Y-99123389D01*
X178960489Y-99123387D01*
X178876613Y-99039511D01*
X178876610Y-99039509D01*
X178876609Y-99039508D01*
X178773887Y-98980201D01*
X178773882Y-98980199D01*
X178659311Y-98949500D01*
X178659309Y-98949500D01*
X178540691Y-98949500D01*
X178540689Y-98949500D01*
X178426117Y-98980199D01*
X178426112Y-98980201D01*
X178323390Y-99039508D01*
X178239508Y-99123390D01*
X178180201Y-99226112D01*
X178180199Y-99226117D01*
X178149500Y-99340688D01*
X165090468Y-99340688D01*
X165100000Y-99280508D01*
X165100000Y-99099491D01*
X165071683Y-98920710D01*
X165071680Y-98920697D01*
X165015748Y-98748556D01*
X164933566Y-98587267D01*
X164933566Y-98587266D01*
X164862575Y-98489556D01*
X164393670Y-98958460D01*
X164350099Y-98882993D01*
X164257007Y-98789901D01*
X164181537Y-98746328D01*
X164650442Y-98277423D01*
X164552733Y-98206433D01*
X164391443Y-98124251D01*
X164391444Y-98124251D01*
X164219302Y-98068319D01*
X164219289Y-98068316D01*
X164040509Y-98040000D01*
X163859491Y-98040000D01*
X163680710Y-98068316D01*
X163680697Y-98068319D01*
X163508556Y-98124251D01*
X163347271Y-98206431D01*
X163249556Y-98277424D01*
X163718461Y-98746329D01*
X163642993Y-98789901D01*
X163549901Y-98882993D01*
X163506329Y-98958461D01*
X163037424Y-98489556D01*
X162966431Y-98587271D01*
X162884251Y-98748556D01*
X162828319Y-98920697D01*
X162828316Y-98920710D01*
X162800000Y-99099491D01*
X162410500Y-99099491D01*
X162410500Y-99091459D01*
X162372051Y-98898165D01*
X162296632Y-98716086D01*
X162187139Y-98552218D01*
X162047782Y-98412861D01*
X162043241Y-98409827D01*
X161979380Y-98367156D01*
X161883913Y-98303367D01*
X161701839Y-98227950D01*
X161701829Y-98227947D01*
X161572388Y-98202200D01*
X161508541Y-98189500D01*
X161311459Y-98189500D01*
X161256662Y-98200399D01*
X161118170Y-98227947D01*
X161118160Y-98227950D01*
X160936086Y-98303367D01*
X160772218Y-98412860D01*
X160772217Y-98412862D01*
X160632862Y-98552217D01*
X160632860Y-98552218D01*
X160523367Y-98716086D01*
X160447950Y-98898160D01*
X160447947Y-98898170D01*
X160409500Y-99091460D01*
X158100500Y-99091460D01*
X158100500Y-96551460D01*
X160409500Y-96551460D01*
X160409500Y-96748539D01*
X160447947Y-96941829D01*
X160447950Y-96941839D01*
X160523367Y-97123913D01*
X160523368Y-97123914D01*
X160632861Y-97287782D01*
X160772218Y-97427139D01*
X160936086Y-97536632D01*
X161118165Y-97612051D01*
X161311459Y-97650500D01*
X161311461Y-97650500D01*
X161508539Y-97650500D01*
X161508541Y-97650500D01*
X161701835Y-97612051D01*
X161883914Y-97536632D01*
X162047782Y-97427139D01*
X162187139Y-97287782D01*
X162296632Y-97123914D01*
X162372051Y-96941835D01*
X162410500Y-96748541D01*
X162410500Y-96551460D01*
X162949500Y-96551460D01*
X162949500Y-96748539D01*
X162987947Y-96941829D01*
X162987950Y-96941839D01*
X163063367Y-97123913D01*
X163063368Y-97123914D01*
X163172861Y-97287782D01*
X163312218Y-97427139D01*
X163476086Y-97536632D01*
X163658165Y-97612051D01*
X163851459Y-97650500D01*
X163851461Y-97650500D01*
X164048539Y-97650500D01*
X164048541Y-97650500D01*
X164241835Y-97612051D01*
X164423914Y-97536632D01*
X164583231Y-97430180D01*
X169199499Y-97430180D01*
X169199499Y-97940688D01*
X169199499Y-98409827D01*
X169201483Y-98419799D01*
X169208231Y-98453724D01*
X169233092Y-98490931D01*
X169233094Y-98490933D01*
X169233097Y-98490937D01*
X169729060Y-98986900D01*
X169766278Y-99011767D01*
X169810180Y-99020500D01*
X170789827Y-99020501D01*
X170833723Y-99011769D01*
X170870937Y-98986903D01*
X171366900Y-98490940D01*
X171391767Y-98453722D01*
X171400500Y-98409820D01*
X171400500Y-97940688D01*
X180049500Y-97940688D01*
X180049500Y-98059311D01*
X180080199Y-98173882D01*
X180080201Y-98173887D01*
X180139508Y-98276609D01*
X180139509Y-98276610D01*
X180139511Y-98276613D01*
X180223387Y-98360489D01*
X180326114Y-98419799D01*
X180326115Y-98419799D01*
X180326117Y-98419800D01*
X180383402Y-98435149D01*
X180440688Y-98450499D01*
X180440689Y-98450500D01*
X180440691Y-98450500D01*
X180559311Y-98450500D01*
X180559311Y-98450499D01*
X180673886Y-98419799D01*
X180776613Y-98360489D01*
X180860489Y-98276613D01*
X180919799Y-98173886D01*
X180950499Y-98059311D01*
X180950500Y-98059311D01*
X180950500Y-97940689D01*
X180950499Y-97940688D01*
X180919800Y-97826117D01*
X180919798Y-97826112D01*
X180860491Y-97723390D01*
X180860490Y-97723389D01*
X180860489Y-97723387D01*
X180776613Y-97639511D01*
X180776610Y-97639509D01*
X180776609Y-97639508D01*
X180673887Y-97580201D01*
X180673882Y-97580199D01*
X180559311Y-97549500D01*
X180559309Y-97549500D01*
X180440691Y-97549500D01*
X180440689Y-97549500D01*
X180326117Y-97580199D01*
X180326112Y-97580201D01*
X180223390Y-97639508D01*
X180139508Y-97723390D01*
X180080201Y-97826112D01*
X180080199Y-97826117D01*
X180049500Y-97940688D01*
X171400500Y-97940688D01*
X171400501Y-97430173D01*
X171391769Y-97386277D01*
X171391768Y-97386275D01*
X171366907Y-97349068D01*
X171366904Y-97349065D01*
X171366903Y-97349063D01*
X170870940Y-96853100D01*
X170833722Y-96828233D01*
X170833720Y-96828232D01*
X170789815Y-96819499D01*
X169810173Y-96819499D01*
X169766275Y-96828231D01*
X169729068Y-96853092D01*
X169729065Y-96853095D01*
X169233099Y-97349060D01*
X169233098Y-97349062D01*
X169208233Y-97386277D01*
X169208232Y-97386279D01*
X169199499Y-97430180D01*
X164583231Y-97430180D01*
X164587782Y-97427139D01*
X164727139Y-97287782D01*
X164836632Y-97123914D01*
X164912051Y-96941835D01*
X164950500Y-96748541D01*
X164950500Y-96551459D01*
X164912051Y-96358165D01*
X164836632Y-96176086D01*
X164727139Y-96012218D01*
X164587782Y-95872861D01*
X164583242Y-95869827D01*
X164423913Y-95763367D01*
X164241839Y-95687950D01*
X164241829Y-95687947D01*
X164112388Y-95662200D01*
X164048541Y-95649500D01*
X163851459Y-95649500D01*
X163796662Y-95660399D01*
X163658170Y-95687947D01*
X163658160Y-95687950D01*
X163476086Y-95763367D01*
X163312218Y-95872860D01*
X163312217Y-95872862D01*
X163172862Y-96012217D01*
X163172860Y-96012218D01*
X163063367Y-96176086D01*
X162987950Y-96358160D01*
X162987947Y-96358170D01*
X162949500Y-96551460D01*
X162410500Y-96551460D01*
X162410500Y-96551459D01*
X162372051Y-96358165D01*
X162296632Y-96176086D01*
X162187139Y-96012218D01*
X162047782Y-95872861D01*
X162043242Y-95869827D01*
X161883913Y-95763367D01*
X161701839Y-95687950D01*
X161701829Y-95687947D01*
X161572388Y-95662200D01*
X161508541Y-95649500D01*
X161311459Y-95649500D01*
X161256662Y-95660399D01*
X161118170Y-95687947D01*
X161118160Y-95687950D01*
X160936086Y-95763367D01*
X160772218Y-95872860D01*
X160772217Y-95872862D01*
X160632862Y-96012217D01*
X160632860Y-96012218D01*
X160523367Y-96176086D01*
X160447950Y-96358160D01*
X160447947Y-96358170D01*
X160409500Y-96551460D01*
X158100500Y-96551460D01*
X158100500Y-95630152D01*
X158122174Y-95577826D01*
X158178326Y-95521674D01*
X158230652Y-95500000D01*
X164900000Y-95500000D01*
X165400000Y-95000000D01*
X165400000Y-94890180D01*
X169199499Y-94890180D01*
X169199499Y-95500000D01*
X169199499Y-95869827D01*
X169200103Y-95872861D01*
X169208231Y-95913724D01*
X169233092Y-95950931D01*
X169233094Y-95950933D01*
X169233097Y-95950937D01*
X169729060Y-96446900D01*
X169766278Y-96471767D01*
X169810180Y-96480500D01*
X170789827Y-96480501D01*
X170833723Y-96471769D01*
X170870937Y-96446903D01*
X171366900Y-95950940D01*
X171391767Y-95913722D01*
X171400500Y-95869820D01*
X171400501Y-94890173D01*
X171391769Y-94846277D01*
X171390310Y-94844093D01*
X171366907Y-94809068D01*
X171366904Y-94809065D01*
X171366903Y-94809063D01*
X170870940Y-94313100D01*
X170833722Y-94288233D01*
X170833720Y-94288232D01*
X170789815Y-94279499D01*
X169810173Y-94279499D01*
X169766275Y-94288231D01*
X169729068Y-94313092D01*
X169729065Y-94313095D01*
X169233099Y-94809060D01*
X169233098Y-94809062D01*
X169208233Y-94846277D01*
X169208232Y-94846279D01*
X169199499Y-94890180D01*
X165400000Y-94890180D01*
X165400000Y-93030652D01*
X165421674Y-92978326D01*
X165878326Y-92521674D01*
X165930652Y-92500000D01*
X174632246Y-92500000D01*
X174684571Y-92521673D01*
X174723387Y-92560489D01*
X174723389Y-92560490D01*
X174723390Y-92560491D01*
X174779960Y-92593152D01*
X174826114Y-92619799D01*
X174826115Y-92619799D01*
X174826117Y-92619800D01*
X174883402Y-92635149D01*
X174940688Y-92650499D01*
X174940689Y-92650500D01*
X174940691Y-92650500D01*
X175059311Y-92650500D01*
X175059311Y-92650499D01*
X175173886Y-92619799D01*
X175276613Y-92560489D01*
X175297675Y-92539426D01*
X175350000Y-92517753D01*
X175402324Y-92539426D01*
X175423387Y-92560489D01*
X175423389Y-92560490D01*
X175423390Y-92560491D01*
X175479960Y-92593152D01*
X175526114Y-92619799D01*
X175526115Y-92619799D01*
X175526117Y-92619800D01*
X175583402Y-92635149D01*
X175640688Y-92650499D01*
X175640689Y-92650500D01*
X175640691Y-92650500D01*
X175759311Y-92650500D01*
X175759311Y-92650499D01*
X175873886Y-92619799D01*
X175976613Y-92560489D01*
X175997675Y-92539426D01*
X176050000Y-92517753D01*
X176102324Y-92539426D01*
X176123387Y-92560489D01*
X176123389Y-92560490D01*
X176123390Y-92560491D01*
X176179960Y-92593152D01*
X176226114Y-92619799D01*
X176226115Y-92619799D01*
X176226117Y-92619800D01*
X176283402Y-92635149D01*
X176340688Y-92650499D01*
X176340689Y-92650500D01*
X176340691Y-92650500D01*
X176459311Y-92650500D01*
X176459311Y-92650499D01*
X176573886Y-92619799D01*
X176676613Y-92560489D01*
X176715429Y-92521673D01*
X176767754Y-92500000D01*
X178132246Y-92500000D01*
X178184571Y-92521673D01*
X178223387Y-92560489D01*
X178223389Y-92560490D01*
X178223390Y-92560491D01*
X178279960Y-92593152D01*
X178326114Y-92619799D01*
X178326115Y-92619799D01*
X178326117Y-92619800D01*
X178383402Y-92635149D01*
X178440688Y-92650499D01*
X178440689Y-92650500D01*
X178440691Y-92650500D01*
X178559311Y-92650500D01*
X178559311Y-92650499D01*
X178673886Y-92619799D01*
X178776613Y-92560489D01*
X178815429Y-92521673D01*
X178867754Y-92500000D01*
X180990759Y-92500000D01*
X181043085Y-92521674D01*
X181064759Y-92574000D01*
X181062238Y-92593152D01*
X181049500Y-92640691D01*
X181049500Y-92759311D01*
X181080199Y-92873882D01*
X181080201Y-92873887D01*
X181139508Y-92976609D01*
X181139509Y-92976610D01*
X181139511Y-92976613D01*
X181223387Y-93060489D01*
X181223389Y-93060490D01*
X181223390Y-93060491D01*
X181309796Y-93110378D01*
X181326114Y-93119799D01*
X181326115Y-93119799D01*
X181326117Y-93119800D01*
X181383402Y-93135149D01*
X181440688Y-93150499D01*
X181440689Y-93150500D01*
X181440691Y-93150500D01*
X181559311Y-93150500D01*
X181559311Y-93150499D01*
X181673886Y-93119799D01*
X181776613Y-93060489D01*
X181860489Y-92976613D01*
X181919799Y-92873886D01*
X181950499Y-92759311D01*
X181950500Y-92759311D01*
X181950500Y-92640691D01*
X181937762Y-92593152D01*
X181945155Y-92537000D01*
X181990089Y-92502521D01*
X182009241Y-92500000D01*
X183400000Y-92500000D01*
X183800000Y-92100000D01*
X183800000Y-91168492D01*
X183821674Y-91116166D01*
X183943427Y-90994413D01*
X184066900Y-90870940D01*
X184091767Y-90833722D01*
X184100500Y-90789820D01*
X184100501Y-89810180D01*
X184439499Y-89810180D01*
X184439499Y-90789826D01*
X184448231Y-90833724D01*
X184473092Y-90870931D01*
X184473094Y-90870933D01*
X184473097Y-90870937D01*
X184969060Y-91366900D01*
X185006278Y-91391767D01*
X185050180Y-91400500D01*
X186029827Y-91400501D01*
X186073723Y-91391769D01*
X186110937Y-91366903D01*
X186606900Y-90870940D01*
X186631767Y-90833722D01*
X186640500Y-90789820D01*
X186640501Y-89810173D01*
X186631769Y-89766277D01*
X186614673Y-89740691D01*
X186606907Y-89729068D01*
X186606904Y-89729065D01*
X186606903Y-89729063D01*
X186110940Y-89233100D01*
X186073722Y-89208233D01*
X186029820Y-89199500D01*
X186029815Y-89199499D01*
X185050173Y-89199499D01*
X185006275Y-89208231D01*
X184969068Y-89233092D01*
X184969065Y-89233095D01*
X184473099Y-89729060D01*
X184473098Y-89729062D01*
X184448233Y-89766277D01*
X184448232Y-89766279D01*
X184439499Y-89810180D01*
X184100501Y-89810180D01*
X184100501Y-89810173D01*
X184091769Y-89766277D01*
X184074673Y-89740691D01*
X184066907Y-89729068D01*
X184066904Y-89729065D01*
X184066903Y-89729063D01*
X183821674Y-89483834D01*
X183800000Y-89431508D01*
X183800000Y-89140688D01*
X186699500Y-89140688D01*
X186699500Y-89259311D01*
X186730199Y-89373882D01*
X186730201Y-89373887D01*
X186789508Y-89476609D01*
X186789509Y-89476610D01*
X186789511Y-89476613D01*
X186873387Y-89560489D01*
X186976114Y-89619799D01*
X186976115Y-89619799D01*
X186976117Y-89619800D01*
X187033402Y-89635149D01*
X187090688Y-89650499D01*
X187090689Y-89650500D01*
X187090691Y-89650500D01*
X187209311Y-89650500D01*
X187209311Y-89650499D01*
X187323886Y-89619799D01*
X187426613Y-89560489D01*
X187510489Y-89476613D01*
X187569799Y-89373886D01*
X187600499Y-89259311D01*
X187600500Y-89259311D01*
X187600500Y-89140689D01*
X187600499Y-89140688D01*
X187569800Y-89026117D01*
X187569798Y-89026112D01*
X187510491Y-88923390D01*
X187510490Y-88923389D01*
X187510489Y-88923387D01*
X187426613Y-88839511D01*
X187426610Y-88839509D01*
X187426609Y-88839508D01*
X187323887Y-88780201D01*
X187323882Y-88780199D01*
X187209311Y-88749500D01*
X187209309Y-88749500D01*
X187090691Y-88749500D01*
X187090689Y-88749500D01*
X186976117Y-88780199D01*
X186976112Y-88780201D01*
X186873390Y-88839508D01*
X186789508Y-88923390D01*
X186730201Y-89026112D01*
X186730199Y-89026117D01*
X186699500Y-89140688D01*
X183800000Y-89140688D01*
X183800000Y-87346291D01*
X183821674Y-87293965D01*
X183874000Y-87272291D01*
X183910998Y-87282204D01*
X183959989Y-87310489D01*
X183975245Y-87319297D01*
X184009723Y-87364231D01*
X184009723Y-87402534D01*
X183999500Y-87440690D01*
X183999500Y-87559311D01*
X184030199Y-87673882D01*
X184030201Y-87673887D01*
X184089508Y-87776609D01*
X184089509Y-87776610D01*
X184089511Y-87776613D01*
X184173387Y-87860489D01*
X184173389Y-87860490D01*
X184173390Y-87860491D01*
X184201314Y-87876613D01*
X184276114Y-87919799D01*
X184276115Y-87919799D01*
X184276117Y-87919800D01*
X184333402Y-87935149D01*
X184390688Y-87950499D01*
X184390689Y-87950500D01*
X184390691Y-87950500D01*
X184509311Y-87950500D01*
X184509311Y-87950499D01*
X184623886Y-87919799D01*
X184726613Y-87860489D01*
X184810489Y-87776613D01*
X184869799Y-87673886D01*
X184900499Y-87559311D01*
X184900500Y-87559311D01*
X184900500Y-87440689D01*
X184900499Y-87440688D01*
X184869800Y-87326117D01*
X184869798Y-87326112D01*
X184810491Y-87223390D01*
X184810490Y-87223389D01*
X184810489Y-87223387D01*
X184726613Y-87139511D01*
X184726610Y-87139509D01*
X184726609Y-87139508D01*
X184624754Y-87080702D01*
X184590275Y-87035768D01*
X184590275Y-86997464D01*
X184600500Y-86959309D01*
X184600500Y-86840691D01*
X184600500Y-86840689D01*
X184600499Y-86840688D01*
X184569800Y-86726117D01*
X184569798Y-86726112D01*
X184510491Y-86623390D01*
X184510490Y-86623389D01*
X184510489Y-86623387D01*
X184426613Y-86539511D01*
X184426610Y-86539509D01*
X184426609Y-86539508D01*
X184323887Y-86480201D01*
X184323882Y-86480199D01*
X184209311Y-86449500D01*
X184209309Y-86449500D01*
X184090691Y-86449500D01*
X184090689Y-86449500D01*
X183976117Y-86480199D01*
X183976111Y-86480202D01*
X183911000Y-86517794D01*
X183891847Y-86520315D01*
X183874000Y-86527708D01*
X183864760Y-86523880D01*
X183854847Y-86525186D01*
X183839522Y-86513426D01*
X183821674Y-86506034D01*
X183817847Y-86496795D01*
X183809914Y-86490708D01*
X183800000Y-86453708D01*
X183800000Y-86330652D01*
X183821674Y-86278326D01*
X184078326Y-86021674D01*
X184130652Y-86000000D01*
X185575500Y-86000000D01*
X185627826Y-86021674D01*
G37*
%TD.AperFunction*%
%TD*%
M02*
