%TF.GenerationSoftware,KiCad,Pcbnew,9.0.7*%
%TF.CreationDate,2026-01-30T12:17:07+01:00*%
%TF.ProjectId,rfiq-1,72666971-2d31-42e6-9b69-6361645f7063,1a*%
%TF.SameCoordinates,Original*%
%TF.FileFunction,Soldermask,Top*%
%TF.FilePolarity,Negative*%
%FSLAX46Y46*%
G04 Gerber Fmt 4.6, Leading zero omitted, Abs format (unit mm)*
G04 Created by KiCad (PCBNEW 9.0.7) date 2026-01-30 12:17:07*
%MOMM*%
%LPD*%
G01*
G04 APERTURE LIST*
G04 Aperture macros list*
%AMRoundRect*
0 Rectangle with rounded corners*
0 $1 Rounding radius*
0 $2 $3 $4 $5 $6 $7 $8 $9 X,Y pos of 4 corners*
0 Add a 4 corners polygon primitive as box body*
4,1,4,$2,$3,$4,$5,$6,$7,$8,$9,$2,$3,0*
0 Add four circle primitives for the rounded corners*
1,1,$1+$1,$2,$3*
1,1,$1+$1,$4,$5*
1,1,$1+$1,$6,$7*
1,1,$1+$1,$8,$9*
0 Add four rect primitives between the rounded corners*
20,1,$1+$1,$2,$3,$4,$5,0*
20,1,$1+$1,$4,$5,$6,$7,0*
20,1,$1+$1,$6,$7,$8,$9,0*
20,1,$1+$1,$8,$9,$2,$3,0*%
%AMOutline5P*
0 Free polygon, 5 corners , with rotation*
0 The origin of the aperture is its center*
0 number of corners: always 5*
0 $1 to $10 corner X, Y*
0 $11 Rotation angle, in degrees counterclockwise*
0 create outline with 5 corners*
4,1,5,$1,$2,$3,$4,$5,$6,$7,$8,$9,$10,$1,$2,$11*%
%AMOutline6P*
0 Free polygon, 6 corners , with rotation*
0 The origin of the aperture is its center*
0 number of corners: always 6*
0 $1 to $12 corner X, Y*
0 $13 Rotation angle, in degrees counterclockwise*
0 create outline with 6 corners*
4,1,6,$1,$2,$3,$4,$5,$6,$7,$8,$9,$10,$11,$12,$1,$2,$13*%
%AMOutline7P*
0 Free polygon, 7 corners , with rotation*
0 The origin of the aperture is its center*
0 number of corners: always 7*
0 $1 to $14 corner X, Y*
0 $15 Rotation angle, in degrees counterclockwise*
0 create outline with 7 corners*
4,1,7,$1,$2,$3,$4,$5,$6,$7,$8,$9,$10,$11,$12,$13,$14,$1,$2,$15*%
%AMOutline8P*
0 Free polygon, 8 corners , with rotation*
0 The origin of the aperture is its center*
0 number of corners: always 8*
0 $1 to $16 corner X, Y*
0 $17 Rotation angle, in degrees counterclockwise*
0 create outline with 8 corners*
4,1,8,$1,$2,$3,$4,$5,$6,$7,$8,$9,$10,$11,$12,$13,$14,$15,$16,$1,$2,$17*%
G04 Aperture macros list end*
%ADD10RoundRect,0.100000X0.275000X0.100000X-0.275000X0.100000X-0.275000X-0.100000X0.275000X-0.100000X0*%
%ADD11Outline8P,-0.950000X0.475000X-0.475000X0.950000X0.475000X0.950000X0.950000X0.475000X0.950000X-0.475000X0.475000X-0.950000X-0.475000X-0.950000X-0.950000X-0.475000X0.000000*%
%ADD12Outline8P,-0.500000X0.250000X-0.250000X0.500000X0.250000X0.500000X0.500000X0.250000X0.500000X-0.250000X0.250000X-0.500000X-0.250000X-0.500000X-0.500000X-0.250000X0.000000*%
%ADD13RoundRect,0.135000X0.185000X-0.135000X0.185000X0.135000X-0.185000X0.135000X-0.185000X-0.135000X0*%
%ADD14RoundRect,0.147500X0.147500X0.172500X-0.147500X0.172500X-0.147500X-0.172500X0.147500X-0.172500X0*%
%ADD15RoundRect,0.225000X-0.225000X-0.250000X0.225000X-0.250000X0.225000X0.250000X-0.225000X0.250000X0*%
%ADD16RoundRect,0.140000X-0.170000X0.140000X-0.170000X-0.140000X0.170000X-0.140000X0.170000X0.140000X0*%
%ADD17RoundRect,0.200000X-0.275000X0.200000X-0.275000X-0.200000X0.275000X-0.200000X0.275000X0.200000X0*%
%ADD18RoundRect,0.100000X-0.225000X-0.100000X0.225000X-0.100000X0.225000X0.100000X-0.225000X0.100000X0*%
%ADD19RoundRect,0.225000X0.225000X0.250000X-0.225000X0.250000X-0.225000X-0.250000X0.225000X-0.250000X0*%
%ADD20RoundRect,0.135000X0.135000X0.185000X-0.135000X0.185000X-0.135000X-0.185000X0.135000X-0.185000X0*%
%ADD21C,2.050000*%
%ADD22C,2.250000*%
%ADD23RoundRect,0.049500X0.115500X-0.155500X0.115500X0.155500X-0.115500X0.155500X-0.115500X-0.155500X0*%
%ADD24R,1.700000X1.700000*%
%ADD25O,1.700000X1.700000*%
%ADD26C,1.700000*%
%ADD27RoundRect,0.100000X0.100000X-0.275000X0.100000X0.275000X-0.100000X0.275000X-0.100000X-0.275000X0*%
%ADD28RoundRect,0.135000X-0.135000X-0.185000X0.135000X-0.185000X0.135000X0.185000X-0.135000X0.185000X0*%
%ADD29RoundRect,0.087500X0.200000X0.087500X-0.200000X0.087500X-0.200000X-0.087500X0.200000X-0.087500X0*%
%ADD30R,1.450000X1.740000*%
G04 APERTURE END LIST*
D10*
%TO.C,Q2*%
X174625000Y-85450000D03*
X174625000Y-84150000D03*
X172975000Y-84150000D03*
X172975000Y-85450000D03*
%TD*%
D11*
%TO.C,TP10*%
X170300000Y-97920000D03*
%TD*%
%TO.C,TP6*%
X170300000Y-90300000D03*
%TD*%
D12*
%TO.C,TP8*%
X176300000Y-88500000D03*
%TD*%
D13*
%TO.C,R10*%
X191450000Y-86110000D03*
X191450000Y-85090000D03*
%TD*%
D11*
%TO.C,TP2*%
X170300000Y-100460000D03*
%TD*%
D14*
%TO.C,L1*%
X195615000Y-83800000D03*
X194645000Y-83800000D03*
%TD*%
D11*
%TO.C,TP5*%
X170300000Y-87760000D03*
%TD*%
D12*
%TO.C,TP3*%
X176300000Y-84100000D03*
%TD*%
D15*
%TO.C,C1*%
X185350000Y-88200000D03*
X186900000Y-88200000D03*
%TD*%
D16*
%TO.C,C4*%
X193630000Y-83800000D03*
X193630000Y-84760000D03*
%TD*%
D11*
%TO.C,TP4*%
X185540000Y-90300000D03*
%TD*%
D17*
%TO.C,R9*%
X186200000Y-93975000D03*
X186200000Y-95625000D03*
%TD*%
D18*
%TO.C,U5*%
X177750000Y-97350000D03*
X177750000Y-98000000D03*
X177750000Y-98650000D03*
X179650000Y-98650000D03*
X179650000Y-98000000D03*
X179650000Y-97350000D03*
%TD*%
D17*
%TO.C,R1*%
X176300000Y-85475000D03*
X176300000Y-87125000D03*
%TD*%
D11*
%TO.C,TP7*%
X170300000Y-85220000D03*
%TD*%
D17*
%TO.C,R2*%
X183400000Y-98150000D03*
X183400000Y-99800000D03*
%TD*%
%TO.C,R7*%
X177900000Y-93975000D03*
X177900000Y-95625000D03*
%TD*%
D11*
%TO.C,TP13*%
X183000000Y-90300000D03*
%TD*%
D17*
%TO.C,R8*%
X188000000Y-93975000D03*
X188000000Y-95625000D03*
%TD*%
D19*
%TO.C,C10*%
X187975000Y-100400000D03*
X186425000Y-100400000D03*
%TD*%
D17*
%TO.C,R5*%
X179700000Y-93975000D03*
X179700000Y-95625000D03*
%TD*%
D11*
%TO.C,TP1*%
X170300000Y-95380000D03*
%TD*%
D20*
%TO.C,R12*%
X189710000Y-84800000D03*
X188690000Y-84800000D03*
%TD*%
D12*
%TO.C,TP9*%
X180600000Y-86300000D03*
%TD*%
D17*
%TO.C,R6*%
X175000000Y-98150000D03*
X175000000Y-99800000D03*
%TD*%
D21*
%TO.C,J1*%
X193260000Y-91060000D03*
D22*
X195800000Y-88520000D03*
X190720000Y-88520000D03*
X195800000Y-93600000D03*
X190720000Y-93600000D03*
%TD*%
D19*
%TO.C,C11*%
X179675000Y-100400000D03*
X178125000Y-100400000D03*
%TD*%
D23*
%TO.C,U3*%
X178691500Y-86960000D03*
X178695000Y-86300000D03*
X178695000Y-85640000D03*
X177705000Y-85640000D03*
X177705000Y-86300000D03*
X177705000Y-86960000D03*
%TD*%
D24*
%TO.C,J4*%
X163950000Y-86490000D03*
D25*
X163950000Y-89030000D03*
X163950000Y-91570000D03*
X163950000Y-94110000D03*
X163950000Y-96650000D03*
D26*
X163950000Y-99190000D03*
X161410000Y-86490000D03*
D25*
X161410000Y-89030000D03*
X161410000Y-91570000D03*
X161410000Y-94110000D03*
X161410000Y-96650000D03*
X161410000Y-99190000D03*
%TD*%
D12*
%TO.C,TP14*%
X180600000Y-84700000D03*
%TD*%
D17*
%TO.C,R4*%
X175000000Y-94950000D03*
X175000000Y-96600000D03*
%TD*%
%TO.C,R3*%
X183400000Y-94950000D03*
X183400000Y-96600000D03*
%TD*%
D27*
%TO.C,Q1*%
X177950000Y-90925000D03*
X179250000Y-90925000D03*
X179250000Y-89275000D03*
X177950000Y-89275000D03*
%TD*%
D28*
%TO.C,R11*%
X191530000Y-83800000D03*
X192550000Y-83800000D03*
%TD*%
D16*
%TO.C,C3*%
X196630000Y-83800000D03*
X196630000Y-84760000D03*
%TD*%
D19*
%TO.C,C2*%
X163975000Y-101800000D03*
X162425000Y-101800000D03*
%TD*%
D29*
%TO.C,U1*%
X185277500Y-86315000D03*
X185277500Y-85815000D03*
X185277500Y-85315000D03*
X185277500Y-84815000D03*
X182702500Y-84815000D03*
X182702500Y-85315000D03*
X182702500Y-85815000D03*
X182702500Y-86315000D03*
D30*
X183990000Y-85565000D03*
%TD*%
D18*
%TO.C,U2*%
X186150000Y-97350000D03*
X186150000Y-98000000D03*
X186150000Y-98650000D03*
X188050000Y-98650000D03*
X188050000Y-98000000D03*
X188050000Y-97350000D03*
%TD*%
M02*
