%TF.GenerationSoftware,KiCad,Pcbnew,9.0.7*%
%TF.CreationDate,2026-01-30T12:17:08+01:00*%
%TF.ProjectId,rfiq-1,72666971-2d31-42e6-9b69-6361645f7063,1a*%
%TF.SameCoordinates,Original*%
%TF.FileFunction,Drillmap*%
%TF.FilePolarity,Positive*%
%FSLAX45Y45*%
G04 Gerber Fmt 4.5, Leading zero omitted, Abs format (unit mm)*
G04 Created by KiCad (PCBNEW 9.0.7) date 2026-01-30 12:17:08*
%MOMM*%
%LPD*%
G01*
G04 APERTURE LIST*
%ADD10C,0.100000*%
%ADD11C,0.200000*%
%ADD12C,0.150000*%
%ADD13C,0.170000*%
G04 APERTURE END LIST*
D10*
X15760000Y-8268000D02*
X21036000Y-8268000D01*
X21036000Y-10300000D01*
X15760000Y-10300000D01*
X15760000Y-8268000D01*
D11*
D10*
X16125000Y-10165000D02*
X16155000Y-10195000D01*
X16155000Y-10165000D02*
X16125000Y-10195000D01*
X16382500Y-10065000D02*
X16412500Y-10095000D01*
X16412500Y-10065000D02*
X16382500Y-10095000D01*
X17175000Y-8735000D02*
X17205000Y-8765000D01*
X17205000Y-8735000D02*
X17175000Y-8765000D01*
X17175000Y-8805000D02*
X17205000Y-8835000D01*
X17205000Y-8805000D02*
X17175000Y-8835000D01*
X17175000Y-8875000D02*
X17205000Y-8905000D01*
X17205000Y-8875000D02*
X17175000Y-8905000D01*
X17175000Y-8945000D02*
X17205000Y-8975000D01*
X17205000Y-8945000D02*
X17175000Y-8975000D01*
X17185000Y-8525000D02*
X17215000Y-8555000D01*
X17215000Y-8525000D02*
X17185000Y-8555000D01*
X17185000Y-8625000D02*
X17215000Y-8655000D01*
X17215000Y-8625000D02*
X17185000Y-8655000D01*
X17185000Y-9015000D02*
X17215000Y-9045000D01*
X17215000Y-9015000D02*
X17185000Y-9045000D01*
X17195000Y-9975000D02*
X17225000Y-10005000D01*
X17225000Y-9975000D02*
X17195000Y-10005000D01*
X17195000Y-10115000D02*
X17225000Y-10145000D01*
X17225000Y-10115000D02*
X17195000Y-10145000D01*
X17220000Y-8465000D02*
X17250000Y-8495000D01*
X17250000Y-8465000D02*
X17220000Y-8495000D01*
X17225000Y-8685000D02*
X17255000Y-8715000D01*
X17255000Y-8685000D02*
X17225000Y-8715000D01*
X17255000Y-9055000D02*
X17285000Y-9085000D01*
X17285000Y-9055000D02*
X17255000Y-9085000D01*
X17265000Y-8605000D02*
X17295000Y-8635000D01*
X17295000Y-8605000D02*
X17265000Y-8635000D01*
X17295000Y-8675000D02*
X17325000Y-8705000D01*
X17325000Y-8675000D02*
X17295000Y-8705000D01*
X17315000Y-9105000D02*
X17345000Y-9135000D01*
X17345000Y-9105000D02*
X17315000Y-9135000D01*
X17355000Y-8625000D02*
X17385000Y-8655000D01*
X17385000Y-8625000D02*
X17355000Y-8655000D01*
X17365000Y-8335000D02*
X17395000Y-8365000D01*
X17395000Y-8335000D02*
X17365000Y-8365000D01*
X17375000Y-8455000D02*
X17405000Y-8485000D01*
X17405000Y-8455000D02*
X17375000Y-8485000D01*
X17375000Y-9125000D02*
X17405000Y-9155000D01*
X17405000Y-9125000D02*
X17375000Y-9155000D01*
X17375000Y-9965000D02*
X17405000Y-9995000D01*
X17405000Y-9965000D02*
X17375000Y-9995000D01*
X17415000Y-8595000D02*
X17445000Y-8625000D01*
X17445000Y-8595000D02*
X17415000Y-8625000D01*
X17435000Y-9155000D02*
X17465000Y-9185000D01*
X17465000Y-9155000D02*
X17435000Y-9185000D01*
X17480000Y-8605000D02*
X17510000Y-8635000D01*
X17510000Y-8605000D02*
X17480000Y-8635000D01*
X17485000Y-9205000D02*
X17515000Y-9235000D01*
X17515000Y-9205000D02*
X17485000Y-9235000D01*
X17485000Y-9385000D02*
X17515000Y-9415000D01*
X17515000Y-9385000D02*
X17485000Y-9415000D01*
X17515000Y-8795000D02*
X17545000Y-8825000D01*
X17545000Y-8795000D02*
X17515000Y-8825000D01*
X17515000Y-8865000D02*
X17545000Y-8895000D01*
X17545000Y-8865000D02*
X17515000Y-8895000D01*
X17525000Y-8335000D02*
X17555000Y-8365000D01*
X17555000Y-8335000D02*
X17525000Y-8365000D01*
X17525000Y-8460000D02*
X17555000Y-8490000D01*
X17555000Y-8460000D02*
X17525000Y-8490000D01*
X17555000Y-8615000D02*
X17585000Y-8645000D01*
X17585000Y-8615000D02*
X17555000Y-8645000D01*
X17555000Y-9205000D02*
X17585000Y-9235000D01*
X17585000Y-9205000D02*
X17555000Y-9235000D01*
X17595000Y-10035000D02*
X17625000Y-10065000D01*
X17625000Y-10035000D02*
X17595000Y-10065000D01*
X17625000Y-9205000D02*
X17655000Y-9235000D01*
X17655000Y-9205000D02*
X17625000Y-9235000D01*
X17685000Y-9185000D02*
X17715000Y-9215000D01*
X17715000Y-9185000D02*
X17685000Y-9215000D01*
X17690000Y-8465000D02*
X17720000Y-8495000D01*
X17720000Y-8465000D02*
X17690000Y-8495000D01*
X17695000Y-8615000D02*
X17725000Y-8645000D01*
X17725000Y-8615000D02*
X17695000Y-8645000D01*
X17705000Y-8965000D02*
X17735000Y-8995000D01*
X17735000Y-8965000D02*
X17705000Y-8995000D01*
X17710000Y-8345000D02*
X17740000Y-8375000D01*
X17740000Y-8345000D02*
X17710000Y-8375000D01*
X17715000Y-8405000D02*
X17745000Y-8435000D01*
X17745000Y-8405000D02*
X17715000Y-8435000D01*
X17715000Y-8795000D02*
X17745000Y-8825000D01*
X17745000Y-8795000D02*
X17715000Y-8825000D01*
X17715000Y-8855000D02*
X17745000Y-8885000D01*
X17745000Y-8855000D02*
X17715000Y-8885000D01*
X17715000Y-9125000D02*
X17745000Y-9155000D01*
X17745000Y-9125000D02*
X17715000Y-9155000D01*
X17725000Y-10135000D02*
X17755000Y-10165000D01*
X17755000Y-10135000D02*
X17725000Y-10165000D01*
X17745000Y-8475000D02*
X17775000Y-8505000D01*
X17775000Y-8475000D02*
X17745000Y-8505000D01*
X17760000Y-8750000D02*
X17790000Y-8780000D01*
X17790000Y-8750000D02*
X17760000Y-8780000D01*
X17775000Y-9165000D02*
X17805000Y-9195000D01*
X17805000Y-9165000D02*
X17775000Y-9195000D01*
X17820000Y-8470000D02*
X17850000Y-8500000D01*
X17850000Y-8470000D02*
X17820000Y-8500000D01*
X17825000Y-8760000D02*
X17855000Y-8790000D01*
X17855000Y-8760000D02*
X17825000Y-8790000D01*
X17825000Y-8995000D02*
X17855000Y-9025000D01*
X17855000Y-8995000D02*
X17825000Y-9025000D01*
X17835000Y-9205000D02*
X17865000Y-9235000D01*
X17865000Y-9205000D02*
X17835000Y-9235000D01*
X17845000Y-8845000D02*
X17875000Y-8875000D01*
X17875000Y-8845000D02*
X17845000Y-8875000D01*
X17845000Y-9925000D02*
X17875000Y-9955000D01*
X17875000Y-9925000D02*
X17845000Y-9955000D01*
X17855000Y-9145000D02*
X17885000Y-9175000D01*
X17885000Y-9145000D02*
X17855000Y-9175000D01*
X17895000Y-8480000D02*
X17925000Y-8510000D01*
X17925000Y-8480000D02*
X17895000Y-8510000D01*
X17905000Y-8745000D02*
X17935000Y-8775000D01*
X17935000Y-8745000D02*
X17905000Y-8775000D01*
X17925000Y-8545000D02*
X17955000Y-8575000D01*
X17955000Y-8545000D02*
X17925000Y-8575000D01*
X17925000Y-8676000D02*
X17955000Y-8706000D01*
X17955000Y-8676000D02*
X17925000Y-8706000D01*
X17935000Y-9175000D02*
X17965000Y-9205000D01*
X17965000Y-9175000D02*
X17935000Y-9205000D01*
X17952500Y-9925000D02*
X17982500Y-9955000D01*
X17982500Y-9925000D02*
X17952500Y-9955000D01*
X17985000Y-8705000D02*
X18015000Y-8735000D01*
X18015000Y-8705000D02*
X17985000Y-8735000D01*
X17985000Y-8995000D02*
X18015000Y-9025000D01*
X18015000Y-8995000D02*
X17985000Y-9025000D01*
X17995000Y-9125000D02*
X18025000Y-9155000D01*
X18025000Y-9125000D02*
X17995000Y-9155000D01*
X18035000Y-9785000D02*
X18065000Y-9815000D01*
X18065000Y-9785000D02*
X18035000Y-9815000D01*
X18055000Y-8715000D02*
X18085000Y-8745000D01*
X18085000Y-8715000D02*
X18055000Y-8745000D01*
X18125000Y-8685000D02*
X18155000Y-8715000D01*
X18155000Y-8685000D02*
X18125000Y-8715000D01*
X18130000Y-8550000D02*
X18160000Y-8580000D01*
X18160000Y-8550000D02*
X18130000Y-8580000D01*
X18135000Y-9255000D02*
X18165000Y-9285000D01*
X18165000Y-9255000D02*
X18135000Y-9285000D01*
X18175000Y-8435000D02*
X18205000Y-8465000D01*
X18205000Y-8435000D02*
X18175000Y-8465000D01*
X18175000Y-8500000D02*
X18205000Y-8530000D01*
X18205000Y-8500000D02*
X18175000Y-8530000D01*
X18195000Y-8680000D02*
X18225000Y-8710000D01*
X18225000Y-8680000D02*
X18195000Y-8710000D01*
X18215000Y-9965000D02*
X18245000Y-9995000D01*
X18245000Y-9965000D02*
X18215000Y-9995000D01*
X18225000Y-8395000D02*
X18255000Y-8425000D01*
X18255000Y-8395000D02*
X18225000Y-8425000D01*
X18260000Y-8680000D02*
X18290000Y-8710000D01*
X18290000Y-8680000D02*
X18260000Y-8710000D01*
X18295000Y-8400000D02*
X18325000Y-8430000D01*
X18325000Y-8400000D02*
X18295000Y-8430000D01*
X18325000Y-9385000D02*
X18355000Y-9415000D01*
X18355000Y-9385000D02*
X18325000Y-9415000D01*
X18330000Y-8675000D02*
X18360000Y-8705000D01*
X18360000Y-8675000D02*
X18330000Y-8705000D01*
X18360000Y-8405000D02*
X18390000Y-8435000D01*
X18390000Y-8405000D02*
X18360000Y-8435000D01*
X18400000Y-8675000D02*
X18430000Y-8705000D01*
X18430000Y-8675000D02*
X18400000Y-8705000D01*
X18425000Y-8405000D02*
X18455000Y-8435000D01*
X18455000Y-8405000D02*
X18425000Y-8435000D01*
X18430000Y-8735000D02*
X18460000Y-8765000D01*
X18460000Y-8735000D02*
X18430000Y-8765000D01*
X18495000Y-8400000D02*
X18525000Y-8430000D01*
X18525000Y-8400000D02*
X18495000Y-8430000D01*
X18520000Y-8695000D02*
X18550000Y-8725000D01*
X18550000Y-8695000D02*
X18520000Y-8725000D01*
X18560000Y-8400000D02*
X18590000Y-8430000D01*
X18590000Y-8400000D02*
X18560000Y-8430000D01*
X18595000Y-8595000D02*
X18625000Y-8625000D01*
X18625000Y-8595000D02*
X18595000Y-8625000D01*
X18625000Y-10135000D02*
X18655000Y-10165000D01*
X18655000Y-10135000D02*
X18625000Y-10165000D01*
X18635000Y-8405000D02*
X18665000Y-8435000D01*
X18665000Y-8405000D02*
X18635000Y-8435000D01*
X18635000Y-8527500D02*
X18665000Y-8557500D01*
X18665000Y-8527500D02*
X18635000Y-8557500D01*
X18700000Y-8905000D02*
X18730000Y-8935000D01*
X18730000Y-8905000D02*
X18700000Y-8935000D01*
X18705000Y-8405000D02*
X18735000Y-8435000D01*
X18735000Y-8405000D02*
X18705000Y-8435000D01*
X18705000Y-8527500D02*
X18735000Y-8557500D01*
X18735000Y-8527500D02*
X18705000Y-8557500D01*
X18775000Y-8405000D02*
X18805000Y-8435000D01*
X18805000Y-8405000D02*
X18775000Y-8435000D01*
X18782500Y-9925000D02*
X18812500Y-9955000D01*
X18812500Y-9925000D02*
X18782500Y-9955000D01*
X18785000Y-8527500D02*
X18815000Y-8557500D01*
X18815000Y-8527500D02*
X18785000Y-8557500D01*
X18835000Y-8555000D02*
X18865000Y-8585000D01*
X18865000Y-8555000D02*
X18835000Y-8585000D01*
X18845000Y-8385000D02*
X18875000Y-8415000D01*
X18875000Y-8385000D02*
X18845000Y-8415000D01*
X18875000Y-9785000D02*
X18905000Y-9815000D01*
X18905000Y-9785000D02*
X18875000Y-9815000D01*
X18905000Y-8555000D02*
X18935000Y-8585000D01*
X18935000Y-8555000D02*
X18905000Y-8585000D01*
X18915000Y-8385000D02*
X18945000Y-8415000D01*
X18945000Y-8385000D02*
X18915000Y-8415000D01*
X18975000Y-8555000D02*
X19005000Y-8585000D01*
X19005000Y-8555000D02*
X18975000Y-8585000D01*
X18985000Y-8385000D02*
X19015000Y-8415000D01*
X19015000Y-8385000D02*
X18985000Y-8415000D01*
X18995000Y-10200000D02*
X19025000Y-10230000D01*
X19025000Y-10200000D02*
X18995000Y-10230000D01*
X19035000Y-8605000D02*
X19065000Y-8635000D01*
X19065000Y-8605000D02*
X19035000Y-8635000D01*
X19045000Y-8535000D02*
X19075000Y-8565000D01*
X19075000Y-8535000D02*
X19045000Y-8565000D01*
X19065000Y-8335000D02*
X19095000Y-8365000D01*
X19095000Y-8335000D02*
X19065000Y-8365000D01*
X19065000Y-8404000D02*
X19095000Y-8434000D01*
X19095000Y-8404000D02*
X19065000Y-8434000D01*
X19065000Y-8675000D02*
X19095000Y-8705000D01*
X19095000Y-8675000D02*
X19065000Y-8705000D01*
X19065000Y-10200000D02*
X19095000Y-10230000D01*
X19095000Y-10200000D02*
X19065000Y-10230000D01*
X19130000Y-10200000D02*
X19160000Y-10230000D01*
X19160000Y-10200000D02*
X19130000Y-10230000D01*
X19135000Y-8685000D02*
X19165000Y-8715000D01*
X19165000Y-8685000D02*
X19135000Y-8715000D01*
X19195000Y-10200000D02*
X19225000Y-10230000D01*
X19225000Y-10200000D02*
X19195000Y-10230000D01*
X19205000Y-8685000D02*
X19235000Y-8715000D01*
X19235000Y-8685000D02*
X19205000Y-8715000D01*
X19210000Y-8520000D02*
X19240000Y-8550000D01*
X19240000Y-8520000D02*
X19210000Y-8550000D01*
X19215000Y-8445000D02*
X19245000Y-8475000D01*
X19245000Y-8445000D02*
X19215000Y-8475000D01*
X19245000Y-8745000D02*
X19275000Y-8775000D01*
X19275000Y-8745000D02*
X19245000Y-8775000D01*
X19245000Y-8815000D02*
X19275000Y-8845000D01*
X19275000Y-8815000D02*
X19245000Y-8845000D01*
X19245000Y-8885000D02*
X19275000Y-8915000D01*
X19275000Y-8885000D02*
X19245000Y-8915000D01*
X19257500Y-10200000D02*
X19287500Y-10230000D01*
X19287500Y-10200000D02*
X19257500Y-10230000D01*
X19265000Y-8485000D02*
X19295000Y-8515000D01*
X19295000Y-8485000D02*
X19265000Y-8515000D01*
X19285000Y-8545000D02*
X19315000Y-8575000D01*
X19315000Y-8545000D02*
X19285000Y-8575000D01*
X19322500Y-10200000D02*
X19352500Y-10230000D01*
X19352500Y-10200000D02*
X19322500Y-10230000D01*
X19325000Y-8615000D02*
X19355000Y-8645000D01*
X19355000Y-8615000D02*
X19325000Y-8645000D01*
X19370000Y-8540000D02*
X19400000Y-8570000D01*
X19400000Y-8540000D02*
X19370000Y-8570000D01*
X19375000Y-8675000D02*
X19405000Y-8705000D01*
X19405000Y-8675000D02*
X19375000Y-8705000D01*
X19385000Y-8745000D02*
X19415000Y-8775000D01*
X19415000Y-8745000D02*
X19385000Y-8775000D01*
X19385000Y-8815000D02*
X19415000Y-8845000D01*
X19415000Y-8815000D02*
X19385000Y-8845000D01*
X19385000Y-8885000D02*
X19415000Y-8915000D01*
X19415000Y-8885000D02*
X19385000Y-8915000D01*
X19387500Y-10200000D02*
X19417500Y-10230000D01*
X19417500Y-10200000D02*
X19387500Y-10230000D01*
X19425000Y-8505000D02*
X19455000Y-8535000D01*
X19455000Y-8505000D02*
X19425000Y-8535000D01*
X19440000Y-8445000D02*
X19470000Y-8475000D01*
X19470000Y-8445000D02*
X19440000Y-8475000D01*
X19452500Y-10200000D02*
X19482500Y-10230000D01*
X19482500Y-10200000D02*
X19452500Y-10230000D01*
X19500000Y-8560000D02*
X19530000Y-8590000D01*
X19530000Y-8560000D02*
X19500000Y-8590000D01*
X19505000Y-8440000D02*
X19535000Y-8470000D01*
X19535000Y-8440000D02*
X19505000Y-8470000D01*
X19515000Y-10200000D02*
X19545000Y-10230000D01*
X19545000Y-10200000D02*
X19515000Y-10230000D01*
X19565000Y-8460000D02*
X19595000Y-8490000D01*
X19595000Y-8460000D02*
X19565000Y-8490000D01*
X19577500Y-10200000D02*
X19607500Y-10230000D01*
X19607500Y-10200000D02*
X19577500Y-10230000D01*
X19580000Y-8520000D02*
X19610000Y-8550000D01*
X19610000Y-8520000D02*
X19580000Y-8550000D01*
X19595000Y-8590000D02*
X19625000Y-8620000D01*
X19625000Y-8590000D02*
X19595000Y-8620000D01*
X19640000Y-8540000D02*
X19670000Y-8570000D01*
X19670000Y-8540000D02*
X19640000Y-8570000D01*
X19640000Y-10200000D02*
X19670000Y-10230000D01*
X19670000Y-10200000D02*
X19640000Y-10230000D01*
X19705000Y-8530000D02*
X19735000Y-8560000D01*
X19735000Y-8530000D02*
X19705000Y-8560000D01*
X19705000Y-8987500D02*
X19735000Y-9017500D01*
X19735000Y-8987500D02*
X19705000Y-9017500D01*
X19705000Y-9050000D02*
X19735000Y-9080000D01*
X19735000Y-9050000D02*
X19705000Y-9080000D01*
X19705000Y-9112500D02*
X19735000Y-9142500D01*
X19735000Y-9112500D02*
X19705000Y-9142500D01*
X19705000Y-9175000D02*
X19735000Y-9205000D01*
X19735000Y-9175000D02*
X19705000Y-9205000D01*
X19705000Y-9240000D02*
X19735000Y-9270000D01*
X19735000Y-9240000D02*
X19705000Y-9270000D01*
X19705000Y-9432500D02*
X19735000Y-9462500D01*
X19735000Y-9432500D02*
X19705000Y-9462500D01*
X19705000Y-9495000D02*
X19735000Y-9525000D01*
X19735000Y-9495000D02*
X19705000Y-9525000D01*
X19705000Y-9557500D02*
X19735000Y-9587500D01*
X19735000Y-9557500D02*
X19705000Y-9587500D01*
X19705000Y-9622500D02*
X19735000Y-9652500D01*
X19735000Y-9622500D02*
X19705000Y-9652500D01*
X19705000Y-9687500D02*
X19735000Y-9717500D01*
X19735000Y-9687500D02*
X19705000Y-9717500D01*
X19705000Y-9752500D02*
X19735000Y-9782500D01*
X19735000Y-9752500D02*
X19705000Y-9782500D01*
X19705000Y-9817500D02*
X19735000Y-9847500D01*
X19735000Y-9817500D02*
X19705000Y-9847500D01*
X19705000Y-9882500D02*
X19735000Y-9912500D01*
X19735000Y-9882500D02*
X19705000Y-9912500D01*
X19705000Y-9945000D02*
X19735000Y-9975000D01*
X19735000Y-9945000D02*
X19705000Y-9975000D01*
X19705000Y-10007500D02*
X19735000Y-10037500D01*
X19735000Y-10007500D02*
X19705000Y-10037500D01*
X19705000Y-10070000D02*
X19735000Y-10100000D01*
X19735000Y-10070000D02*
X19705000Y-10100000D01*
X19705000Y-10135000D02*
X19735000Y-10165000D01*
X19735000Y-10135000D02*
X19705000Y-10165000D01*
X19705000Y-10200000D02*
X19735000Y-10230000D01*
X19735000Y-10200000D02*
X19705000Y-10230000D01*
X20445000Y-8580000D02*
G75*
G02*
X20405000Y-8580000I-20000J0D01*
G01*
X20405000Y-8580000D02*
G75*
G02*
X20445000Y-8580000I20000J0D01*
G01*
X20445000Y-8780000D02*
G75*
G02*
X20405000Y-8780000I-20000J0D01*
G01*
X20405000Y-8780000D02*
G75*
G02*
X20445000Y-8780000I20000J0D01*
G01*
X20445000Y-8980000D02*
G75*
G02*
X20405000Y-8980000I-20000J0D01*
G01*
X20405000Y-8980000D02*
G75*
G02*
X20445000Y-8980000I20000J0D01*
G01*
X20445000Y-9180000D02*
G75*
G02*
X20405000Y-9180000I-20000J0D01*
G01*
X20405000Y-9180000D02*
G75*
G02*
X20445000Y-9180000I20000J0D01*
G01*
X20445000Y-9380000D02*
G75*
G02*
X20405000Y-9380000I-20000J0D01*
G01*
X20405000Y-9380000D02*
G75*
G02*
X20445000Y-9380000I20000J0D01*
G01*
X20445000Y-9580000D02*
G75*
G02*
X20405000Y-9580000I-20000J0D01*
G01*
X20405000Y-9580000D02*
G75*
G02*
X20445000Y-9580000I20000J0D01*
G01*
X20445000Y-9780000D02*
G75*
G02*
X20405000Y-9780000I-20000J0D01*
G01*
X20405000Y-9780000D02*
G75*
G02*
X20445000Y-9780000I20000J0D01*
G01*
X20445000Y-9980000D02*
G75*
G02*
X20405000Y-9980000I-20000J0D01*
G01*
X20405000Y-9980000D02*
G75*
G02*
X20445000Y-9980000I20000J0D01*
G01*
X20445000Y-10180000D02*
G75*
G02*
X20405000Y-10180000I-20000J0D01*
G01*
X20405000Y-10180000D02*
G75*
G02*
X20445000Y-10180000I20000J0D01*
G01*
X20945000Y-8380000D02*
G75*
G02*
X20905000Y-8380000I-20000J0D01*
G01*
X20905000Y-8380000D02*
G75*
G02*
X20945000Y-8380000I20000J0D01*
G01*
X20945000Y-8580000D02*
G75*
G02*
X20905000Y-8580000I-20000J0D01*
G01*
X20905000Y-8580000D02*
G75*
G02*
X20945000Y-8580000I20000J0D01*
G01*
X20945000Y-8780000D02*
G75*
G02*
X20905000Y-8780000I-20000J0D01*
G01*
X20905000Y-8780000D02*
G75*
G02*
X20945000Y-8780000I20000J0D01*
G01*
X20945000Y-8980000D02*
G75*
G02*
X20905000Y-8980000I-20000J0D01*
G01*
X20905000Y-8980000D02*
G75*
G02*
X20945000Y-8980000I20000J0D01*
G01*
X20945000Y-9180000D02*
G75*
G02*
X20905000Y-9180000I-20000J0D01*
G01*
X20905000Y-9180000D02*
G75*
G02*
X20945000Y-9180000I20000J0D01*
G01*
X20945000Y-9380000D02*
G75*
G02*
X20905000Y-9380000I-20000J0D01*
G01*
X20905000Y-9380000D02*
G75*
G02*
X20945000Y-9380000I20000J0D01*
G01*
X20945000Y-9580000D02*
G75*
G02*
X20905000Y-9580000I-20000J0D01*
G01*
X20905000Y-9580000D02*
G75*
G02*
X20945000Y-9580000I20000J0D01*
G01*
X20945000Y-9780000D02*
G75*
G02*
X20905000Y-9780000I-20000J0D01*
G01*
X20905000Y-9780000D02*
G75*
G02*
X20945000Y-9780000I20000J0D01*
G01*
X20945000Y-9980000D02*
G75*
G02*
X20905000Y-9980000I-20000J0D01*
G01*
X20905000Y-9980000D02*
G75*
G02*
X20945000Y-9980000I20000J0D01*
G01*
X20945000Y-10180000D02*
G75*
G02*
X20905000Y-10180000I-20000J0D01*
G01*
X20905000Y-10180000D02*
G75*
G02*
X20945000Y-10180000I20000J0D01*
G01*
X17030000Y-8477000D02*
X17030000Y-8567000D01*
X16985000Y-8522000D02*
X17075000Y-8522000D01*
X17030000Y-8731000D02*
X17030000Y-8821000D01*
X16985000Y-8776000D02*
X17075000Y-8776000D01*
X17030000Y-8985000D02*
X17030000Y-9075000D01*
X16985000Y-9030000D02*
X17075000Y-9030000D01*
X17030000Y-9493000D02*
X17030000Y-9583000D01*
X16985000Y-9538000D02*
X17075000Y-9538000D01*
X17030000Y-9747000D02*
X17030000Y-9837000D01*
X16985000Y-9792000D02*
X17075000Y-9792000D01*
X17030000Y-10001000D02*
X17030000Y-10091000D01*
X16985000Y-10046000D02*
X17075000Y-10046000D01*
X18300000Y-8985000D02*
X18300000Y-9075000D01*
X18255000Y-9030000D02*
X18345000Y-9030000D01*
X18554000Y-8985000D02*
X18554000Y-9075000D01*
X18509000Y-9030000D02*
X18599000Y-9030000D01*
X16176356Y-8684356D02*
X16176356Y-8613644D01*
X16105644Y-8613644D01*
X16105644Y-8684356D01*
X16176356Y-8684356D01*
X16176356Y-8938356D02*
X16176356Y-8867644D01*
X16105644Y-8867644D01*
X16105644Y-8938356D01*
X16176356Y-8938356D01*
X16176356Y-9192356D02*
X16176356Y-9121644D01*
X16105644Y-9121644D01*
X16105644Y-9192356D01*
X16176356Y-9192356D01*
X16176356Y-9446356D02*
X16176356Y-9375644D01*
X16105644Y-9375644D01*
X16105644Y-9446356D01*
X16176356Y-9446356D01*
X16176356Y-9700356D02*
X16176356Y-9629644D01*
X16105644Y-9629644D01*
X16105644Y-9700356D01*
X16176356Y-9700356D01*
X16176356Y-9954356D02*
X16176356Y-9883644D01*
X16105644Y-9883644D01*
X16105644Y-9954356D01*
X16176356Y-9954356D01*
X16430356Y-8684356D02*
X16430356Y-8613644D01*
X16359644Y-8613644D01*
X16359644Y-8684356D01*
X16430356Y-8684356D01*
X16430356Y-8938356D02*
X16430356Y-8867644D01*
X16359644Y-8867644D01*
X16359644Y-8938356D01*
X16430356Y-8938356D01*
X16430356Y-9192356D02*
X16430356Y-9121644D01*
X16359644Y-9121644D01*
X16359644Y-9192356D01*
X16430356Y-9192356D01*
X16430356Y-9446356D02*
X16430356Y-9375644D01*
X16359644Y-9375644D01*
X16359644Y-9446356D01*
X16430356Y-9446356D01*
X16430356Y-9700356D02*
X16430356Y-9629644D01*
X16359644Y-9629644D01*
X16359644Y-9700356D01*
X16430356Y-9700356D01*
X16430356Y-9954356D02*
X16430356Y-9883644D01*
X16359644Y-9883644D01*
X16359644Y-9954356D01*
X16430356Y-9954356D01*
D12*
X19326000Y-9181000D02*
X19401000Y-9106000D01*
X19326000Y-9031000D01*
X19251000Y-9106000D01*
X19326000Y-9181000D01*
D13*
X18987000Y-8767000D02*
X19157000Y-8937000D01*
X19157000Y-8767000D02*
X18987000Y-8937000D01*
X19157000Y-8852000D02*
G75*
G02*
X18987000Y-8852000I-85000J0D01*
G01*
X18987000Y-8852000D02*
G75*
G02*
X19157000Y-8852000I85000J0D01*
G01*
X18987000Y-9275000D02*
X19157000Y-9445000D01*
X19157000Y-9275000D02*
X18987000Y-9445000D01*
X19157000Y-9360000D02*
G75*
G02*
X18987000Y-9360000I-85000J0D01*
G01*
X18987000Y-9360000D02*
G75*
G02*
X19157000Y-9360000I85000J0D01*
G01*
X19495000Y-8767000D02*
X19665000Y-8937000D01*
X19665000Y-8767000D02*
X19495000Y-8937000D01*
X19665000Y-8852000D02*
G75*
G02*
X19495000Y-8852000I-85000J0D01*
G01*
X19495000Y-8852000D02*
G75*
G02*
X19665000Y-8852000I85000J0D01*
G01*
X19495000Y-9275000D02*
X19665000Y-9445000D01*
X19665000Y-9275000D02*
X19495000Y-9445000D01*
X19665000Y-9360000D02*
G75*
G02*
X19495000Y-9360000I-85000J0D01*
G01*
X19495000Y-9360000D02*
G75*
G02*
X19665000Y-9360000I85000J0D01*
G01*
D11*
X16015777Y-10616484D02*
X16015777Y-10416484D01*
X16015777Y-10416484D02*
X16063396Y-10416484D01*
X16063396Y-10416484D02*
X16091967Y-10426008D01*
X16091967Y-10426008D02*
X16111015Y-10445055D01*
X16111015Y-10445055D02*
X16120539Y-10464103D01*
X16120539Y-10464103D02*
X16130062Y-10502198D01*
X16130062Y-10502198D02*
X16130062Y-10530770D01*
X16130062Y-10530770D02*
X16120539Y-10568865D01*
X16120539Y-10568865D02*
X16111015Y-10587912D01*
X16111015Y-10587912D02*
X16091967Y-10606960D01*
X16091967Y-10606960D02*
X16063396Y-10616484D01*
X16063396Y-10616484D02*
X16015777Y-10616484D01*
X16215777Y-10616484D02*
X16215777Y-10483150D01*
X16215777Y-10521246D02*
X16225301Y-10502198D01*
X16225301Y-10502198D02*
X16234824Y-10492674D01*
X16234824Y-10492674D02*
X16253872Y-10483150D01*
X16253872Y-10483150D02*
X16272920Y-10483150D01*
X16339586Y-10616484D02*
X16339586Y-10483150D01*
X16339586Y-10416484D02*
X16330062Y-10426008D01*
X16330062Y-10426008D02*
X16339586Y-10435531D01*
X16339586Y-10435531D02*
X16349110Y-10426008D01*
X16349110Y-10426008D02*
X16339586Y-10416484D01*
X16339586Y-10416484D02*
X16339586Y-10435531D01*
X16463396Y-10616484D02*
X16444348Y-10606960D01*
X16444348Y-10606960D02*
X16434824Y-10587912D01*
X16434824Y-10587912D02*
X16434824Y-10416484D01*
X16568158Y-10616484D02*
X16549110Y-10606960D01*
X16549110Y-10606960D02*
X16539586Y-10587912D01*
X16539586Y-10587912D02*
X16539586Y-10416484D01*
X16796729Y-10616484D02*
X16796729Y-10416484D01*
X16796729Y-10416484D02*
X16863396Y-10559341D01*
X16863396Y-10559341D02*
X16930063Y-10416484D01*
X16930063Y-10416484D02*
X16930063Y-10616484D01*
X17111015Y-10616484D02*
X17111015Y-10511722D01*
X17111015Y-10511722D02*
X17101491Y-10492674D01*
X17101491Y-10492674D02*
X17082444Y-10483150D01*
X17082444Y-10483150D02*
X17044348Y-10483150D01*
X17044348Y-10483150D02*
X17025301Y-10492674D01*
X17111015Y-10606960D02*
X17091967Y-10616484D01*
X17091967Y-10616484D02*
X17044348Y-10616484D01*
X17044348Y-10616484D02*
X17025301Y-10606960D01*
X17025301Y-10606960D02*
X17015777Y-10587912D01*
X17015777Y-10587912D02*
X17015777Y-10568865D01*
X17015777Y-10568865D02*
X17025301Y-10549817D01*
X17025301Y-10549817D02*
X17044348Y-10540293D01*
X17044348Y-10540293D02*
X17091967Y-10540293D01*
X17091967Y-10540293D02*
X17111015Y-10530770D01*
X17206253Y-10483150D02*
X17206253Y-10683150D01*
X17206253Y-10492674D02*
X17225301Y-10483150D01*
X17225301Y-10483150D02*
X17263396Y-10483150D01*
X17263396Y-10483150D02*
X17282444Y-10492674D01*
X17282444Y-10492674D02*
X17291967Y-10502198D01*
X17291967Y-10502198D02*
X17301491Y-10521246D01*
X17301491Y-10521246D02*
X17301491Y-10578389D01*
X17301491Y-10578389D02*
X17291967Y-10597436D01*
X17291967Y-10597436D02*
X17282444Y-10606960D01*
X17282444Y-10606960D02*
X17263396Y-10616484D01*
X17263396Y-10616484D02*
X17225301Y-10616484D01*
X17225301Y-10616484D02*
X17206253Y-10606960D01*
X17387205Y-10597436D02*
X17396729Y-10606960D01*
X17396729Y-10606960D02*
X17387205Y-10616484D01*
X17387205Y-10616484D02*
X17377682Y-10606960D01*
X17377682Y-10606960D02*
X17387205Y-10597436D01*
X17387205Y-10597436D02*
X17387205Y-10616484D01*
X17387205Y-10492674D02*
X17396729Y-10502198D01*
X17396729Y-10502198D02*
X17387205Y-10511722D01*
X17387205Y-10511722D02*
X17377682Y-10502198D01*
X17377682Y-10502198D02*
X17387205Y-10492674D01*
X17387205Y-10492674D02*
X17387205Y-10511722D01*
D10*
X15725000Y-10930000D02*
X15755000Y-10960000D01*
X15755000Y-10930000D02*
X15725000Y-10960000D01*
D11*
X16053872Y-10836484D02*
X16072920Y-10836484D01*
X16072920Y-10836484D02*
X16091967Y-10846008D01*
X16091967Y-10846008D02*
X16101491Y-10855531D01*
X16101491Y-10855531D02*
X16111015Y-10874579D01*
X16111015Y-10874579D02*
X16120539Y-10912674D01*
X16120539Y-10912674D02*
X16120539Y-10960293D01*
X16120539Y-10960293D02*
X16111015Y-10998389D01*
X16111015Y-10998389D02*
X16101491Y-11017436D01*
X16101491Y-11017436D02*
X16091967Y-11026960D01*
X16091967Y-11026960D02*
X16072920Y-11036484D01*
X16072920Y-11036484D02*
X16053872Y-11036484D01*
X16053872Y-11036484D02*
X16034824Y-11026960D01*
X16034824Y-11026960D02*
X16025301Y-11017436D01*
X16025301Y-11017436D02*
X16015777Y-10998389D01*
X16015777Y-10998389D02*
X16006253Y-10960293D01*
X16006253Y-10960293D02*
X16006253Y-10912674D01*
X16006253Y-10912674D02*
X16015777Y-10874579D01*
X16015777Y-10874579D02*
X16025301Y-10855531D01*
X16025301Y-10855531D02*
X16034824Y-10846008D01*
X16034824Y-10846008D02*
X16053872Y-10836484D01*
X16206253Y-11017436D02*
X16215777Y-11026960D01*
X16215777Y-11026960D02*
X16206253Y-11036484D01*
X16206253Y-11036484D02*
X16196729Y-11026960D01*
X16196729Y-11026960D02*
X16206253Y-11017436D01*
X16206253Y-11017436D02*
X16206253Y-11036484D01*
X16282443Y-10836484D02*
X16406253Y-10836484D01*
X16406253Y-10836484D02*
X16339586Y-10912674D01*
X16339586Y-10912674D02*
X16368158Y-10912674D01*
X16368158Y-10912674D02*
X16387205Y-10922198D01*
X16387205Y-10922198D02*
X16396729Y-10931722D01*
X16396729Y-10931722D02*
X16406253Y-10950770D01*
X16406253Y-10950770D02*
X16406253Y-10998389D01*
X16406253Y-10998389D02*
X16396729Y-11017436D01*
X16396729Y-11017436D02*
X16387205Y-11026960D01*
X16387205Y-11026960D02*
X16368158Y-11036484D01*
X16368158Y-11036484D02*
X16311015Y-11036484D01*
X16311015Y-11036484D02*
X16291967Y-11026960D01*
X16291967Y-11026960D02*
X16282443Y-11017436D01*
X16530062Y-10836484D02*
X16549110Y-10836484D01*
X16549110Y-10836484D02*
X16568158Y-10846008D01*
X16568158Y-10846008D02*
X16577682Y-10855531D01*
X16577682Y-10855531D02*
X16587205Y-10874579D01*
X16587205Y-10874579D02*
X16596729Y-10912674D01*
X16596729Y-10912674D02*
X16596729Y-10960293D01*
X16596729Y-10960293D02*
X16587205Y-10998389D01*
X16587205Y-10998389D02*
X16577682Y-11017436D01*
X16577682Y-11017436D02*
X16568158Y-11026960D01*
X16568158Y-11026960D02*
X16549110Y-11036484D01*
X16549110Y-11036484D02*
X16530062Y-11036484D01*
X16530062Y-11036484D02*
X16511015Y-11026960D01*
X16511015Y-11026960D02*
X16501491Y-11017436D01*
X16501491Y-11017436D02*
X16491967Y-10998389D01*
X16491967Y-10998389D02*
X16482443Y-10960293D01*
X16482443Y-10960293D02*
X16482443Y-10912674D01*
X16482443Y-10912674D02*
X16491967Y-10874579D01*
X16491967Y-10874579D02*
X16501491Y-10855531D01*
X16501491Y-10855531D02*
X16511015Y-10846008D01*
X16511015Y-10846008D02*
X16530062Y-10836484D01*
X16720539Y-10836484D02*
X16739586Y-10836484D01*
X16739586Y-10836484D02*
X16758634Y-10846008D01*
X16758634Y-10846008D02*
X16768158Y-10855531D01*
X16768158Y-10855531D02*
X16777682Y-10874579D01*
X16777682Y-10874579D02*
X16787205Y-10912674D01*
X16787205Y-10912674D02*
X16787205Y-10960293D01*
X16787205Y-10960293D02*
X16777682Y-10998389D01*
X16777682Y-10998389D02*
X16768158Y-11017436D01*
X16768158Y-11017436D02*
X16758634Y-11026960D01*
X16758634Y-11026960D02*
X16739586Y-11036484D01*
X16739586Y-11036484D02*
X16720539Y-11036484D01*
X16720539Y-11036484D02*
X16701491Y-11026960D01*
X16701491Y-11026960D02*
X16691967Y-11017436D01*
X16691967Y-11017436D02*
X16682443Y-10998389D01*
X16682443Y-10998389D02*
X16672920Y-10960293D01*
X16672920Y-10960293D02*
X16672920Y-10912674D01*
X16672920Y-10912674D02*
X16682443Y-10874579D01*
X16682443Y-10874579D02*
X16691967Y-10855531D01*
X16691967Y-10855531D02*
X16701491Y-10846008D01*
X16701491Y-10846008D02*
X16720539Y-10836484D01*
X16872920Y-11036484D02*
X16872920Y-10903150D01*
X16872920Y-10922198D02*
X16882444Y-10912674D01*
X16882444Y-10912674D02*
X16901491Y-10903150D01*
X16901491Y-10903150D02*
X16930063Y-10903150D01*
X16930063Y-10903150D02*
X16949110Y-10912674D01*
X16949110Y-10912674D02*
X16958634Y-10931722D01*
X16958634Y-10931722D02*
X16958634Y-11036484D01*
X16958634Y-10931722D02*
X16968158Y-10912674D01*
X16968158Y-10912674D02*
X16987205Y-10903150D01*
X16987205Y-10903150D02*
X17015777Y-10903150D01*
X17015777Y-10903150D02*
X17034825Y-10912674D01*
X17034825Y-10912674D02*
X17044348Y-10931722D01*
X17044348Y-10931722D02*
X17044348Y-11036484D01*
X17139586Y-11036484D02*
X17139586Y-10903150D01*
X17139586Y-10922198D02*
X17149110Y-10912674D01*
X17149110Y-10912674D02*
X17168158Y-10903150D01*
X17168158Y-10903150D02*
X17196729Y-10903150D01*
X17196729Y-10903150D02*
X17215777Y-10912674D01*
X17215777Y-10912674D02*
X17225301Y-10931722D01*
X17225301Y-10931722D02*
X17225301Y-11036484D01*
X17225301Y-10931722D02*
X17234825Y-10912674D01*
X17234825Y-10912674D02*
X17253872Y-10903150D01*
X17253872Y-10903150D02*
X17282444Y-10903150D01*
X17282444Y-10903150D02*
X17301491Y-10912674D01*
X17301491Y-10912674D02*
X17311015Y-10931722D01*
X17311015Y-10931722D02*
X17311015Y-11036484D01*
X17701491Y-10826960D02*
X17530063Y-11084103D01*
X17958634Y-10836484D02*
X17977682Y-10836484D01*
X17977682Y-10836484D02*
X17996729Y-10846008D01*
X17996729Y-10846008D02*
X18006253Y-10855531D01*
X18006253Y-10855531D02*
X18015777Y-10874579D01*
X18015777Y-10874579D02*
X18025301Y-10912674D01*
X18025301Y-10912674D02*
X18025301Y-10960293D01*
X18025301Y-10960293D02*
X18015777Y-10998389D01*
X18015777Y-10998389D02*
X18006253Y-11017436D01*
X18006253Y-11017436D02*
X17996729Y-11026960D01*
X17996729Y-11026960D02*
X17977682Y-11036484D01*
X17977682Y-11036484D02*
X17958634Y-11036484D01*
X17958634Y-11036484D02*
X17939587Y-11026960D01*
X17939587Y-11026960D02*
X17930063Y-11017436D01*
X17930063Y-11017436D02*
X17920539Y-10998389D01*
X17920539Y-10998389D02*
X17911015Y-10960293D01*
X17911015Y-10960293D02*
X17911015Y-10912674D01*
X17911015Y-10912674D02*
X17920539Y-10874579D01*
X17920539Y-10874579D02*
X17930063Y-10855531D01*
X17930063Y-10855531D02*
X17939587Y-10846008D01*
X17939587Y-10846008D02*
X17958634Y-10836484D01*
X18111015Y-11017436D02*
X18120539Y-11026960D01*
X18120539Y-11026960D02*
X18111015Y-11036484D01*
X18111015Y-11036484D02*
X18101491Y-11026960D01*
X18101491Y-11026960D02*
X18111015Y-11017436D01*
X18111015Y-11017436D02*
X18111015Y-11036484D01*
X18244348Y-10836484D02*
X18263396Y-10836484D01*
X18263396Y-10836484D02*
X18282444Y-10846008D01*
X18282444Y-10846008D02*
X18291968Y-10855531D01*
X18291968Y-10855531D02*
X18301491Y-10874579D01*
X18301491Y-10874579D02*
X18311015Y-10912674D01*
X18311015Y-10912674D02*
X18311015Y-10960293D01*
X18311015Y-10960293D02*
X18301491Y-10998389D01*
X18301491Y-10998389D02*
X18291968Y-11017436D01*
X18291968Y-11017436D02*
X18282444Y-11026960D01*
X18282444Y-11026960D02*
X18263396Y-11036484D01*
X18263396Y-11036484D02*
X18244348Y-11036484D01*
X18244348Y-11036484D02*
X18225301Y-11026960D01*
X18225301Y-11026960D02*
X18215777Y-11017436D01*
X18215777Y-11017436D02*
X18206253Y-10998389D01*
X18206253Y-10998389D02*
X18196729Y-10960293D01*
X18196729Y-10960293D02*
X18196729Y-10912674D01*
X18196729Y-10912674D02*
X18206253Y-10874579D01*
X18206253Y-10874579D02*
X18215777Y-10855531D01*
X18215777Y-10855531D02*
X18225301Y-10846008D01*
X18225301Y-10846008D02*
X18244348Y-10836484D01*
X18501491Y-11036484D02*
X18387206Y-11036484D01*
X18444348Y-11036484D02*
X18444348Y-10836484D01*
X18444348Y-10836484D02*
X18425301Y-10865055D01*
X18425301Y-10865055D02*
X18406253Y-10884103D01*
X18406253Y-10884103D02*
X18387206Y-10893627D01*
X18691968Y-11036484D02*
X18577682Y-11036484D01*
X18634825Y-11036484D02*
X18634825Y-10836484D01*
X18634825Y-10836484D02*
X18615777Y-10865055D01*
X18615777Y-10865055D02*
X18596729Y-10884103D01*
X18596729Y-10884103D02*
X18577682Y-10893627D01*
X18806253Y-10922198D02*
X18787206Y-10912674D01*
X18787206Y-10912674D02*
X18777682Y-10903150D01*
X18777682Y-10903150D02*
X18768158Y-10884103D01*
X18768158Y-10884103D02*
X18768158Y-10874579D01*
X18768158Y-10874579D02*
X18777682Y-10855531D01*
X18777682Y-10855531D02*
X18787206Y-10846008D01*
X18787206Y-10846008D02*
X18806253Y-10836484D01*
X18806253Y-10836484D02*
X18844349Y-10836484D01*
X18844349Y-10836484D02*
X18863396Y-10846008D01*
X18863396Y-10846008D02*
X18872920Y-10855531D01*
X18872920Y-10855531D02*
X18882444Y-10874579D01*
X18882444Y-10874579D02*
X18882444Y-10884103D01*
X18882444Y-10884103D02*
X18872920Y-10903150D01*
X18872920Y-10903150D02*
X18863396Y-10912674D01*
X18863396Y-10912674D02*
X18844349Y-10922198D01*
X18844349Y-10922198D02*
X18806253Y-10922198D01*
X18806253Y-10922198D02*
X18787206Y-10931722D01*
X18787206Y-10931722D02*
X18777682Y-10941246D01*
X18777682Y-10941246D02*
X18768158Y-10960293D01*
X18768158Y-10960293D02*
X18768158Y-10998389D01*
X18768158Y-10998389D02*
X18777682Y-11017436D01*
X18777682Y-11017436D02*
X18787206Y-11026960D01*
X18787206Y-11026960D02*
X18806253Y-11036484D01*
X18806253Y-11036484D02*
X18844349Y-11036484D01*
X18844349Y-11036484D02*
X18863396Y-11026960D01*
X18863396Y-11026960D02*
X18872920Y-11017436D01*
X18872920Y-11017436D02*
X18882444Y-10998389D01*
X18882444Y-10998389D02*
X18882444Y-10960293D01*
X18882444Y-10960293D02*
X18872920Y-10941246D01*
X18872920Y-10941246D02*
X18863396Y-10931722D01*
X18863396Y-10931722D02*
X18844349Y-10922198D01*
X18958634Y-10836484D02*
X18958634Y-10874579D01*
X19034825Y-10836484D02*
X19034825Y-10874579D01*
X19330063Y-11112674D02*
X19320539Y-11103150D01*
X19320539Y-11103150D02*
X19301491Y-11074579D01*
X19301491Y-11074579D02*
X19291968Y-11055531D01*
X19291968Y-11055531D02*
X19282444Y-11026960D01*
X19282444Y-11026960D02*
X19272920Y-10979341D01*
X19272920Y-10979341D02*
X19272920Y-10941246D01*
X19272920Y-10941246D02*
X19282444Y-10893627D01*
X19282444Y-10893627D02*
X19291968Y-10865055D01*
X19291968Y-10865055D02*
X19301491Y-10846008D01*
X19301491Y-10846008D02*
X19320539Y-10817436D01*
X19320539Y-10817436D02*
X19330063Y-10807912D01*
X19511015Y-11036484D02*
X19396730Y-11036484D01*
X19453872Y-11036484D02*
X19453872Y-10836484D01*
X19453872Y-10836484D02*
X19434825Y-10865055D01*
X19434825Y-10865055D02*
X19415777Y-10884103D01*
X19415777Y-10884103D02*
X19396730Y-10893627D01*
X19682444Y-10836484D02*
X19644349Y-10836484D01*
X19644349Y-10836484D02*
X19625301Y-10846008D01*
X19625301Y-10846008D02*
X19615777Y-10855531D01*
X19615777Y-10855531D02*
X19596730Y-10884103D01*
X19596730Y-10884103D02*
X19587206Y-10922198D01*
X19587206Y-10922198D02*
X19587206Y-10998389D01*
X19587206Y-10998389D02*
X19596730Y-11017436D01*
X19596730Y-11017436D02*
X19606253Y-11026960D01*
X19606253Y-11026960D02*
X19625301Y-11036484D01*
X19625301Y-11036484D02*
X19663396Y-11036484D01*
X19663396Y-11036484D02*
X19682444Y-11026960D01*
X19682444Y-11026960D02*
X19691968Y-11017436D01*
X19691968Y-11017436D02*
X19701491Y-10998389D01*
X19701491Y-10998389D02*
X19701491Y-10950770D01*
X19701491Y-10950770D02*
X19691968Y-10931722D01*
X19691968Y-10931722D02*
X19682444Y-10922198D01*
X19682444Y-10922198D02*
X19663396Y-10912674D01*
X19663396Y-10912674D02*
X19625301Y-10912674D01*
X19625301Y-10912674D02*
X19606253Y-10922198D01*
X19606253Y-10922198D02*
X19596730Y-10931722D01*
X19596730Y-10931722D02*
X19587206Y-10950770D01*
X19825301Y-10836484D02*
X19844349Y-10836484D01*
X19844349Y-10836484D02*
X19863396Y-10846008D01*
X19863396Y-10846008D02*
X19872920Y-10855531D01*
X19872920Y-10855531D02*
X19882444Y-10874579D01*
X19882444Y-10874579D02*
X19891968Y-10912674D01*
X19891968Y-10912674D02*
X19891968Y-10960293D01*
X19891968Y-10960293D02*
X19882444Y-10998389D01*
X19882444Y-10998389D02*
X19872920Y-11017436D01*
X19872920Y-11017436D02*
X19863396Y-11026960D01*
X19863396Y-11026960D02*
X19844349Y-11036484D01*
X19844349Y-11036484D02*
X19825301Y-11036484D01*
X19825301Y-11036484D02*
X19806253Y-11026960D01*
X19806253Y-11026960D02*
X19796730Y-11017436D01*
X19796730Y-11017436D02*
X19787206Y-10998389D01*
X19787206Y-10998389D02*
X19777682Y-10960293D01*
X19777682Y-10960293D02*
X19777682Y-10912674D01*
X19777682Y-10912674D02*
X19787206Y-10874579D01*
X19787206Y-10874579D02*
X19796730Y-10855531D01*
X19796730Y-10855531D02*
X19806253Y-10846008D01*
X19806253Y-10846008D02*
X19825301Y-10836484D01*
X20130063Y-11036484D02*
X20130063Y-10836484D01*
X20215777Y-11036484D02*
X20215777Y-10931722D01*
X20215777Y-10931722D02*
X20206253Y-10912674D01*
X20206253Y-10912674D02*
X20187206Y-10903150D01*
X20187206Y-10903150D02*
X20158634Y-10903150D01*
X20158634Y-10903150D02*
X20139587Y-10912674D01*
X20139587Y-10912674D02*
X20130063Y-10922198D01*
X20339587Y-11036484D02*
X20320539Y-11026960D01*
X20320539Y-11026960D02*
X20311015Y-11017436D01*
X20311015Y-11017436D02*
X20301492Y-10998389D01*
X20301492Y-10998389D02*
X20301492Y-10941246D01*
X20301492Y-10941246D02*
X20311015Y-10922198D01*
X20311015Y-10922198D02*
X20320539Y-10912674D01*
X20320539Y-10912674D02*
X20339587Y-10903150D01*
X20339587Y-10903150D02*
X20368158Y-10903150D01*
X20368158Y-10903150D02*
X20387206Y-10912674D01*
X20387206Y-10912674D02*
X20396730Y-10922198D01*
X20396730Y-10922198D02*
X20406253Y-10941246D01*
X20406253Y-10941246D02*
X20406253Y-10998389D01*
X20406253Y-10998389D02*
X20396730Y-11017436D01*
X20396730Y-11017436D02*
X20387206Y-11026960D01*
X20387206Y-11026960D02*
X20368158Y-11036484D01*
X20368158Y-11036484D02*
X20339587Y-11036484D01*
X20520539Y-11036484D02*
X20501492Y-11026960D01*
X20501492Y-11026960D02*
X20491968Y-11007912D01*
X20491968Y-11007912D02*
X20491968Y-10836484D01*
X20672920Y-11026960D02*
X20653873Y-11036484D01*
X20653873Y-11036484D02*
X20615777Y-11036484D01*
X20615777Y-11036484D02*
X20596730Y-11026960D01*
X20596730Y-11026960D02*
X20587206Y-11007912D01*
X20587206Y-11007912D02*
X20587206Y-10931722D01*
X20587206Y-10931722D02*
X20596730Y-10912674D01*
X20596730Y-10912674D02*
X20615777Y-10903150D01*
X20615777Y-10903150D02*
X20653873Y-10903150D01*
X20653873Y-10903150D02*
X20672920Y-10912674D01*
X20672920Y-10912674D02*
X20682444Y-10931722D01*
X20682444Y-10931722D02*
X20682444Y-10950770D01*
X20682444Y-10950770D02*
X20587206Y-10969817D01*
X20758634Y-11026960D02*
X20777682Y-11036484D01*
X20777682Y-11036484D02*
X20815777Y-11036484D01*
X20815777Y-11036484D02*
X20834825Y-11026960D01*
X20834825Y-11026960D02*
X20844349Y-11007912D01*
X20844349Y-11007912D02*
X20844349Y-10998389D01*
X20844349Y-10998389D02*
X20834825Y-10979341D01*
X20834825Y-10979341D02*
X20815777Y-10969817D01*
X20815777Y-10969817D02*
X20787206Y-10969817D01*
X20787206Y-10969817D02*
X20768158Y-10960293D01*
X20768158Y-10960293D02*
X20758634Y-10941246D01*
X20758634Y-10941246D02*
X20758634Y-10931722D01*
X20758634Y-10931722D02*
X20768158Y-10912674D01*
X20768158Y-10912674D02*
X20787206Y-10903150D01*
X20787206Y-10903150D02*
X20815777Y-10903150D01*
X20815777Y-10903150D02*
X20834825Y-10912674D01*
X20911015Y-11112674D02*
X20920539Y-11103150D01*
X20920539Y-11103150D02*
X20939587Y-11074579D01*
X20939587Y-11074579D02*
X20949111Y-11055531D01*
X20949111Y-11055531D02*
X20958634Y-11026960D01*
X20958634Y-11026960D02*
X20968158Y-10979341D01*
X20968158Y-10979341D02*
X20968158Y-10941246D01*
X20968158Y-10941246D02*
X20958634Y-10893627D01*
X20958634Y-10893627D02*
X20949111Y-10865055D01*
X20949111Y-10865055D02*
X20939587Y-10846008D01*
X20939587Y-10846008D02*
X20920539Y-10817436D01*
X20920539Y-10817436D02*
X20911015Y-10807912D01*
D10*
X15755000Y-11209000D02*
G75*
G02*
X15715000Y-11209000I-20000J0D01*
G01*
X15715000Y-11209000D02*
G75*
G02*
X15755000Y-11209000I20000J0D01*
G01*
D11*
X16053872Y-11100484D02*
X16072920Y-11100484D01*
X16072920Y-11100484D02*
X16091967Y-11110008D01*
X16091967Y-11110008D02*
X16101491Y-11119531D01*
X16101491Y-11119531D02*
X16111015Y-11138579D01*
X16111015Y-11138579D02*
X16120539Y-11176674D01*
X16120539Y-11176674D02*
X16120539Y-11224293D01*
X16120539Y-11224293D02*
X16111015Y-11262388D01*
X16111015Y-11262388D02*
X16101491Y-11281436D01*
X16101491Y-11281436D02*
X16091967Y-11290960D01*
X16091967Y-11290960D02*
X16072920Y-11300484D01*
X16072920Y-11300484D02*
X16053872Y-11300484D01*
X16053872Y-11300484D02*
X16034824Y-11290960D01*
X16034824Y-11290960D02*
X16025301Y-11281436D01*
X16025301Y-11281436D02*
X16015777Y-11262388D01*
X16015777Y-11262388D02*
X16006253Y-11224293D01*
X16006253Y-11224293D02*
X16006253Y-11176674D01*
X16006253Y-11176674D02*
X16015777Y-11138579D01*
X16015777Y-11138579D02*
X16025301Y-11119531D01*
X16025301Y-11119531D02*
X16034824Y-11110008D01*
X16034824Y-11110008D02*
X16053872Y-11100484D01*
X16206253Y-11281436D02*
X16215777Y-11290960D01*
X16215777Y-11290960D02*
X16206253Y-11300484D01*
X16206253Y-11300484D02*
X16196729Y-11290960D01*
X16196729Y-11290960D02*
X16206253Y-11281436D01*
X16206253Y-11281436D02*
X16206253Y-11300484D01*
X16387205Y-11167150D02*
X16387205Y-11300484D01*
X16339586Y-11090960D02*
X16291967Y-11233817D01*
X16291967Y-11233817D02*
X16415777Y-11233817D01*
X16530062Y-11100484D02*
X16549110Y-11100484D01*
X16549110Y-11100484D02*
X16568158Y-11110008D01*
X16568158Y-11110008D02*
X16577682Y-11119531D01*
X16577682Y-11119531D02*
X16587205Y-11138579D01*
X16587205Y-11138579D02*
X16596729Y-11176674D01*
X16596729Y-11176674D02*
X16596729Y-11224293D01*
X16596729Y-11224293D02*
X16587205Y-11262388D01*
X16587205Y-11262388D02*
X16577682Y-11281436D01*
X16577682Y-11281436D02*
X16568158Y-11290960D01*
X16568158Y-11290960D02*
X16549110Y-11300484D01*
X16549110Y-11300484D02*
X16530062Y-11300484D01*
X16530062Y-11300484D02*
X16511015Y-11290960D01*
X16511015Y-11290960D02*
X16501491Y-11281436D01*
X16501491Y-11281436D02*
X16491967Y-11262388D01*
X16491967Y-11262388D02*
X16482443Y-11224293D01*
X16482443Y-11224293D02*
X16482443Y-11176674D01*
X16482443Y-11176674D02*
X16491967Y-11138579D01*
X16491967Y-11138579D02*
X16501491Y-11119531D01*
X16501491Y-11119531D02*
X16511015Y-11110008D01*
X16511015Y-11110008D02*
X16530062Y-11100484D01*
X16720539Y-11100484D02*
X16739586Y-11100484D01*
X16739586Y-11100484D02*
X16758634Y-11110008D01*
X16758634Y-11110008D02*
X16768158Y-11119531D01*
X16768158Y-11119531D02*
X16777682Y-11138579D01*
X16777682Y-11138579D02*
X16787205Y-11176674D01*
X16787205Y-11176674D02*
X16787205Y-11224293D01*
X16787205Y-11224293D02*
X16777682Y-11262388D01*
X16777682Y-11262388D02*
X16768158Y-11281436D01*
X16768158Y-11281436D02*
X16758634Y-11290960D01*
X16758634Y-11290960D02*
X16739586Y-11300484D01*
X16739586Y-11300484D02*
X16720539Y-11300484D01*
X16720539Y-11300484D02*
X16701491Y-11290960D01*
X16701491Y-11290960D02*
X16691967Y-11281436D01*
X16691967Y-11281436D02*
X16682443Y-11262388D01*
X16682443Y-11262388D02*
X16672920Y-11224293D01*
X16672920Y-11224293D02*
X16672920Y-11176674D01*
X16672920Y-11176674D02*
X16682443Y-11138579D01*
X16682443Y-11138579D02*
X16691967Y-11119531D01*
X16691967Y-11119531D02*
X16701491Y-11110008D01*
X16701491Y-11110008D02*
X16720539Y-11100484D01*
X16872920Y-11300484D02*
X16872920Y-11167150D01*
X16872920Y-11186198D02*
X16882444Y-11176674D01*
X16882444Y-11176674D02*
X16901491Y-11167150D01*
X16901491Y-11167150D02*
X16930063Y-11167150D01*
X16930063Y-11167150D02*
X16949110Y-11176674D01*
X16949110Y-11176674D02*
X16958634Y-11195722D01*
X16958634Y-11195722D02*
X16958634Y-11300484D01*
X16958634Y-11195722D02*
X16968158Y-11176674D01*
X16968158Y-11176674D02*
X16987205Y-11167150D01*
X16987205Y-11167150D02*
X17015777Y-11167150D01*
X17015777Y-11167150D02*
X17034825Y-11176674D01*
X17034825Y-11176674D02*
X17044348Y-11195722D01*
X17044348Y-11195722D02*
X17044348Y-11300484D01*
X17139586Y-11300484D02*
X17139586Y-11167150D01*
X17139586Y-11186198D02*
X17149110Y-11176674D01*
X17149110Y-11176674D02*
X17168158Y-11167150D01*
X17168158Y-11167150D02*
X17196729Y-11167150D01*
X17196729Y-11167150D02*
X17215777Y-11176674D01*
X17215777Y-11176674D02*
X17225301Y-11195722D01*
X17225301Y-11195722D02*
X17225301Y-11300484D01*
X17225301Y-11195722D02*
X17234825Y-11176674D01*
X17234825Y-11176674D02*
X17253872Y-11167150D01*
X17253872Y-11167150D02*
X17282444Y-11167150D01*
X17282444Y-11167150D02*
X17301491Y-11176674D01*
X17301491Y-11176674D02*
X17311015Y-11195722D01*
X17311015Y-11195722D02*
X17311015Y-11300484D01*
X17701491Y-11090960D02*
X17530063Y-11348103D01*
X17958634Y-11100484D02*
X17977682Y-11100484D01*
X17977682Y-11100484D02*
X17996729Y-11110008D01*
X17996729Y-11110008D02*
X18006253Y-11119531D01*
X18006253Y-11119531D02*
X18015777Y-11138579D01*
X18015777Y-11138579D02*
X18025301Y-11176674D01*
X18025301Y-11176674D02*
X18025301Y-11224293D01*
X18025301Y-11224293D02*
X18015777Y-11262388D01*
X18015777Y-11262388D02*
X18006253Y-11281436D01*
X18006253Y-11281436D02*
X17996729Y-11290960D01*
X17996729Y-11290960D02*
X17977682Y-11300484D01*
X17977682Y-11300484D02*
X17958634Y-11300484D01*
X17958634Y-11300484D02*
X17939587Y-11290960D01*
X17939587Y-11290960D02*
X17930063Y-11281436D01*
X17930063Y-11281436D02*
X17920539Y-11262388D01*
X17920539Y-11262388D02*
X17911015Y-11224293D01*
X17911015Y-11224293D02*
X17911015Y-11176674D01*
X17911015Y-11176674D02*
X17920539Y-11138579D01*
X17920539Y-11138579D02*
X17930063Y-11119531D01*
X17930063Y-11119531D02*
X17939587Y-11110008D01*
X17939587Y-11110008D02*
X17958634Y-11100484D01*
X18111015Y-11281436D02*
X18120539Y-11290960D01*
X18120539Y-11290960D02*
X18111015Y-11300484D01*
X18111015Y-11300484D02*
X18101491Y-11290960D01*
X18101491Y-11290960D02*
X18111015Y-11281436D01*
X18111015Y-11281436D02*
X18111015Y-11300484D01*
X18244348Y-11100484D02*
X18263396Y-11100484D01*
X18263396Y-11100484D02*
X18282444Y-11110008D01*
X18282444Y-11110008D02*
X18291968Y-11119531D01*
X18291968Y-11119531D02*
X18301491Y-11138579D01*
X18301491Y-11138579D02*
X18311015Y-11176674D01*
X18311015Y-11176674D02*
X18311015Y-11224293D01*
X18311015Y-11224293D02*
X18301491Y-11262388D01*
X18301491Y-11262388D02*
X18291968Y-11281436D01*
X18291968Y-11281436D02*
X18282444Y-11290960D01*
X18282444Y-11290960D02*
X18263396Y-11300484D01*
X18263396Y-11300484D02*
X18244348Y-11300484D01*
X18244348Y-11300484D02*
X18225301Y-11290960D01*
X18225301Y-11290960D02*
X18215777Y-11281436D01*
X18215777Y-11281436D02*
X18206253Y-11262388D01*
X18206253Y-11262388D02*
X18196729Y-11224293D01*
X18196729Y-11224293D02*
X18196729Y-11176674D01*
X18196729Y-11176674D02*
X18206253Y-11138579D01*
X18206253Y-11138579D02*
X18215777Y-11119531D01*
X18215777Y-11119531D02*
X18225301Y-11110008D01*
X18225301Y-11110008D02*
X18244348Y-11100484D01*
X18501491Y-11300484D02*
X18387206Y-11300484D01*
X18444348Y-11300484D02*
X18444348Y-11100484D01*
X18444348Y-11100484D02*
X18425301Y-11129055D01*
X18425301Y-11129055D02*
X18406253Y-11148103D01*
X18406253Y-11148103D02*
X18387206Y-11157627D01*
X18682444Y-11100484D02*
X18587206Y-11100484D01*
X18587206Y-11100484D02*
X18577682Y-11195722D01*
X18577682Y-11195722D02*
X18587206Y-11186198D01*
X18587206Y-11186198D02*
X18606253Y-11176674D01*
X18606253Y-11176674D02*
X18653872Y-11176674D01*
X18653872Y-11176674D02*
X18672920Y-11186198D01*
X18672920Y-11186198D02*
X18682444Y-11195722D01*
X18682444Y-11195722D02*
X18691968Y-11214769D01*
X18691968Y-11214769D02*
X18691968Y-11262388D01*
X18691968Y-11262388D02*
X18682444Y-11281436D01*
X18682444Y-11281436D02*
X18672920Y-11290960D01*
X18672920Y-11290960D02*
X18653872Y-11300484D01*
X18653872Y-11300484D02*
X18606253Y-11300484D01*
X18606253Y-11300484D02*
X18587206Y-11290960D01*
X18587206Y-11290960D02*
X18577682Y-11281436D01*
X18758634Y-11100484D02*
X18891968Y-11100484D01*
X18891968Y-11100484D02*
X18806253Y-11300484D01*
X18958634Y-11100484D02*
X18958634Y-11138579D01*
X19034825Y-11100484D02*
X19034825Y-11138579D01*
X19330063Y-11376674D02*
X19320539Y-11367150D01*
X19320539Y-11367150D02*
X19301491Y-11338579D01*
X19301491Y-11338579D02*
X19291968Y-11319531D01*
X19291968Y-11319531D02*
X19282444Y-11290960D01*
X19282444Y-11290960D02*
X19272920Y-11243341D01*
X19272920Y-11243341D02*
X19272920Y-11205246D01*
X19272920Y-11205246D02*
X19282444Y-11157627D01*
X19282444Y-11157627D02*
X19291968Y-11129055D01*
X19291968Y-11129055D02*
X19301491Y-11110008D01*
X19301491Y-11110008D02*
X19320539Y-11081436D01*
X19320539Y-11081436D02*
X19330063Y-11071912D01*
X19511015Y-11300484D02*
X19396730Y-11300484D01*
X19453872Y-11300484D02*
X19453872Y-11100484D01*
X19453872Y-11100484D02*
X19434825Y-11129055D01*
X19434825Y-11129055D02*
X19415777Y-11148103D01*
X19415777Y-11148103D02*
X19396730Y-11157627D01*
X19606253Y-11300484D02*
X19644349Y-11300484D01*
X19644349Y-11300484D02*
X19663396Y-11290960D01*
X19663396Y-11290960D02*
X19672920Y-11281436D01*
X19672920Y-11281436D02*
X19691968Y-11252865D01*
X19691968Y-11252865D02*
X19701491Y-11214769D01*
X19701491Y-11214769D02*
X19701491Y-11138579D01*
X19701491Y-11138579D02*
X19691968Y-11119531D01*
X19691968Y-11119531D02*
X19682444Y-11110008D01*
X19682444Y-11110008D02*
X19663396Y-11100484D01*
X19663396Y-11100484D02*
X19625301Y-11100484D01*
X19625301Y-11100484D02*
X19606253Y-11110008D01*
X19606253Y-11110008D02*
X19596730Y-11119531D01*
X19596730Y-11119531D02*
X19587206Y-11138579D01*
X19587206Y-11138579D02*
X19587206Y-11186198D01*
X19587206Y-11186198D02*
X19596730Y-11205246D01*
X19596730Y-11205246D02*
X19606253Y-11214769D01*
X19606253Y-11214769D02*
X19625301Y-11224293D01*
X19625301Y-11224293D02*
X19663396Y-11224293D01*
X19663396Y-11224293D02*
X19682444Y-11214769D01*
X19682444Y-11214769D02*
X19691968Y-11205246D01*
X19691968Y-11205246D02*
X19701491Y-11186198D01*
X19939587Y-11300484D02*
X19939587Y-11100484D01*
X20025301Y-11300484D02*
X20025301Y-11195722D01*
X20025301Y-11195722D02*
X20015777Y-11176674D01*
X20015777Y-11176674D02*
X19996730Y-11167150D01*
X19996730Y-11167150D02*
X19968158Y-11167150D01*
X19968158Y-11167150D02*
X19949111Y-11176674D01*
X19949111Y-11176674D02*
X19939587Y-11186198D01*
X20149111Y-11300484D02*
X20130063Y-11290960D01*
X20130063Y-11290960D02*
X20120539Y-11281436D01*
X20120539Y-11281436D02*
X20111015Y-11262388D01*
X20111015Y-11262388D02*
X20111015Y-11205246D01*
X20111015Y-11205246D02*
X20120539Y-11186198D01*
X20120539Y-11186198D02*
X20130063Y-11176674D01*
X20130063Y-11176674D02*
X20149111Y-11167150D01*
X20149111Y-11167150D02*
X20177682Y-11167150D01*
X20177682Y-11167150D02*
X20196730Y-11176674D01*
X20196730Y-11176674D02*
X20206253Y-11186198D01*
X20206253Y-11186198D02*
X20215777Y-11205246D01*
X20215777Y-11205246D02*
X20215777Y-11262388D01*
X20215777Y-11262388D02*
X20206253Y-11281436D01*
X20206253Y-11281436D02*
X20196730Y-11290960D01*
X20196730Y-11290960D02*
X20177682Y-11300484D01*
X20177682Y-11300484D02*
X20149111Y-11300484D01*
X20330063Y-11300484D02*
X20311015Y-11290960D01*
X20311015Y-11290960D02*
X20301492Y-11271912D01*
X20301492Y-11271912D02*
X20301492Y-11100484D01*
X20482444Y-11290960D02*
X20463396Y-11300484D01*
X20463396Y-11300484D02*
X20425301Y-11300484D01*
X20425301Y-11300484D02*
X20406253Y-11290960D01*
X20406253Y-11290960D02*
X20396730Y-11271912D01*
X20396730Y-11271912D02*
X20396730Y-11195722D01*
X20396730Y-11195722D02*
X20406253Y-11176674D01*
X20406253Y-11176674D02*
X20425301Y-11167150D01*
X20425301Y-11167150D02*
X20463396Y-11167150D01*
X20463396Y-11167150D02*
X20482444Y-11176674D01*
X20482444Y-11176674D02*
X20491968Y-11195722D01*
X20491968Y-11195722D02*
X20491968Y-11214769D01*
X20491968Y-11214769D02*
X20396730Y-11233817D01*
X20568158Y-11290960D02*
X20587206Y-11300484D01*
X20587206Y-11300484D02*
X20625301Y-11300484D01*
X20625301Y-11300484D02*
X20644349Y-11290960D01*
X20644349Y-11290960D02*
X20653873Y-11271912D01*
X20653873Y-11271912D02*
X20653873Y-11262388D01*
X20653873Y-11262388D02*
X20644349Y-11243341D01*
X20644349Y-11243341D02*
X20625301Y-11233817D01*
X20625301Y-11233817D02*
X20596730Y-11233817D01*
X20596730Y-11233817D02*
X20577682Y-11224293D01*
X20577682Y-11224293D02*
X20568158Y-11205246D01*
X20568158Y-11205246D02*
X20568158Y-11195722D01*
X20568158Y-11195722D02*
X20577682Y-11176674D01*
X20577682Y-11176674D02*
X20596730Y-11167150D01*
X20596730Y-11167150D02*
X20625301Y-11167150D01*
X20625301Y-11167150D02*
X20644349Y-11176674D01*
X20720539Y-11376674D02*
X20730063Y-11367150D01*
X20730063Y-11367150D02*
X20749111Y-11338579D01*
X20749111Y-11338579D02*
X20758634Y-11319531D01*
X20758634Y-11319531D02*
X20768158Y-11290960D01*
X20768158Y-11290960D02*
X20777682Y-11243341D01*
X20777682Y-11243341D02*
X20777682Y-11205246D01*
X20777682Y-11205246D02*
X20768158Y-11157627D01*
X20768158Y-11157627D02*
X20758634Y-11129055D01*
X20758634Y-11129055D02*
X20749111Y-11110008D01*
X20749111Y-11110008D02*
X20730063Y-11081436D01*
X20730063Y-11081436D02*
X20720539Y-11071912D01*
D10*
X15710000Y-11428000D02*
X15710000Y-11518000D01*
X15665000Y-11473000D02*
X15755000Y-11473000D01*
D11*
X16053872Y-11364484D02*
X16072920Y-11364484D01*
X16072920Y-11364484D02*
X16091967Y-11374008D01*
X16091967Y-11374008D02*
X16101491Y-11383531D01*
X16101491Y-11383531D02*
X16111015Y-11402579D01*
X16111015Y-11402579D02*
X16120539Y-11440674D01*
X16120539Y-11440674D02*
X16120539Y-11488293D01*
X16120539Y-11488293D02*
X16111015Y-11526388D01*
X16111015Y-11526388D02*
X16101491Y-11545436D01*
X16101491Y-11545436D02*
X16091967Y-11554960D01*
X16091967Y-11554960D02*
X16072920Y-11564484D01*
X16072920Y-11564484D02*
X16053872Y-11564484D01*
X16053872Y-11564484D02*
X16034824Y-11554960D01*
X16034824Y-11554960D02*
X16025301Y-11545436D01*
X16025301Y-11545436D02*
X16015777Y-11526388D01*
X16015777Y-11526388D02*
X16006253Y-11488293D01*
X16006253Y-11488293D02*
X16006253Y-11440674D01*
X16006253Y-11440674D02*
X16015777Y-11402579D01*
X16015777Y-11402579D02*
X16025301Y-11383531D01*
X16025301Y-11383531D02*
X16034824Y-11374008D01*
X16034824Y-11374008D02*
X16053872Y-11364484D01*
X16206253Y-11545436D02*
X16215777Y-11554960D01*
X16215777Y-11554960D02*
X16206253Y-11564484D01*
X16206253Y-11564484D02*
X16196729Y-11554960D01*
X16196729Y-11554960D02*
X16206253Y-11545436D01*
X16206253Y-11545436D02*
X16206253Y-11564484D01*
X16311015Y-11564484D02*
X16349110Y-11564484D01*
X16349110Y-11564484D02*
X16368158Y-11554960D01*
X16368158Y-11554960D02*
X16377682Y-11545436D01*
X16377682Y-11545436D02*
X16396729Y-11516865D01*
X16396729Y-11516865D02*
X16406253Y-11478769D01*
X16406253Y-11478769D02*
X16406253Y-11402579D01*
X16406253Y-11402579D02*
X16396729Y-11383531D01*
X16396729Y-11383531D02*
X16387205Y-11374008D01*
X16387205Y-11374008D02*
X16368158Y-11364484D01*
X16368158Y-11364484D02*
X16330062Y-11364484D01*
X16330062Y-11364484D02*
X16311015Y-11374008D01*
X16311015Y-11374008D02*
X16301491Y-11383531D01*
X16301491Y-11383531D02*
X16291967Y-11402579D01*
X16291967Y-11402579D02*
X16291967Y-11450198D01*
X16291967Y-11450198D02*
X16301491Y-11469246D01*
X16301491Y-11469246D02*
X16311015Y-11478769D01*
X16311015Y-11478769D02*
X16330062Y-11488293D01*
X16330062Y-11488293D02*
X16368158Y-11488293D01*
X16368158Y-11488293D02*
X16387205Y-11478769D01*
X16387205Y-11478769D02*
X16396729Y-11469246D01*
X16396729Y-11469246D02*
X16406253Y-11450198D01*
X16530062Y-11364484D02*
X16549110Y-11364484D01*
X16549110Y-11364484D02*
X16568158Y-11374008D01*
X16568158Y-11374008D02*
X16577682Y-11383531D01*
X16577682Y-11383531D02*
X16587205Y-11402579D01*
X16587205Y-11402579D02*
X16596729Y-11440674D01*
X16596729Y-11440674D02*
X16596729Y-11488293D01*
X16596729Y-11488293D02*
X16587205Y-11526388D01*
X16587205Y-11526388D02*
X16577682Y-11545436D01*
X16577682Y-11545436D02*
X16568158Y-11554960D01*
X16568158Y-11554960D02*
X16549110Y-11564484D01*
X16549110Y-11564484D02*
X16530062Y-11564484D01*
X16530062Y-11564484D02*
X16511015Y-11554960D01*
X16511015Y-11554960D02*
X16501491Y-11545436D01*
X16501491Y-11545436D02*
X16491967Y-11526388D01*
X16491967Y-11526388D02*
X16482443Y-11488293D01*
X16482443Y-11488293D02*
X16482443Y-11440674D01*
X16482443Y-11440674D02*
X16491967Y-11402579D01*
X16491967Y-11402579D02*
X16501491Y-11383531D01*
X16501491Y-11383531D02*
X16511015Y-11374008D01*
X16511015Y-11374008D02*
X16530062Y-11364484D01*
X16720539Y-11364484D02*
X16739586Y-11364484D01*
X16739586Y-11364484D02*
X16758634Y-11374008D01*
X16758634Y-11374008D02*
X16768158Y-11383531D01*
X16768158Y-11383531D02*
X16777682Y-11402579D01*
X16777682Y-11402579D02*
X16787205Y-11440674D01*
X16787205Y-11440674D02*
X16787205Y-11488293D01*
X16787205Y-11488293D02*
X16777682Y-11526388D01*
X16777682Y-11526388D02*
X16768158Y-11545436D01*
X16768158Y-11545436D02*
X16758634Y-11554960D01*
X16758634Y-11554960D02*
X16739586Y-11564484D01*
X16739586Y-11564484D02*
X16720539Y-11564484D01*
X16720539Y-11564484D02*
X16701491Y-11554960D01*
X16701491Y-11554960D02*
X16691967Y-11545436D01*
X16691967Y-11545436D02*
X16682443Y-11526388D01*
X16682443Y-11526388D02*
X16672920Y-11488293D01*
X16672920Y-11488293D02*
X16672920Y-11440674D01*
X16672920Y-11440674D02*
X16682443Y-11402579D01*
X16682443Y-11402579D02*
X16691967Y-11383531D01*
X16691967Y-11383531D02*
X16701491Y-11374008D01*
X16701491Y-11374008D02*
X16720539Y-11364484D01*
X16872920Y-11564484D02*
X16872920Y-11431150D01*
X16872920Y-11450198D02*
X16882444Y-11440674D01*
X16882444Y-11440674D02*
X16901491Y-11431150D01*
X16901491Y-11431150D02*
X16930063Y-11431150D01*
X16930063Y-11431150D02*
X16949110Y-11440674D01*
X16949110Y-11440674D02*
X16958634Y-11459722D01*
X16958634Y-11459722D02*
X16958634Y-11564484D01*
X16958634Y-11459722D02*
X16968158Y-11440674D01*
X16968158Y-11440674D02*
X16987205Y-11431150D01*
X16987205Y-11431150D02*
X17015777Y-11431150D01*
X17015777Y-11431150D02*
X17034825Y-11440674D01*
X17034825Y-11440674D02*
X17044348Y-11459722D01*
X17044348Y-11459722D02*
X17044348Y-11564484D01*
X17139586Y-11564484D02*
X17139586Y-11431150D01*
X17139586Y-11450198D02*
X17149110Y-11440674D01*
X17149110Y-11440674D02*
X17168158Y-11431150D01*
X17168158Y-11431150D02*
X17196729Y-11431150D01*
X17196729Y-11431150D02*
X17215777Y-11440674D01*
X17215777Y-11440674D02*
X17225301Y-11459722D01*
X17225301Y-11459722D02*
X17225301Y-11564484D01*
X17225301Y-11459722D02*
X17234825Y-11440674D01*
X17234825Y-11440674D02*
X17253872Y-11431150D01*
X17253872Y-11431150D02*
X17282444Y-11431150D01*
X17282444Y-11431150D02*
X17301491Y-11440674D01*
X17301491Y-11440674D02*
X17311015Y-11459722D01*
X17311015Y-11459722D02*
X17311015Y-11564484D01*
X17701491Y-11354960D02*
X17530063Y-11612103D01*
X17958634Y-11364484D02*
X17977682Y-11364484D01*
X17977682Y-11364484D02*
X17996729Y-11374008D01*
X17996729Y-11374008D02*
X18006253Y-11383531D01*
X18006253Y-11383531D02*
X18015777Y-11402579D01*
X18015777Y-11402579D02*
X18025301Y-11440674D01*
X18025301Y-11440674D02*
X18025301Y-11488293D01*
X18025301Y-11488293D02*
X18015777Y-11526388D01*
X18015777Y-11526388D02*
X18006253Y-11545436D01*
X18006253Y-11545436D02*
X17996729Y-11554960D01*
X17996729Y-11554960D02*
X17977682Y-11564484D01*
X17977682Y-11564484D02*
X17958634Y-11564484D01*
X17958634Y-11564484D02*
X17939587Y-11554960D01*
X17939587Y-11554960D02*
X17930063Y-11545436D01*
X17930063Y-11545436D02*
X17920539Y-11526388D01*
X17920539Y-11526388D02*
X17911015Y-11488293D01*
X17911015Y-11488293D02*
X17911015Y-11440674D01*
X17911015Y-11440674D02*
X17920539Y-11402579D01*
X17920539Y-11402579D02*
X17930063Y-11383531D01*
X17930063Y-11383531D02*
X17939587Y-11374008D01*
X17939587Y-11374008D02*
X17958634Y-11364484D01*
X18111015Y-11545436D02*
X18120539Y-11554960D01*
X18120539Y-11554960D02*
X18111015Y-11564484D01*
X18111015Y-11564484D02*
X18101491Y-11554960D01*
X18101491Y-11554960D02*
X18111015Y-11545436D01*
X18111015Y-11545436D02*
X18111015Y-11564484D01*
X18244348Y-11364484D02*
X18263396Y-11364484D01*
X18263396Y-11364484D02*
X18282444Y-11374008D01*
X18282444Y-11374008D02*
X18291968Y-11383531D01*
X18291968Y-11383531D02*
X18301491Y-11402579D01*
X18301491Y-11402579D02*
X18311015Y-11440674D01*
X18311015Y-11440674D02*
X18311015Y-11488293D01*
X18311015Y-11488293D02*
X18301491Y-11526388D01*
X18301491Y-11526388D02*
X18291968Y-11545436D01*
X18291968Y-11545436D02*
X18282444Y-11554960D01*
X18282444Y-11554960D02*
X18263396Y-11564484D01*
X18263396Y-11564484D02*
X18244348Y-11564484D01*
X18244348Y-11564484D02*
X18225301Y-11554960D01*
X18225301Y-11554960D02*
X18215777Y-11545436D01*
X18215777Y-11545436D02*
X18206253Y-11526388D01*
X18206253Y-11526388D02*
X18196729Y-11488293D01*
X18196729Y-11488293D02*
X18196729Y-11440674D01*
X18196729Y-11440674D02*
X18206253Y-11402579D01*
X18206253Y-11402579D02*
X18215777Y-11383531D01*
X18215777Y-11383531D02*
X18225301Y-11374008D01*
X18225301Y-11374008D02*
X18244348Y-11364484D01*
X18377682Y-11364484D02*
X18501491Y-11364484D01*
X18501491Y-11364484D02*
X18434825Y-11440674D01*
X18434825Y-11440674D02*
X18463396Y-11440674D01*
X18463396Y-11440674D02*
X18482444Y-11450198D01*
X18482444Y-11450198D02*
X18491968Y-11459722D01*
X18491968Y-11459722D02*
X18501491Y-11478769D01*
X18501491Y-11478769D02*
X18501491Y-11526388D01*
X18501491Y-11526388D02*
X18491968Y-11545436D01*
X18491968Y-11545436D02*
X18482444Y-11554960D01*
X18482444Y-11554960D02*
X18463396Y-11564484D01*
X18463396Y-11564484D02*
X18406253Y-11564484D01*
X18406253Y-11564484D02*
X18387206Y-11554960D01*
X18387206Y-11554960D02*
X18377682Y-11545436D01*
X18682444Y-11364484D02*
X18587206Y-11364484D01*
X18587206Y-11364484D02*
X18577682Y-11459722D01*
X18577682Y-11459722D02*
X18587206Y-11450198D01*
X18587206Y-11450198D02*
X18606253Y-11440674D01*
X18606253Y-11440674D02*
X18653872Y-11440674D01*
X18653872Y-11440674D02*
X18672920Y-11450198D01*
X18672920Y-11450198D02*
X18682444Y-11459722D01*
X18682444Y-11459722D02*
X18691968Y-11478769D01*
X18691968Y-11478769D02*
X18691968Y-11526388D01*
X18691968Y-11526388D02*
X18682444Y-11545436D01*
X18682444Y-11545436D02*
X18672920Y-11554960D01*
X18672920Y-11554960D02*
X18653872Y-11564484D01*
X18653872Y-11564484D02*
X18606253Y-11564484D01*
X18606253Y-11564484D02*
X18587206Y-11554960D01*
X18587206Y-11554960D02*
X18577682Y-11545436D01*
X18863396Y-11431150D02*
X18863396Y-11564484D01*
X18815777Y-11354960D02*
X18768158Y-11497817D01*
X18768158Y-11497817D02*
X18891968Y-11497817D01*
X18958634Y-11364484D02*
X18958634Y-11402579D01*
X19034825Y-11364484D02*
X19034825Y-11402579D01*
X19330063Y-11640674D02*
X19320539Y-11631150D01*
X19320539Y-11631150D02*
X19301491Y-11602579D01*
X19301491Y-11602579D02*
X19291968Y-11583531D01*
X19291968Y-11583531D02*
X19282444Y-11554960D01*
X19282444Y-11554960D02*
X19272920Y-11507341D01*
X19272920Y-11507341D02*
X19272920Y-11469246D01*
X19272920Y-11469246D02*
X19282444Y-11421627D01*
X19282444Y-11421627D02*
X19291968Y-11393055D01*
X19291968Y-11393055D02*
X19301491Y-11374008D01*
X19301491Y-11374008D02*
X19320539Y-11345436D01*
X19320539Y-11345436D02*
X19330063Y-11335912D01*
X19434825Y-11450198D02*
X19415777Y-11440674D01*
X19415777Y-11440674D02*
X19406253Y-11431150D01*
X19406253Y-11431150D02*
X19396730Y-11412103D01*
X19396730Y-11412103D02*
X19396730Y-11402579D01*
X19396730Y-11402579D02*
X19406253Y-11383531D01*
X19406253Y-11383531D02*
X19415777Y-11374008D01*
X19415777Y-11374008D02*
X19434825Y-11364484D01*
X19434825Y-11364484D02*
X19472920Y-11364484D01*
X19472920Y-11364484D02*
X19491968Y-11374008D01*
X19491968Y-11374008D02*
X19501491Y-11383531D01*
X19501491Y-11383531D02*
X19511015Y-11402579D01*
X19511015Y-11402579D02*
X19511015Y-11412103D01*
X19511015Y-11412103D02*
X19501491Y-11431150D01*
X19501491Y-11431150D02*
X19491968Y-11440674D01*
X19491968Y-11440674D02*
X19472920Y-11450198D01*
X19472920Y-11450198D02*
X19434825Y-11450198D01*
X19434825Y-11450198D02*
X19415777Y-11459722D01*
X19415777Y-11459722D02*
X19406253Y-11469246D01*
X19406253Y-11469246D02*
X19396730Y-11488293D01*
X19396730Y-11488293D02*
X19396730Y-11526388D01*
X19396730Y-11526388D02*
X19406253Y-11545436D01*
X19406253Y-11545436D02*
X19415777Y-11554960D01*
X19415777Y-11554960D02*
X19434825Y-11564484D01*
X19434825Y-11564484D02*
X19472920Y-11564484D01*
X19472920Y-11564484D02*
X19491968Y-11554960D01*
X19491968Y-11554960D02*
X19501491Y-11545436D01*
X19501491Y-11545436D02*
X19511015Y-11526388D01*
X19511015Y-11526388D02*
X19511015Y-11488293D01*
X19511015Y-11488293D02*
X19501491Y-11469246D01*
X19501491Y-11469246D02*
X19491968Y-11459722D01*
X19491968Y-11459722D02*
X19472920Y-11450198D01*
X19749111Y-11564484D02*
X19749111Y-11364484D01*
X19834825Y-11564484D02*
X19834825Y-11459722D01*
X19834825Y-11459722D02*
X19825301Y-11440674D01*
X19825301Y-11440674D02*
X19806253Y-11431150D01*
X19806253Y-11431150D02*
X19777682Y-11431150D01*
X19777682Y-11431150D02*
X19758634Y-11440674D01*
X19758634Y-11440674D02*
X19749111Y-11450198D01*
X19958634Y-11564484D02*
X19939587Y-11554960D01*
X19939587Y-11554960D02*
X19930063Y-11545436D01*
X19930063Y-11545436D02*
X19920539Y-11526388D01*
X19920539Y-11526388D02*
X19920539Y-11469246D01*
X19920539Y-11469246D02*
X19930063Y-11450198D01*
X19930063Y-11450198D02*
X19939587Y-11440674D01*
X19939587Y-11440674D02*
X19958634Y-11431150D01*
X19958634Y-11431150D02*
X19987206Y-11431150D01*
X19987206Y-11431150D02*
X20006253Y-11440674D01*
X20006253Y-11440674D02*
X20015777Y-11450198D01*
X20015777Y-11450198D02*
X20025301Y-11469246D01*
X20025301Y-11469246D02*
X20025301Y-11526388D01*
X20025301Y-11526388D02*
X20015777Y-11545436D01*
X20015777Y-11545436D02*
X20006253Y-11554960D01*
X20006253Y-11554960D02*
X19987206Y-11564484D01*
X19987206Y-11564484D02*
X19958634Y-11564484D01*
X20139587Y-11564484D02*
X20120539Y-11554960D01*
X20120539Y-11554960D02*
X20111015Y-11535912D01*
X20111015Y-11535912D02*
X20111015Y-11364484D01*
X20291968Y-11554960D02*
X20272920Y-11564484D01*
X20272920Y-11564484D02*
X20234825Y-11564484D01*
X20234825Y-11564484D02*
X20215777Y-11554960D01*
X20215777Y-11554960D02*
X20206253Y-11535912D01*
X20206253Y-11535912D02*
X20206253Y-11459722D01*
X20206253Y-11459722D02*
X20215777Y-11440674D01*
X20215777Y-11440674D02*
X20234825Y-11431150D01*
X20234825Y-11431150D02*
X20272920Y-11431150D01*
X20272920Y-11431150D02*
X20291968Y-11440674D01*
X20291968Y-11440674D02*
X20301492Y-11459722D01*
X20301492Y-11459722D02*
X20301492Y-11478769D01*
X20301492Y-11478769D02*
X20206253Y-11497817D01*
X20377682Y-11554960D02*
X20396730Y-11564484D01*
X20396730Y-11564484D02*
X20434825Y-11564484D01*
X20434825Y-11564484D02*
X20453873Y-11554960D01*
X20453873Y-11554960D02*
X20463396Y-11535912D01*
X20463396Y-11535912D02*
X20463396Y-11526388D01*
X20463396Y-11526388D02*
X20453873Y-11507341D01*
X20453873Y-11507341D02*
X20434825Y-11497817D01*
X20434825Y-11497817D02*
X20406253Y-11497817D01*
X20406253Y-11497817D02*
X20387206Y-11488293D01*
X20387206Y-11488293D02*
X20377682Y-11469246D01*
X20377682Y-11469246D02*
X20377682Y-11459722D01*
X20377682Y-11459722D02*
X20387206Y-11440674D01*
X20387206Y-11440674D02*
X20406253Y-11431150D01*
X20406253Y-11431150D02*
X20434825Y-11431150D01*
X20434825Y-11431150D02*
X20453873Y-11440674D01*
X20530063Y-11640674D02*
X20539587Y-11631150D01*
X20539587Y-11631150D02*
X20558634Y-11602579D01*
X20558634Y-11602579D02*
X20568158Y-11583531D01*
X20568158Y-11583531D02*
X20577682Y-11554960D01*
X20577682Y-11554960D02*
X20587206Y-11507341D01*
X20587206Y-11507341D02*
X20587206Y-11469246D01*
X20587206Y-11469246D02*
X20577682Y-11421627D01*
X20577682Y-11421627D02*
X20568158Y-11393055D01*
X20568158Y-11393055D02*
X20558634Y-11374008D01*
X20558634Y-11374008D02*
X20539587Y-11345436D01*
X20539587Y-11345436D02*
X20530063Y-11335912D01*
D10*
X15740356Y-11772356D02*
X15740356Y-11701644D01*
X15669644Y-11701644D01*
X15669644Y-11772356D01*
X15740356Y-11772356D01*
D11*
X16120539Y-11828484D02*
X16006253Y-11828484D01*
X16063396Y-11828484D02*
X16063396Y-11628484D01*
X16063396Y-11628484D02*
X16044348Y-11657055D01*
X16044348Y-11657055D02*
X16025301Y-11676103D01*
X16025301Y-11676103D02*
X16006253Y-11685627D01*
X16206253Y-11809436D02*
X16215777Y-11818960D01*
X16215777Y-11818960D02*
X16206253Y-11828484D01*
X16206253Y-11828484D02*
X16196729Y-11818960D01*
X16196729Y-11818960D02*
X16206253Y-11809436D01*
X16206253Y-11809436D02*
X16206253Y-11828484D01*
X16339586Y-11628484D02*
X16358634Y-11628484D01*
X16358634Y-11628484D02*
X16377682Y-11638008D01*
X16377682Y-11638008D02*
X16387205Y-11647531D01*
X16387205Y-11647531D02*
X16396729Y-11666579D01*
X16396729Y-11666579D02*
X16406253Y-11704674D01*
X16406253Y-11704674D02*
X16406253Y-11752293D01*
X16406253Y-11752293D02*
X16396729Y-11790388D01*
X16396729Y-11790388D02*
X16387205Y-11809436D01*
X16387205Y-11809436D02*
X16377682Y-11818960D01*
X16377682Y-11818960D02*
X16358634Y-11828484D01*
X16358634Y-11828484D02*
X16339586Y-11828484D01*
X16339586Y-11828484D02*
X16320539Y-11818960D01*
X16320539Y-11818960D02*
X16311015Y-11809436D01*
X16311015Y-11809436D02*
X16301491Y-11790388D01*
X16301491Y-11790388D02*
X16291967Y-11752293D01*
X16291967Y-11752293D02*
X16291967Y-11704674D01*
X16291967Y-11704674D02*
X16301491Y-11666579D01*
X16301491Y-11666579D02*
X16311015Y-11647531D01*
X16311015Y-11647531D02*
X16320539Y-11638008D01*
X16320539Y-11638008D02*
X16339586Y-11628484D01*
X16530062Y-11628484D02*
X16549110Y-11628484D01*
X16549110Y-11628484D02*
X16568158Y-11638008D01*
X16568158Y-11638008D02*
X16577682Y-11647531D01*
X16577682Y-11647531D02*
X16587205Y-11666579D01*
X16587205Y-11666579D02*
X16596729Y-11704674D01*
X16596729Y-11704674D02*
X16596729Y-11752293D01*
X16596729Y-11752293D02*
X16587205Y-11790388D01*
X16587205Y-11790388D02*
X16577682Y-11809436D01*
X16577682Y-11809436D02*
X16568158Y-11818960D01*
X16568158Y-11818960D02*
X16549110Y-11828484D01*
X16549110Y-11828484D02*
X16530062Y-11828484D01*
X16530062Y-11828484D02*
X16511015Y-11818960D01*
X16511015Y-11818960D02*
X16501491Y-11809436D01*
X16501491Y-11809436D02*
X16491967Y-11790388D01*
X16491967Y-11790388D02*
X16482443Y-11752293D01*
X16482443Y-11752293D02*
X16482443Y-11704674D01*
X16482443Y-11704674D02*
X16491967Y-11666579D01*
X16491967Y-11666579D02*
X16501491Y-11647531D01*
X16501491Y-11647531D02*
X16511015Y-11638008D01*
X16511015Y-11638008D02*
X16530062Y-11628484D01*
X16720539Y-11628484D02*
X16739586Y-11628484D01*
X16739586Y-11628484D02*
X16758634Y-11638008D01*
X16758634Y-11638008D02*
X16768158Y-11647531D01*
X16768158Y-11647531D02*
X16777682Y-11666579D01*
X16777682Y-11666579D02*
X16787205Y-11704674D01*
X16787205Y-11704674D02*
X16787205Y-11752293D01*
X16787205Y-11752293D02*
X16777682Y-11790388D01*
X16777682Y-11790388D02*
X16768158Y-11809436D01*
X16768158Y-11809436D02*
X16758634Y-11818960D01*
X16758634Y-11818960D02*
X16739586Y-11828484D01*
X16739586Y-11828484D02*
X16720539Y-11828484D01*
X16720539Y-11828484D02*
X16701491Y-11818960D01*
X16701491Y-11818960D02*
X16691967Y-11809436D01*
X16691967Y-11809436D02*
X16682443Y-11790388D01*
X16682443Y-11790388D02*
X16672920Y-11752293D01*
X16672920Y-11752293D02*
X16672920Y-11704674D01*
X16672920Y-11704674D02*
X16682443Y-11666579D01*
X16682443Y-11666579D02*
X16691967Y-11647531D01*
X16691967Y-11647531D02*
X16701491Y-11638008D01*
X16701491Y-11638008D02*
X16720539Y-11628484D01*
X16872920Y-11828484D02*
X16872920Y-11695150D01*
X16872920Y-11714198D02*
X16882444Y-11704674D01*
X16882444Y-11704674D02*
X16901491Y-11695150D01*
X16901491Y-11695150D02*
X16930063Y-11695150D01*
X16930063Y-11695150D02*
X16949110Y-11704674D01*
X16949110Y-11704674D02*
X16958634Y-11723722D01*
X16958634Y-11723722D02*
X16958634Y-11828484D01*
X16958634Y-11723722D02*
X16968158Y-11704674D01*
X16968158Y-11704674D02*
X16987205Y-11695150D01*
X16987205Y-11695150D02*
X17015777Y-11695150D01*
X17015777Y-11695150D02*
X17034825Y-11704674D01*
X17034825Y-11704674D02*
X17044348Y-11723722D01*
X17044348Y-11723722D02*
X17044348Y-11828484D01*
X17139586Y-11828484D02*
X17139586Y-11695150D01*
X17139586Y-11714198D02*
X17149110Y-11704674D01*
X17149110Y-11704674D02*
X17168158Y-11695150D01*
X17168158Y-11695150D02*
X17196729Y-11695150D01*
X17196729Y-11695150D02*
X17215777Y-11704674D01*
X17215777Y-11704674D02*
X17225301Y-11723722D01*
X17225301Y-11723722D02*
X17225301Y-11828484D01*
X17225301Y-11723722D02*
X17234825Y-11704674D01*
X17234825Y-11704674D02*
X17253872Y-11695150D01*
X17253872Y-11695150D02*
X17282444Y-11695150D01*
X17282444Y-11695150D02*
X17301491Y-11704674D01*
X17301491Y-11704674D02*
X17311015Y-11723722D01*
X17311015Y-11723722D02*
X17311015Y-11828484D01*
X17701491Y-11618960D02*
X17530063Y-11876103D01*
X17958634Y-11628484D02*
X17977682Y-11628484D01*
X17977682Y-11628484D02*
X17996729Y-11638008D01*
X17996729Y-11638008D02*
X18006253Y-11647531D01*
X18006253Y-11647531D02*
X18015777Y-11666579D01*
X18015777Y-11666579D02*
X18025301Y-11704674D01*
X18025301Y-11704674D02*
X18025301Y-11752293D01*
X18025301Y-11752293D02*
X18015777Y-11790388D01*
X18015777Y-11790388D02*
X18006253Y-11809436D01*
X18006253Y-11809436D02*
X17996729Y-11818960D01*
X17996729Y-11818960D02*
X17977682Y-11828484D01*
X17977682Y-11828484D02*
X17958634Y-11828484D01*
X17958634Y-11828484D02*
X17939587Y-11818960D01*
X17939587Y-11818960D02*
X17930063Y-11809436D01*
X17930063Y-11809436D02*
X17920539Y-11790388D01*
X17920539Y-11790388D02*
X17911015Y-11752293D01*
X17911015Y-11752293D02*
X17911015Y-11704674D01*
X17911015Y-11704674D02*
X17920539Y-11666579D01*
X17920539Y-11666579D02*
X17930063Y-11647531D01*
X17930063Y-11647531D02*
X17939587Y-11638008D01*
X17939587Y-11638008D02*
X17958634Y-11628484D01*
X18111015Y-11809436D02*
X18120539Y-11818960D01*
X18120539Y-11818960D02*
X18111015Y-11828484D01*
X18111015Y-11828484D02*
X18101491Y-11818960D01*
X18101491Y-11818960D02*
X18111015Y-11809436D01*
X18111015Y-11809436D02*
X18111015Y-11828484D01*
X18244348Y-11628484D02*
X18263396Y-11628484D01*
X18263396Y-11628484D02*
X18282444Y-11638008D01*
X18282444Y-11638008D02*
X18291968Y-11647531D01*
X18291968Y-11647531D02*
X18301491Y-11666579D01*
X18301491Y-11666579D02*
X18311015Y-11704674D01*
X18311015Y-11704674D02*
X18311015Y-11752293D01*
X18311015Y-11752293D02*
X18301491Y-11790388D01*
X18301491Y-11790388D02*
X18291968Y-11809436D01*
X18291968Y-11809436D02*
X18282444Y-11818960D01*
X18282444Y-11818960D02*
X18263396Y-11828484D01*
X18263396Y-11828484D02*
X18244348Y-11828484D01*
X18244348Y-11828484D02*
X18225301Y-11818960D01*
X18225301Y-11818960D02*
X18215777Y-11809436D01*
X18215777Y-11809436D02*
X18206253Y-11790388D01*
X18206253Y-11790388D02*
X18196729Y-11752293D01*
X18196729Y-11752293D02*
X18196729Y-11704674D01*
X18196729Y-11704674D02*
X18206253Y-11666579D01*
X18206253Y-11666579D02*
X18215777Y-11647531D01*
X18215777Y-11647531D02*
X18225301Y-11638008D01*
X18225301Y-11638008D02*
X18244348Y-11628484D01*
X18377682Y-11628484D02*
X18501491Y-11628484D01*
X18501491Y-11628484D02*
X18434825Y-11704674D01*
X18434825Y-11704674D02*
X18463396Y-11704674D01*
X18463396Y-11704674D02*
X18482444Y-11714198D01*
X18482444Y-11714198D02*
X18491968Y-11723722D01*
X18491968Y-11723722D02*
X18501491Y-11742769D01*
X18501491Y-11742769D02*
X18501491Y-11790388D01*
X18501491Y-11790388D02*
X18491968Y-11809436D01*
X18491968Y-11809436D02*
X18482444Y-11818960D01*
X18482444Y-11818960D02*
X18463396Y-11828484D01*
X18463396Y-11828484D02*
X18406253Y-11828484D01*
X18406253Y-11828484D02*
X18387206Y-11818960D01*
X18387206Y-11818960D02*
X18377682Y-11809436D01*
X18596729Y-11828484D02*
X18634825Y-11828484D01*
X18634825Y-11828484D02*
X18653872Y-11818960D01*
X18653872Y-11818960D02*
X18663396Y-11809436D01*
X18663396Y-11809436D02*
X18682444Y-11780865D01*
X18682444Y-11780865D02*
X18691968Y-11742769D01*
X18691968Y-11742769D02*
X18691968Y-11666579D01*
X18691968Y-11666579D02*
X18682444Y-11647531D01*
X18682444Y-11647531D02*
X18672920Y-11638008D01*
X18672920Y-11638008D02*
X18653872Y-11628484D01*
X18653872Y-11628484D02*
X18615777Y-11628484D01*
X18615777Y-11628484D02*
X18596729Y-11638008D01*
X18596729Y-11638008D02*
X18587206Y-11647531D01*
X18587206Y-11647531D02*
X18577682Y-11666579D01*
X18577682Y-11666579D02*
X18577682Y-11714198D01*
X18577682Y-11714198D02*
X18587206Y-11733246D01*
X18587206Y-11733246D02*
X18596729Y-11742769D01*
X18596729Y-11742769D02*
X18615777Y-11752293D01*
X18615777Y-11752293D02*
X18653872Y-11752293D01*
X18653872Y-11752293D02*
X18672920Y-11742769D01*
X18672920Y-11742769D02*
X18682444Y-11733246D01*
X18682444Y-11733246D02*
X18691968Y-11714198D01*
X18863396Y-11695150D02*
X18863396Y-11828484D01*
X18815777Y-11618960D02*
X18768158Y-11761817D01*
X18768158Y-11761817D02*
X18891968Y-11761817D01*
X18958634Y-11628484D02*
X18958634Y-11666579D01*
X19034825Y-11628484D02*
X19034825Y-11666579D01*
X19330063Y-11904674D02*
X19320539Y-11895150D01*
X19320539Y-11895150D02*
X19301491Y-11866579D01*
X19301491Y-11866579D02*
X19291968Y-11847531D01*
X19291968Y-11847531D02*
X19282444Y-11818960D01*
X19282444Y-11818960D02*
X19272920Y-11771341D01*
X19272920Y-11771341D02*
X19272920Y-11733246D01*
X19272920Y-11733246D02*
X19282444Y-11685627D01*
X19282444Y-11685627D02*
X19291968Y-11657055D01*
X19291968Y-11657055D02*
X19301491Y-11638008D01*
X19301491Y-11638008D02*
X19320539Y-11609436D01*
X19320539Y-11609436D02*
X19330063Y-11599912D01*
X19511015Y-11828484D02*
X19396730Y-11828484D01*
X19453872Y-11828484D02*
X19453872Y-11628484D01*
X19453872Y-11628484D02*
X19434825Y-11657055D01*
X19434825Y-11657055D02*
X19415777Y-11676103D01*
X19415777Y-11676103D02*
X19396730Y-11685627D01*
X19587206Y-11647531D02*
X19596730Y-11638008D01*
X19596730Y-11638008D02*
X19615777Y-11628484D01*
X19615777Y-11628484D02*
X19663396Y-11628484D01*
X19663396Y-11628484D02*
X19682444Y-11638008D01*
X19682444Y-11638008D02*
X19691968Y-11647531D01*
X19691968Y-11647531D02*
X19701491Y-11666579D01*
X19701491Y-11666579D02*
X19701491Y-11685627D01*
X19701491Y-11685627D02*
X19691968Y-11714198D01*
X19691968Y-11714198D02*
X19577682Y-11828484D01*
X19577682Y-11828484D02*
X19701491Y-11828484D01*
X19939587Y-11828484D02*
X19939587Y-11628484D01*
X20025301Y-11828484D02*
X20025301Y-11723722D01*
X20025301Y-11723722D02*
X20015777Y-11704674D01*
X20015777Y-11704674D02*
X19996730Y-11695150D01*
X19996730Y-11695150D02*
X19968158Y-11695150D01*
X19968158Y-11695150D02*
X19949111Y-11704674D01*
X19949111Y-11704674D02*
X19939587Y-11714198D01*
X20149111Y-11828484D02*
X20130063Y-11818960D01*
X20130063Y-11818960D02*
X20120539Y-11809436D01*
X20120539Y-11809436D02*
X20111015Y-11790388D01*
X20111015Y-11790388D02*
X20111015Y-11733246D01*
X20111015Y-11733246D02*
X20120539Y-11714198D01*
X20120539Y-11714198D02*
X20130063Y-11704674D01*
X20130063Y-11704674D02*
X20149111Y-11695150D01*
X20149111Y-11695150D02*
X20177682Y-11695150D01*
X20177682Y-11695150D02*
X20196730Y-11704674D01*
X20196730Y-11704674D02*
X20206253Y-11714198D01*
X20206253Y-11714198D02*
X20215777Y-11733246D01*
X20215777Y-11733246D02*
X20215777Y-11790388D01*
X20215777Y-11790388D02*
X20206253Y-11809436D01*
X20206253Y-11809436D02*
X20196730Y-11818960D01*
X20196730Y-11818960D02*
X20177682Y-11828484D01*
X20177682Y-11828484D02*
X20149111Y-11828484D01*
X20330063Y-11828484D02*
X20311015Y-11818960D01*
X20311015Y-11818960D02*
X20301492Y-11799912D01*
X20301492Y-11799912D02*
X20301492Y-11628484D01*
X20482444Y-11818960D02*
X20463396Y-11828484D01*
X20463396Y-11828484D02*
X20425301Y-11828484D01*
X20425301Y-11828484D02*
X20406253Y-11818960D01*
X20406253Y-11818960D02*
X20396730Y-11799912D01*
X20396730Y-11799912D02*
X20396730Y-11723722D01*
X20396730Y-11723722D02*
X20406253Y-11704674D01*
X20406253Y-11704674D02*
X20425301Y-11695150D01*
X20425301Y-11695150D02*
X20463396Y-11695150D01*
X20463396Y-11695150D02*
X20482444Y-11704674D01*
X20482444Y-11704674D02*
X20491968Y-11723722D01*
X20491968Y-11723722D02*
X20491968Y-11742769D01*
X20491968Y-11742769D02*
X20396730Y-11761817D01*
X20568158Y-11818960D02*
X20587206Y-11828484D01*
X20587206Y-11828484D02*
X20625301Y-11828484D01*
X20625301Y-11828484D02*
X20644349Y-11818960D01*
X20644349Y-11818960D02*
X20653873Y-11799912D01*
X20653873Y-11799912D02*
X20653873Y-11790388D01*
X20653873Y-11790388D02*
X20644349Y-11771341D01*
X20644349Y-11771341D02*
X20625301Y-11761817D01*
X20625301Y-11761817D02*
X20596730Y-11761817D01*
X20596730Y-11761817D02*
X20577682Y-11752293D01*
X20577682Y-11752293D02*
X20568158Y-11733246D01*
X20568158Y-11733246D02*
X20568158Y-11723722D01*
X20568158Y-11723722D02*
X20577682Y-11704674D01*
X20577682Y-11704674D02*
X20596730Y-11695150D01*
X20596730Y-11695150D02*
X20625301Y-11695150D01*
X20625301Y-11695150D02*
X20644349Y-11704674D01*
X20720539Y-11904674D02*
X20730063Y-11895150D01*
X20730063Y-11895150D02*
X20749111Y-11866579D01*
X20749111Y-11866579D02*
X20758634Y-11847531D01*
X20758634Y-11847531D02*
X20768158Y-11818960D01*
X20768158Y-11818960D02*
X20777682Y-11771341D01*
X20777682Y-11771341D02*
X20777682Y-11733246D01*
X20777682Y-11733246D02*
X20768158Y-11685627D01*
X20768158Y-11685627D02*
X20758634Y-11657055D01*
X20758634Y-11657055D02*
X20749111Y-11638008D01*
X20749111Y-11638008D02*
X20730063Y-11609436D01*
X20730063Y-11609436D02*
X20720539Y-11599912D01*
D12*
X15680000Y-12076000D02*
X15755000Y-12001000D01*
X15680000Y-11926000D01*
X15605000Y-12001000D01*
X15680000Y-12076000D01*
D11*
X16120539Y-12092484D02*
X16006253Y-12092484D01*
X16063396Y-12092484D02*
X16063396Y-11892484D01*
X16063396Y-11892484D02*
X16044348Y-11921055D01*
X16044348Y-11921055D02*
X16025301Y-11940103D01*
X16025301Y-11940103D02*
X16006253Y-11949627D01*
X16206253Y-12073436D02*
X16215777Y-12082960D01*
X16215777Y-12082960D02*
X16206253Y-12092484D01*
X16206253Y-12092484D02*
X16196729Y-12082960D01*
X16196729Y-12082960D02*
X16206253Y-12073436D01*
X16206253Y-12073436D02*
X16206253Y-12092484D01*
X16396729Y-11892484D02*
X16301491Y-11892484D01*
X16301491Y-11892484D02*
X16291967Y-11987722D01*
X16291967Y-11987722D02*
X16301491Y-11978198D01*
X16301491Y-11978198D02*
X16320539Y-11968674D01*
X16320539Y-11968674D02*
X16368158Y-11968674D01*
X16368158Y-11968674D02*
X16387205Y-11978198D01*
X16387205Y-11978198D02*
X16396729Y-11987722D01*
X16396729Y-11987722D02*
X16406253Y-12006769D01*
X16406253Y-12006769D02*
X16406253Y-12054388D01*
X16406253Y-12054388D02*
X16396729Y-12073436D01*
X16396729Y-12073436D02*
X16387205Y-12082960D01*
X16387205Y-12082960D02*
X16368158Y-12092484D01*
X16368158Y-12092484D02*
X16320539Y-12092484D01*
X16320539Y-12092484D02*
X16301491Y-12082960D01*
X16301491Y-12082960D02*
X16291967Y-12073436D01*
X16530062Y-11892484D02*
X16549110Y-11892484D01*
X16549110Y-11892484D02*
X16568158Y-11902008D01*
X16568158Y-11902008D02*
X16577682Y-11911531D01*
X16577682Y-11911531D02*
X16587205Y-11930579D01*
X16587205Y-11930579D02*
X16596729Y-11968674D01*
X16596729Y-11968674D02*
X16596729Y-12016293D01*
X16596729Y-12016293D02*
X16587205Y-12054388D01*
X16587205Y-12054388D02*
X16577682Y-12073436D01*
X16577682Y-12073436D02*
X16568158Y-12082960D01*
X16568158Y-12082960D02*
X16549110Y-12092484D01*
X16549110Y-12092484D02*
X16530062Y-12092484D01*
X16530062Y-12092484D02*
X16511015Y-12082960D01*
X16511015Y-12082960D02*
X16501491Y-12073436D01*
X16501491Y-12073436D02*
X16491967Y-12054388D01*
X16491967Y-12054388D02*
X16482443Y-12016293D01*
X16482443Y-12016293D02*
X16482443Y-11968674D01*
X16482443Y-11968674D02*
X16491967Y-11930579D01*
X16491967Y-11930579D02*
X16501491Y-11911531D01*
X16501491Y-11911531D02*
X16511015Y-11902008D01*
X16511015Y-11902008D02*
X16530062Y-11892484D01*
X16720539Y-11892484D02*
X16739586Y-11892484D01*
X16739586Y-11892484D02*
X16758634Y-11902008D01*
X16758634Y-11902008D02*
X16768158Y-11911531D01*
X16768158Y-11911531D02*
X16777682Y-11930579D01*
X16777682Y-11930579D02*
X16787205Y-11968674D01*
X16787205Y-11968674D02*
X16787205Y-12016293D01*
X16787205Y-12016293D02*
X16777682Y-12054388D01*
X16777682Y-12054388D02*
X16768158Y-12073436D01*
X16768158Y-12073436D02*
X16758634Y-12082960D01*
X16758634Y-12082960D02*
X16739586Y-12092484D01*
X16739586Y-12092484D02*
X16720539Y-12092484D01*
X16720539Y-12092484D02*
X16701491Y-12082960D01*
X16701491Y-12082960D02*
X16691967Y-12073436D01*
X16691967Y-12073436D02*
X16682443Y-12054388D01*
X16682443Y-12054388D02*
X16672920Y-12016293D01*
X16672920Y-12016293D02*
X16672920Y-11968674D01*
X16672920Y-11968674D02*
X16682443Y-11930579D01*
X16682443Y-11930579D02*
X16691967Y-11911531D01*
X16691967Y-11911531D02*
X16701491Y-11902008D01*
X16701491Y-11902008D02*
X16720539Y-11892484D01*
X16872920Y-12092484D02*
X16872920Y-11959150D01*
X16872920Y-11978198D02*
X16882444Y-11968674D01*
X16882444Y-11968674D02*
X16901491Y-11959150D01*
X16901491Y-11959150D02*
X16930063Y-11959150D01*
X16930063Y-11959150D02*
X16949110Y-11968674D01*
X16949110Y-11968674D02*
X16958634Y-11987722D01*
X16958634Y-11987722D02*
X16958634Y-12092484D01*
X16958634Y-11987722D02*
X16968158Y-11968674D01*
X16968158Y-11968674D02*
X16987205Y-11959150D01*
X16987205Y-11959150D02*
X17015777Y-11959150D01*
X17015777Y-11959150D02*
X17034825Y-11968674D01*
X17034825Y-11968674D02*
X17044348Y-11987722D01*
X17044348Y-11987722D02*
X17044348Y-12092484D01*
X17139586Y-12092484D02*
X17139586Y-11959150D01*
X17139586Y-11978198D02*
X17149110Y-11968674D01*
X17149110Y-11968674D02*
X17168158Y-11959150D01*
X17168158Y-11959150D02*
X17196729Y-11959150D01*
X17196729Y-11959150D02*
X17215777Y-11968674D01*
X17215777Y-11968674D02*
X17225301Y-11987722D01*
X17225301Y-11987722D02*
X17225301Y-12092484D01*
X17225301Y-11987722D02*
X17234825Y-11968674D01*
X17234825Y-11968674D02*
X17253872Y-11959150D01*
X17253872Y-11959150D02*
X17282444Y-11959150D01*
X17282444Y-11959150D02*
X17301491Y-11968674D01*
X17301491Y-11968674D02*
X17311015Y-11987722D01*
X17311015Y-11987722D02*
X17311015Y-12092484D01*
X17701491Y-11882960D02*
X17530063Y-12140103D01*
X17958634Y-11892484D02*
X17977682Y-11892484D01*
X17977682Y-11892484D02*
X17996729Y-11902008D01*
X17996729Y-11902008D02*
X18006253Y-11911531D01*
X18006253Y-11911531D02*
X18015777Y-11930579D01*
X18015777Y-11930579D02*
X18025301Y-11968674D01*
X18025301Y-11968674D02*
X18025301Y-12016293D01*
X18025301Y-12016293D02*
X18015777Y-12054388D01*
X18015777Y-12054388D02*
X18006253Y-12073436D01*
X18006253Y-12073436D02*
X17996729Y-12082960D01*
X17996729Y-12082960D02*
X17977682Y-12092484D01*
X17977682Y-12092484D02*
X17958634Y-12092484D01*
X17958634Y-12092484D02*
X17939587Y-12082960D01*
X17939587Y-12082960D02*
X17930063Y-12073436D01*
X17930063Y-12073436D02*
X17920539Y-12054388D01*
X17920539Y-12054388D02*
X17911015Y-12016293D01*
X17911015Y-12016293D02*
X17911015Y-11968674D01*
X17911015Y-11968674D02*
X17920539Y-11930579D01*
X17920539Y-11930579D02*
X17930063Y-11911531D01*
X17930063Y-11911531D02*
X17939587Y-11902008D01*
X17939587Y-11902008D02*
X17958634Y-11892484D01*
X18111015Y-12073436D02*
X18120539Y-12082960D01*
X18120539Y-12082960D02*
X18111015Y-12092484D01*
X18111015Y-12092484D02*
X18101491Y-12082960D01*
X18101491Y-12082960D02*
X18111015Y-12073436D01*
X18111015Y-12073436D02*
X18111015Y-12092484D01*
X18244348Y-11892484D02*
X18263396Y-11892484D01*
X18263396Y-11892484D02*
X18282444Y-11902008D01*
X18282444Y-11902008D02*
X18291968Y-11911531D01*
X18291968Y-11911531D02*
X18301491Y-11930579D01*
X18301491Y-11930579D02*
X18311015Y-11968674D01*
X18311015Y-11968674D02*
X18311015Y-12016293D01*
X18311015Y-12016293D02*
X18301491Y-12054388D01*
X18301491Y-12054388D02*
X18291968Y-12073436D01*
X18291968Y-12073436D02*
X18282444Y-12082960D01*
X18282444Y-12082960D02*
X18263396Y-12092484D01*
X18263396Y-12092484D02*
X18244348Y-12092484D01*
X18244348Y-12092484D02*
X18225301Y-12082960D01*
X18225301Y-12082960D02*
X18215777Y-12073436D01*
X18215777Y-12073436D02*
X18206253Y-12054388D01*
X18206253Y-12054388D02*
X18196729Y-12016293D01*
X18196729Y-12016293D02*
X18196729Y-11968674D01*
X18196729Y-11968674D02*
X18206253Y-11930579D01*
X18206253Y-11930579D02*
X18215777Y-11911531D01*
X18215777Y-11911531D02*
X18225301Y-11902008D01*
X18225301Y-11902008D02*
X18244348Y-11892484D01*
X18491968Y-11892484D02*
X18396729Y-11892484D01*
X18396729Y-11892484D02*
X18387206Y-11987722D01*
X18387206Y-11987722D02*
X18396729Y-11978198D01*
X18396729Y-11978198D02*
X18415777Y-11968674D01*
X18415777Y-11968674D02*
X18463396Y-11968674D01*
X18463396Y-11968674D02*
X18482444Y-11978198D01*
X18482444Y-11978198D02*
X18491968Y-11987722D01*
X18491968Y-11987722D02*
X18501491Y-12006769D01*
X18501491Y-12006769D02*
X18501491Y-12054388D01*
X18501491Y-12054388D02*
X18491968Y-12073436D01*
X18491968Y-12073436D02*
X18482444Y-12082960D01*
X18482444Y-12082960D02*
X18463396Y-12092484D01*
X18463396Y-12092484D02*
X18415777Y-12092484D01*
X18415777Y-12092484D02*
X18396729Y-12082960D01*
X18396729Y-12082960D02*
X18387206Y-12073436D01*
X18596729Y-12092484D02*
X18634825Y-12092484D01*
X18634825Y-12092484D02*
X18653872Y-12082960D01*
X18653872Y-12082960D02*
X18663396Y-12073436D01*
X18663396Y-12073436D02*
X18682444Y-12044865D01*
X18682444Y-12044865D02*
X18691968Y-12006769D01*
X18691968Y-12006769D02*
X18691968Y-11930579D01*
X18691968Y-11930579D02*
X18682444Y-11911531D01*
X18682444Y-11911531D02*
X18672920Y-11902008D01*
X18672920Y-11902008D02*
X18653872Y-11892484D01*
X18653872Y-11892484D02*
X18615777Y-11892484D01*
X18615777Y-11892484D02*
X18596729Y-11902008D01*
X18596729Y-11902008D02*
X18587206Y-11911531D01*
X18587206Y-11911531D02*
X18577682Y-11930579D01*
X18577682Y-11930579D02*
X18577682Y-11978198D01*
X18577682Y-11978198D02*
X18587206Y-11997246D01*
X18587206Y-11997246D02*
X18596729Y-12006769D01*
X18596729Y-12006769D02*
X18615777Y-12016293D01*
X18615777Y-12016293D02*
X18653872Y-12016293D01*
X18653872Y-12016293D02*
X18672920Y-12006769D01*
X18672920Y-12006769D02*
X18682444Y-11997246D01*
X18682444Y-11997246D02*
X18691968Y-11978198D01*
X18882444Y-12092484D02*
X18768158Y-12092484D01*
X18825301Y-12092484D02*
X18825301Y-11892484D01*
X18825301Y-11892484D02*
X18806253Y-11921055D01*
X18806253Y-11921055D02*
X18787206Y-11940103D01*
X18787206Y-11940103D02*
X18768158Y-11949627D01*
X18958634Y-11892484D02*
X18958634Y-11930579D01*
X19034825Y-11892484D02*
X19034825Y-11930579D01*
X19330063Y-12168674D02*
X19320539Y-12159150D01*
X19320539Y-12159150D02*
X19301491Y-12130579D01*
X19301491Y-12130579D02*
X19291968Y-12111531D01*
X19291968Y-12111531D02*
X19282444Y-12082960D01*
X19282444Y-12082960D02*
X19272920Y-12035341D01*
X19272920Y-12035341D02*
X19272920Y-11997246D01*
X19272920Y-11997246D02*
X19282444Y-11949627D01*
X19282444Y-11949627D02*
X19291968Y-11921055D01*
X19291968Y-11921055D02*
X19301491Y-11902008D01*
X19301491Y-11902008D02*
X19320539Y-11873436D01*
X19320539Y-11873436D02*
X19330063Y-11863912D01*
X19511015Y-12092484D02*
X19396730Y-12092484D01*
X19453872Y-12092484D02*
X19453872Y-11892484D01*
X19453872Y-11892484D02*
X19434825Y-11921055D01*
X19434825Y-11921055D02*
X19415777Y-11940103D01*
X19415777Y-11940103D02*
X19396730Y-11949627D01*
X19749111Y-12092484D02*
X19749111Y-11892484D01*
X19834825Y-12092484D02*
X19834825Y-11987722D01*
X19834825Y-11987722D02*
X19825301Y-11968674D01*
X19825301Y-11968674D02*
X19806253Y-11959150D01*
X19806253Y-11959150D02*
X19777682Y-11959150D01*
X19777682Y-11959150D02*
X19758634Y-11968674D01*
X19758634Y-11968674D02*
X19749111Y-11978198D01*
X19958634Y-12092484D02*
X19939587Y-12082960D01*
X19939587Y-12082960D02*
X19930063Y-12073436D01*
X19930063Y-12073436D02*
X19920539Y-12054388D01*
X19920539Y-12054388D02*
X19920539Y-11997246D01*
X19920539Y-11997246D02*
X19930063Y-11978198D01*
X19930063Y-11978198D02*
X19939587Y-11968674D01*
X19939587Y-11968674D02*
X19958634Y-11959150D01*
X19958634Y-11959150D02*
X19987206Y-11959150D01*
X19987206Y-11959150D02*
X20006253Y-11968674D01*
X20006253Y-11968674D02*
X20015777Y-11978198D01*
X20015777Y-11978198D02*
X20025301Y-11997246D01*
X20025301Y-11997246D02*
X20025301Y-12054388D01*
X20025301Y-12054388D02*
X20015777Y-12073436D01*
X20015777Y-12073436D02*
X20006253Y-12082960D01*
X20006253Y-12082960D02*
X19987206Y-12092484D01*
X19987206Y-12092484D02*
X19958634Y-12092484D01*
X20139587Y-12092484D02*
X20120539Y-12082960D01*
X20120539Y-12082960D02*
X20111015Y-12063912D01*
X20111015Y-12063912D02*
X20111015Y-11892484D01*
X20291968Y-12082960D02*
X20272920Y-12092484D01*
X20272920Y-12092484D02*
X20234825Y-12092484D01*
X20234825Y-12092484D02*
X20215777Y-12082960D01*
X20215777Y-12082960D02*
X20206253Y-12063912D01*
X20206253Y-12063912D02*
X20206253Y-11987722D01*
X20206253Y-11987722D02*
X20215777Y-11968674D01*
X20215777Y-11968674D02*
X20234825Y-11959150D01*
X20234825Y-11959150D02*
X20272920Y-11959150D01*
X20272920Y-11959150D02*
X20291968Y-11968674D01*
X20291968Y-11968674D02*
X20301492Y-11987722D01*
X20301492Y-11987722D02*
X20301492Y-12006769D01*
X20301492Y-12006769D02*
X20206253Y-12025817D01*
X20368158Y-12168674D02*
X20377682Y-12159150D01*
X20377682Y-12159150D02*
X20396730Y-12130579D01*
X20396730Y-12130579D02*
X20406253Y-12111531D01*
X20406253Y-12111531D02*
X20415777Y-12082960D01*
X20415777Y-12082960D02*
X20425301Y-12035341D01*
X20425301Y-12035341D02*
X20425301Y-11997246D01*
X20425301Y-11997246D02*
X20415777Y-11949627D01*
X20415777Y-11949627D02*
X20406253Y-11921055D01*
X20406253Y-11921055D02*
X20396730Y-11902008D01*
X20396730Y-11902008D02*
X20377682Y-11873436D01*
X20377682Y-11873436D02*
X20368158Y-11863912D01*
D13*
X15585000Y-12186000D02*
X15755000Y-12356000D01*
X15755000Y-12186000D02*
X15585000Y-12356000D01*
X15755000Y-12271000D02*
G75*
G02*
X15585000Y-12271000I-85000J0D01*
G01*
X15585000Y-12271000D02*
G75*
G02*
X15755000Y-12271000I85000J0D01*
G01*
D11*
X16120539Y-12362484D02*
X16006253Y-12362484D01*
X16063396Y-12362484D02*
X16063396Y-12162484D01*
X16063396Y-12162484D02*
X16044348Y-12191055D01*
X16044348Y-12191055D02*
X16025301Y-12210103D01*
X16025301Y-12210103D02*
X16006253Y-12219627D01*
X16206253Y-12343436D02*
X16215777Y-12352960D01*
X16215777Y-12352960D02*
X16206253Y-12362484D01*
X16206253Y-12362484D02*
X16196729Y-12352960D01*
X16196729Y-12352960D02*
X16206253Y-12343436D01*
X16206253Y-12343436D02*
X16206253Y-12362484D01*
X16282443Y-12162484D02*
X16415777Y-12162484D01*
X16415777Y-12162484D02*
X16330062Y-12362484D01*
X16530062Y-12162484D02*
X16549110Y-12162484D01*
X16549110Y-12162484D02*
X16568158Y-12172008D01*
X16568158Y-12172008D02*
X16577682Y-12181531D01*
X16577682Y-12181531D02*
X16587205Y-12200579D01*
X16587205Y-12200579D02*
X16596729Y-12238674D01*
X16596729Y-12238674D02*
X16596729Y-12286293D01*
X16596729Y-12286293D02*
X16587205Y-12324388D01*
X16587205Y-12324388D02*
X16577682Y-12343436D01*
X16577682Y-12343436D02*
X16568158Y-12352960D01*
X16568158Y-12352960D02*
X16549110Y-12362484D01*
X16549110Y-12362484D02*
X16530062Y-12362484D01*
X16530062Y-12362484D02*
X16511015Y-12352960D01*
X16511015Y-12352960D02*
X16501491Y-12343436D01*
X16501491Y-12343436D02*
X16491967Y-12324388D01*
X16491967Y-12324388D02*
X16482443Y-12286293D01*
X16482443Y-12286293D02*
X16482443Y-12238674D01*
X16482443Y-12238674D02*
X16491967Y-12200579D01*
X16491967Y-12200579D02*
X16501491Y-12181531D01*
X16501491Y-12181531D02*
X16511015Y-12172008D01*
X16511015Y-12172008D02*
X16530062Y-12162484D01*
X16720539Y-12162484D02*
X16739586Y-12162484D01*
X16739586Y-12162484D02*
X16758634Y-12172008D01*
X16758634Y-12172008D02*
X16768158Y-12181531D01*
X16768158Y-12181531D02*
X16777682Y-12200579D01*
X16777682Y-12200579D02*
X16787205Y-12238674D01*
X16787205Y-12238674D02*
X16787205Y-12286293D01*
X16787205Y-12286293D02*
X16777682Y-12324388D01*
X16777682Y-12324388D02*
X16768158Y-12343436D01*
X16768158Y-12343436D02*
X16758634Y-12352960D01*
X16758634Y-12352960D02*
X16739586Y-12362484D01*
X16739586Y-12362484D02*
X16720539Y-12362484D01*
X16720539Y-12362484D02*
X16701491Y-12352960D01*
X16701491Y-12352960D02*
X16691967Y-12343436D01*
X16691967Y-12343436D02*
X16682443Y-12324388D01*
X16682443Y-12324388D02*
X16672920Y-12286293D01*
X16672920Y-12286293D02*
X16672920Y-12238674D01*
X16672920Y-12238674D02*
X16682443Y-12200579D01*
X16682443Y-12200579D02*
X16691967Y-12181531D01*
X16691967Y-12181531D02*
X16701491Y-12172008D01*
X16701491Y-12172008D02*
X16720539Y-12162484D01*
X16872920Y-12362484D02*
X16872920Y-12229150D01*
X16872920Y-12248198D02*
X16882444Y-12238674D01*
X16882444Y-12238674D02*
X16901491Y-12229150D01*
X16901491Y-12229150D02*
X16930063Y-12229150D01*
X16930063Y-12229150D02*
X16949110Y-12238674D01*
X16949110Y-12238674D02*
X16958634Y-12257722D01*
X16958634Y-12257722D02*
X16958634Y-12362484D01*
X16958634Y-12257722D02*
X16968158Y-12238674D01*
X16968158Y-12238674D02*
X16987205Y-12229150D01*
X16987205Y-12229150D02*
X17015777Y-12229150D01*
X17015777Y-12229150D02*
X17034825Y-12238674D01*
X17034825Y-12238674D02*
X17044348Y-12257722D01*
X17044348Y-12257722D02*
X17044348Y-12362484D01*
X17139586Y-12362484D02*
X17139586Y-12229150D01*
X17139586Y-12248198D02*
X17149110Y-12238674D01*
X17149110Y-12238674D02*
X17168158Y-12229150D01*
X17168158Y-12229150D02*
X17196729Y-12229150D01*
X17196729Y-12229150D02*
X17215777Y-12238674D01*
X17215777Y-12238674D02*
X17225301Y-12257722D01*
X17225301Y-12257722D02*
X17225301Y-12362484D01*
X17225301Y-12257722D02*
X17234825Y-12238674D01*
X17234825Y-12238674D02*
X17253872Y-12229150D01*
X17253872Y-12229150D02*
X17282444Y-12229150D01*
X17282444Y-12229150D02*
X17301491Y-12238674D01*
X17301491Y-12238674D02*
X17311015Y-12257722D01*
X17311015Y-12257722D02*
X17311015Y-12362484D01*
X17701491Y-12152960D02*
X17530063Y-12410103D01*
X17958634Y-12162484D02*
X17977682Y-12162484D01*
X17977682Y-12162484D02*
X17996729Y-12172008D01*
X17996729Y-12172008D02*
X18006253Y-12181531D01*
X18006253Y-12181531D02*
X18015777Y-12200579D01*
X18015777Y-12200579D02*
X18025301Y-12238674D01*
X18025301Y-12238674D02*
X18025301Y-12286293D01*
X18025301Y-12286293D02*
X18015777Y-12324388D01*
X18015777Y-12324388D02*
X18006253Y-12343436D01*
X18006253Y-12343436D02*
X17996729Y-12352960D01*
X17996729Y-12352960D02*
X17977682Y-12362484D01*
X17977682Y-12362484D02*
X17958634Y-12362484D01*
X17958634Y-12362484D02*
X17939587Y-12352960D01*
X17939587Y-12352960D02*
X17930063Y-12343436D01*
X17930063Y-12343436D02*
X17920539Y-12324388D01*
X17920539Y-12324388D02*
X17911015Y-12286293D01*
X17911015Y-12286293D02*
X17911015Y-12238674D01*
X17911015Y-12238674D02*
X17920539Y-12200579D01*
X17920539Y-12200579D02*
X17930063Y-12181531D01*
X17930063Y-12181531D02*
X17939587Y-12172008D01*
X17939587Y-12172008D02*
X17958634Y-12162484D01*
X18111015Y-12343436D02*
X18120539Y-12352960D01*
X18120539Y-12352960D02*
X18111015Y-12362484D01*
X18111015Y-12362484D02*
X18101491Y-12352960D01*
X18101491Y-12352960D02*
X18111015Y-12343436D01*
X18111015Y-12343436D02*
X18111015Y-12362484D01*
X18244348Y-12162484D02*
X18263396Y-12162484D01*
X18263396Y-12162484D02*
X18282444Y-12172008D01*
X18282444Y-12172008D02*
X18291968Y-12181531D01*
X18291968Y-12181531D02*
X18301491Y-12200579D01*
X18301491Y-12200579D02*
X18311015Y-12238674D01*
X18311015Y-12238674D02*
X18311015Y-12286293D01*
X18311015Y-12286293D02*
X18301491Y-12324388D01*
X18301491Y-12324388D02*
X18291968Y-12343436D01*
X18291968Y-12343436D02*
X18282444Y-12352960D01*
X18282444Y-12352960D02*
X18263396Y-12362484D01*
X18263396Y-12362484D02*
X18244348Y-12362484D01*
X18244348Y-12362484D02*
X18225301Y-12352960D01*
X18225301Y-12352960D02*
X18215777Y-12343436D01*
X18215777Y-12343436D02*
X18206253Y-12324388D01*
X18206253Y-12324388D02*
X18196729Y-12286293D01*
X18196729Y-12286293D02*
X18196729Y-12238674D01*
X18196729Y-12238674D02*
X18206253Y-12200579D01*
X18206253Y-12200579D02*
X18215777Y-12181531D01*
X18215777Y-12181531D02*
X18225301Y-12172008D01*
X18225301Y-12172008D02*
X18244348Y-12162484D01*
X18482444Y-12162484D02*
X18444348Y-12162484D01*
X18444348Y-12162484D02*
X18425301Y-12172008D01*
X18425301Y-12172008D02*
X18415777Y-12181531D01*
X18415777Y-12181531D02*
X18396729Y-12210103D01*
X18396729Y-12210103D02*
X18387206Y-12248198D01*
X18387206Y-12248198D02*
X18387206Y-12324388D01*
X18387206Y-12324388D02*
X18396729Y-12343436D01*
X18396729Y-12343436D02*
X18406253Y-12352960D01*
X18406253Y-12352960D02*
X18425301Y-12362484D01*
X18425301Y-12362484D02*
X18463396Y-12362484D01*
X18463396Y-12362484D02*
X18482444Y-12352960D01*
X18482444Y-12352960D02*
X18491968Y-12343436D01*
X18491968Y-12343436D02*
X18501491Y-12324388D01*
X18501491Y-12324388D02*
X18501491Y-12276769D01*
X18501491Y-12276769D02*
X18491968Y-12257722D01*
X18491968Y-12257722D02*
X18482444Y-12248198D01*
X18482444Y-12248198D02*
X18463396Y-12238674D01*
X18463396Y-12238674D02*
X18425301Y-12238674D01*
X18425301Y-12238674D02*
X18406253Y-12248198D01*
X18406253Y-12248198D02*
X18396729Y-12257722D01*
X18396729Y-12257722D02*
X18387206Y-12276769D01*
X18672920Y-12162484D02*
X18634825Y-12162484D01*
X18634825Y-12162484D02*
X18615777Y-12172008D01*
X18615777Y-12172008D02*
X18606253Y-12181531D01*
X18606253Y-12181531D02*
X18587206Y-12210103D01*
X18587206Y-12210103D02*
X18577682Y-12248198D01*
X18577682Y-12248198D02*
X18577682Y-12324388D01*
X18577682Y-12324388D02*
X18587206Y-12343436D01*
X18587206Y-12343436D02*
X18596729Y-12352960D01*
X18596729Y-12352960D02*
X18615777Y-12362484D01*
X18615777Y-12362484D02*
X18653872Y-12362484D01*
X18653872Y-12362484D02*
X18672920Y-12352960D01*
X18672920Y-12352960D02*
X18682444Y-12343436D01*
X18682444Y-12343436D02*
X18691968Y-12324388D01*
X18691968Y-12324388D02*
X18691968Y-12276769D01*
X18691968Y-12276769D02*
X18682444Y-12257722D01*
X18682444Y-12257722D02*
X18672920Y-12248198D01*
X18672920Y-12248198D02*
X18653872Y-12238674D01*
X18653872Y-12238674D02*
X18615777Y-12238674D01*
X18615777Y-12238674D02*
X18596729Y-12248198D01*
X18596729Y-12248198D02*
X18587206Y-12257722D01*
X18587206Y-12257722D02*
X18577682Y-12276769D01*
X18787206Y-12362484D02*
X18825301Y-12362484D01*
X18825301Y-12362484D02*
X18844349Y-12352960D01*
X18844349Y-12352960D02*
X18853872Y-12343436D01*
X18853872Y-12343436D02*
X18872920Y-12314865D01*
X18872920Y-12314865D02*
X18882444Y-12276769D01*
X18882444Y-12276769D02*
X18882444Y-12200579D01*
X18882444Y-12200579D02*
X18872920Y-12181531D01*
X18872920Y-12181531D02*
X18863396Y-12172008D01*
X18863396Y-12172008D02*
X18844349Y-12162484D01*
X18844349Y-12162484D02*
X18806253Y-12162484D01*
X18806253Y-12162484D02*
X18787206Y-12172008D01*
X18787206Y-12172008D02*
X18777682Y-12181531D01*
X18777682Y-12181531D02*
X18768158Y-12200579D01*
X18768158Y-12200579D02*
X18768158Y-12248198D01*
X18768158Y-12248198D02*
X18777682Y-12267246D01*
X18777682Y-12267246D02*
X18787206Y-12276769D01*
X18787206Y-12276769D02*
X18806253Y-12286293D01*
X18806253Y-12286293D02*
X18844349Y-12286293D01*
X18844349Y-12286293D02*
X18863396Y-12276769D01*
X18863396Y-12276769D02*
X18872920Y-12267246D01*
X18872920Y-12267246D02*
X18882444Y-12248198D01*
X18958634Y-12162484D02*
X18958634Y-12200579D01*
X19034825Y-12162484D02*
X19034825Y-12200579D01*
X19330063Y-12438674D02*
X19320539Y-12429150D01*
X19320539Y-12429150D02*
X19301491Y-12400579D01*
X19301491Y-12400579D02*
X19291968Y-12381531D01*
X19291968Y-12381531D02*
X19282444Y-12352960D01*
X19282444Y-12352960D02*
X19272920Y-12305341D01*
X19272920Y-12305341D02*
X19272920Y-12267246D01*
X19272920Y-12267246D02*
X19282444Y-12219627D01*
X19282444Y-12219627D02*
X19291968Y-12191055D01*
X19291968Y-12191055D02*
X19301491Y-12172008D01*
X19301491Y-12172008D02*
X19320539Y-12143436D01*
X19320539Y-12143436D02*
X19330063Y-12133912D01*
X19491968Y-12229150D02*
X19491968Y-12362484D01*
X19444349Y-12152960D02*
X19396730Y-12295817D01*
X19396730Y-12295817D02*
X19520539Y-12295817D01*
X19749111Y-12362484D02*
X19749111Y-12162484D01*
X19834825Y-12362484D02*
X19834825Y-12257722D01*
X19834825Y-12257722D02*
X19825301Y-12238674D01*
X19825301Y-12238674D02*
X19806253Y-12229150D01*
X19806253Y-12229150D02*
X19777682Y-12229150D01*
X19777682Y-12229150D02*
X19758634Y-12238674D01*
X19758634Y-12238674D02*
X19749111Y-12248198D01*
X19958634Y-12362484D02*
X19939587Y-12352960D01*
X19939587Y-12352960D02*
X19930063Y-12343436D01*
X19930063Y-12343436D02*
X19920539Y-12324388D01*
X19920539Y-12324388D02*
X19920539Y-12267246D01*
X19920539Y-12267246D02*
X19930063Y-12248198D01*
X19930063Y-12248198D02*
X19939587Y-12238674D01*
X19939587Y-12238674D02*
X19958634Y-12229150D01*
X19958634Y-12229150D02*
X19987206Y-12229150D01*
X19987206Y-12229150D02*
X20006253Y-12238674D01*
X20006253Y-12238674D02*
X20015777Y-12248198D01*
X20015777Y-12248198D02*
X20025301Y-12267246D01*
X20025301Y-12267246D02*
X20025301Y-12324388D01*
X20025301Y-12324388D02*
X20015777Y-12343436D01*
X20015777Y-12343436D02*
X20006253Y-12352960D01*
X20006253Y-12352960D02*
X19987206Y-12362484D01*
X19987206Y-12362484D02*
X19958634Y-12362484D01*
X20139587Y-12362484D02*
X20120539Y-12352960D01*
X20120539Y-12352960D02*
X20111015Y-12333912D01*
X20111015Y-12333912D02*
X20111015Y-12162484D01*
X20291968Y-12352960D02*
X20272920Y-12362484D01*
X20272920Y-12362484D02*
X20234825Y-12362484D01*
X20234825Y-12362484D02*
X20215777Y-12352960D01*
X20215777Y-12352960D02*
X20206253Y-12333912D01*
X20206253Y-12333912D02*
X20206253Y-12257722D01*
X20206253Y-12257722D02*
X20215777Y-12238674D01*
X20215777Y-12238674D02*
X20234825Y-12229150D01*
X20234825Y-12229150D02*
X20272920Y-12229150D01*
X20272920Y-12229150D02*
X20291968Y-12238674D01*
X20291968Y-12238674D02*
X20301492Y-12257722D01*
X20301492Y-12257722D02*
X20301492Y-12276769D01*
X20301492Y-12276769D02*
X20206253Y-12295817D01*
X20377682Y-12352960D02*
X20396730Y-12362484D01*
X20396730Y-12362484D02*
X20434825Y-12362484D01*
X20434825Y-12362484D02*
X20453873Y-12352960D01*
X20453873Y-12352960D02*
X20463396Y-12333912D01*
X20463396Y-12333912D02*
X20463396Y-12324388D01*
X20463396Y-12324388D02*
X20453873Y-12305341D01*
X20453873Y-12305341D02*
X20434825Y-12295817D01*
X20434825Y-12295817D02*
X20406253Y-12295817D01*
X20406253Y-12295817D02*
X20387206Y-12286293D01*
X20387206Y-12286293D02*
X20377682Y-12267246D01*
X20377682Y-12267246D02*
X20377682Y-12257722D01*
X20377682Y-12257722D02*
X20387206Y-12238674D01*
X20387206Y-12238674D02*
X20406253Y-12229150D01*
X20406253Y-12229150D02*
X20434825Y-12229150D01*
X20434825Y-12229150D02*
X20453873Y-12238674D01*
X20530063Y-12438674D02*
X20539587Y-12429150D01*
X20539587Y-12429150D02*
X20558634Y-12400579D01*
X20558634Y-12400579D02*
X20568158Y-12381531D01*
X20568158Y-12381531D02*
X20577682Y-12352960D01*
X20577682Y-12352960D02*
X20587206Y-12305341D01*
X20587206Y-12305341D02*
X20587206Y-12267246D01*
X20587206Y-12267246D02*
X20577682Y-12219627D01*
X20577682Y-12219627D02*
X20568158Y-12191055D01*
X20568158Y-12191055D02*
X20558634Y-12172008D01*
X20558634Y-12172008D02*
X20539587Y-12143436D01*
X20539587Y-12143436D02*
X20530063Y-12133912D01*
M02*
