%TF.GenerationSoftware,KiCad,Pcbnew,9.0.7*%
%TF.CreationDate,2026-01-30T12:17:08+01:00*%
%TF.ProjectId,rfiq-1,72666971-2d31-42e6-9b69-6361645f7063,1a*%
%TF.SameCoordinates,Original*%
%TF.FileFunction,Plated,1,4,PTH,Drill*%
%TF.FilePolarity,Positive*%
%FSLAX46Y46*%
G04 Gerber Fmt 4.6, Leading zero omitted, Abs format (unit mm)*
G04 Created by KiCad (PCBNEW 9.0.7) date 2026-01-30 12:17:08*
%MOMM*%
%LPD*%
G01*
G04 APERTURE LIST*
%TA.AperFunction,ViaDrill*%
%ADD10C,0.300000*%
%TD*%
%TA.AperFunction,ComponentDrill*%
%ADD11C,0.400000*%
%TD*%
%TA.AperFunction,ComponentDrill*%
%ADD12C,0.900000*%
%TD*%
%TA.AperFunction,ComponentDrill*%
%ADD13C,1.000000*%
%TD*%
%TA.AperFunction,ComponentDrill*%
%ADD14C,1.500000*%
%TD*%
%TA.AperFunction,ComponentDrill*%
%ADD15C,1.700000*%
%TD*%
G04 APERTURE END LIST*
D10*
X161400000Y-101800000D03*
X163975000Y-100800000D03*
X171900000Y-87500000D03*
X171900000Y-88200000D03*
X171900000Y-88900000D03*
X171900000Y-89600000D03*
X172000000Y-85400000D03*
X172000000Y-86400000D03*
X172000000Y-90300000D03*
X172100000Y-99900000D03*
X172100000Y-101300000D03*
X172350000Y-84800000D03*
X172400000Y-87000000D03*
X172700000Y-90700000D03*
X172800000Y-86200000D03*
X173100000Y-86900000D03*
X173300000Y-91200000D03*
X173700000Y-86400000D03*
X173800000Y-83500000D03*
X173900000Y-84700000D03*
X173900000Y-91400000D03*
X173900000Y-99800000D03*
X174300000Y-86100000D03*
X174500000Y-91700000D03*
X174950000Y-86200000D03*
X175000000Y-92200000D03*
X175000000Y-94000000D03*
X175300000Y-88100000D03*
X175300000Y-88800000D03*
X175400000Y-83500000D03*
X175400000Y-84750000D03*
X175700000Y-86300000D03*
X175700000Y-92200000D03*
X176100000Y-100500000D03*
X176400000Y-92200000D03*
X177000000Y-92000000D03*
X177050000Y-84800000D03*
X177100000Y-86300000D03*
X177200000Y-89800000D03*
X177250000Y-83600000D03*
X177300000Y-84200000D03*
X177300000Y-88100000D03*
X177300000Y-88700000D03*
X177300000Y-91400000D03*
X177400000Y-101500000D03*
X177600000Y-84900000D03*
X177750000Y-87650000D03*
X177900000Y-91800000D03*
X178350000Y-84850000D03*
X178400000Y-87750000D03*
X178400000Y-90100000D03*
X178500000Y-92200000D03*
X178600000Y-88600000D03*
X178600000Y-99400000D03*
X178700000Y-91600000D03*
X179100000Y-84950000D03*
X179200000Y-87600000D03*
X179400000Y-85600000D03*
X179400000Y-86910000D03*
X179500000Y-91900000D03*
X179675000Y-99400000D03*
X180000000Y-87200000D03*
X180000000Y-90100000D03*
X180100000Y-91400000D03*
X180500000Y-98000000D03*
X180700000Y-87300000D03*
X181400000Y-87000000D03*
X181450000Y-85650000D03*
X181500000Y-92700000D03*
X181900000Y-84500000D03*
X181900000Y-85150000D03*
X182100000Y-86950000D03*
X182300000Y-99800000D03*
X182400000Y-84100000D03*
X182750000Y-86950000D03*
X183100000Y-84150000D03*
X183400000Y-94000000D03*
X183450000Y-86900000D03*
X183750000Y-84200000D03*
X184150000Y-86900000D03*
X184400000Y-84200000D03*
X184450000Y-87500000D03*
X185100000Y-84150000D03*
X185350000Y-87100000D03*
X185750000Y-84150000D03*
X186100000Y-86100000D03*
X186400000Y-101500000D03*
X186500000Y-84200000D03*
X186500000Y-85425000D03*
X187150000Y-89200000D03*
X187200000Y-84200000D03*
X187200000Y-85425000D03*
X187900000Y-84200000D03*
X187975000Y-99400000D03*
X188000000Y-85425000D03*
X188500000Y-85700000D03*
X188600000Y-84000000D03*
X188900000Y-98000000D03*
X189200000Y-85700000D03*
X189300000Y-84000000D03*
X189900000Y-85700000D03*
X190000000Y-84000000D03*
X190100000Y-102150000D03*
X190500000Y-86200000D03*
X190600000Y-85500000D03*
X190800000Y-83500000D03*
X190800000Y-84190000D03*
X190800000Y-86900000D03*
X190800000Y-102150000D03*
X191450000Y-102150000D03*
X191500000Y-87000000D03*
X192100000Y-102150000D03*
X192200000Y-87000000D03*
X192250000Y-85350000D03*
X192300000Y-84600000D03*
X192600000Y-87600000D03*
X192600000Y-88300000D03*
X192600000Y-89000000D03*
X192725000Y-102150000D03*
X192800000Y-85000000D03*
X193000000Y-85600000D03*
X193375000Y-102150000D03*
X193400000Y-86300000D03*
X193850000Y-85550000D03*
X193900000Y-86900000D03*
X194000000Y-87600000D03*
X194000000Y-88300000D03*
X194000000Y-89000000D03*
X194025000Y-102150000D03*
X194400000Y-85200000D03*
X194550000Y-84600000D03*
X194675000Y-102150000D03*
X195150000Y-85750000D03*
X195200000Y-84550000D03*
X195300000Y-102150000D03*
X195800000Y-84750000D03*
X195925000Y-102150000D03*
X195950000Y-85350000D03*
X196100000Y-86050000D03*
X196550000Y-85550000D03*
X196550000Y-102150000D03*
X197200000Y-85450000D03*
X197200000Y-90025000D03*
X197200000Y-90650000D03*
X197200000Y-91275000D03*
X197200000Y-91900000D03*
X197200000Y-92550000D03*
X197200000Y-94475000D03*
X197200000Y-95100000D03*
X197200000Y-95725000D03*
X197200000Y-96375000D03*
X197200000Y-97025000D03*
X197200000Y-97675000D03*
X197200000Y-98325000D03*
X197200000Y-98975000D03*
X197200000Y-99600000D03*
X197200000Y-100225000D03*
X197200000Y-100850000D03*
X197200000Y-101500000D03*
X197200000Y-102150000D03*
D11*
%TO.C,AE1*%
X204250000Y-85800000D03*
X204250000Y-87800000D03*
X204250000Y-89800000D03*
X204250000Y-91800000D03*
X204250000Y-93800000D03*
X204250000Y-95800000D03*
X204250000Y-97800000D03*
X204250000Y-99800000D03*
X204250000Y-101800000D03*
X209250000Y-83800000D03*
X209250000Y-85800000D03*
X209250000Y-87800000D03*
X209250000Y-89800000D03*
X209250000Y-91800000D03*
X209250000Y-93800000D03*
X209250000Y-95800000D03*
X209250000Y-97800000D03*
X209250000Y-99800000D03*
X209250000Y-101800000D03*
D12*
%TO.C,TP7*%
X170300000Y-85220000D03*
%TO.C,TP5*%
X170300000Y-87760000D03*
%TO.C,TP6*%
X170300000Y-90300000D03*
%TO.C,TP1*%
X170300000Y-95380000D03*
%TO.C,TP10*%
X170300000Y-97920000D03*
%TO.C,TP2*%
X170300000Y-100460000D03*
%TO.C,TP13*%
X183000000Y-90300000D03*
%TO.C,TP4*%
X185540000Y-90300000D03*
D13*
%TO.C,J4*%
X161410000Y-86490000D03*
X161410000Y-89030000D03*
X161410000Y-91570000D03*
X161410000Y-94110000D03*
X161410000Y-96650000D03*
X161410000Y-99190000D03*
X163950000Y-86490000D03*
X163950000Y-89030000D03*
X163950000Y-91570000D03*
X163950000Y-94110000D03*
X163950000Y-96650000D03*
X163950000Y-99190000D03*
D14*
%TO.C,J1*%
X193260000Y-91060000D03*
D15*
X190720000Y-88520000D03*
X190720000Y-93600000D03*
X195800000Y-88520000D03*
X195800000Y-93600000D03*
M02*
